<?xml version="1.0" standalone="no"?>
<!DOCTYPE svg PUBLIC "-//W3C//DTD SVG 1.1//EN" "http://www.w3.org/Graphics/SVG/1.1/DTD/svg11.dtd" >
<svg xmlns="http://www.w3.org/2000/svg" xmlns:xlink="http://www.w3.org/1999/xlink" version="1.1">
<metadata>
Created by FontForge 20190801 at Thu Jan  6 09:04:03 2011
 By Jimmy Wärting
COPYRIGHT c 2010 Hyundai Motor Group. All rights reserved. Font designed by TypoDesign lab.inc.
</metadata>
<defs>
<font id="HDharmonyL" horiz-adv-x="872" >
  <font-face 
    font-family=" L"
    font-weight="400"
    font-stretch="normal"
    units-per-em="1000"
    panose-1="2 2 6 3 2 1 1 2 1 1"
    ascent="858"
    descent="-142"
    x-height="542"
    cap-height="731"
    bbox="-28 -142 900 858"
    underline-thickness="25"
    underline-position="-154"
    unicode-range="U+0020-FFE6"
  />
<missing-glyph horiz-adv-x="1000" 
d="M100 -42v800h800v-800h-800zM150 8h700v700h-700v-700z" />
    <glyph glyph-name=".notdef" horiz-adv-x="1000" 
d="M100 -42v800h800v-800h-800zM150 8h700v700h-700v-700z" />
    <glyph glyph-name="glyph1" horiz-adv-x="0" 
 />
    <glyph glyph-name="glyph2" horiz-adv-x="1000" 
 />
    <glyph glyph-name="space" unicode=" " horiz-adv-x="297" 
 />
    <glyph glyph-name="exclam" unicode="!" horiz-adv-x="296" 
d="M198 761v-259q0 -88 -11 -256h-79q-10 178 -10 257v258h100zM95 120h106v-102h-106v102z" />
    <glyph glyph-name="quotedbl" unicode="&#x22;" horiz-adv-x="390" 
d="M69 802h84v-193h-84v193zM237 802h84v-193h-84v193z" />
    <glyph glyph-name="numbersign" unicode="#" horiz-adv-x="683" 
d="M259 731h74l-39 -188h151l39 188h74l-39 -188h96v-69h-110l-30 -141h100v-69h-114l-39 -188h-75l39 188h-150l-39 -188h-75l39 188h-93v69h108l29 141h-97v69h112zM280 474l-30 -141h151l29 141h-150z" />
    <glyph glyph-name="dollar" unicode="$" horiz-adv-x="591" 
d="M255 786h71v-87q81 1 154 -11v-68q-79 11 -154 10v-205l83 -23q58 -16 90.5 -52t32.5 -83q0 -74 -67 -119q-50 -33 -139 -42v-85h-71v82q-99 1 -178 15v68q70 -11 178 -13v201q-196 45 -196 163q0 72 62 115q49 33 134 43v91zM326 358v-184q53 4 84 23q43 25 43 70
q0 64 -107 87zM255 445v180q-114 -14 -114 -86q0 -37 29 -59q22 -16 85 -35z" />
    <glyph glyph-name="percent" unicode="%" horiz-adv-x="880" 
d="M216 738q71 0 122.5 -50.5t51.5 -119.5t-51.5 -119t-122.5 -50t-122 50.5t-51 118.5q0 69 51 119.5t122 50.5zM665 738l-367 -669h-84l367 669h84zM664 408q71 0 122 -50.5t51 -119.5t-51 -119.5t-122 -50.5q-73 0 -124 50.5t-51 119.5q0 70 51 120t124 50zM663 135
q44 0 72 29.5t28 73.5q0 43 -28.5 73t-71.5 30t-71.5 -29.5t-28.5 -73.5t28.5 -73.5t71.5 -29.5zM217 465q42 0 71.5 29.5t29.5 74.5q0 44 -29.5 74t-71.5 30q-45 0 -73.5 -30t-28.5 -74q0 -45 28.5 -74.5t73.5 -29.5z" />
    <glyph glyph-name="ampersand" unicode="&#x26;" horiz-adv-x="669" 
d="M273 471q113 51 118 111q4 50 -24 76.5t-71 26.5q-40 0 -69 -27.5t-23 -72.5q6 -44 69 -114zM337 430l-20 -10l142 -162q35 55 42 118h78q-17 -104 -70 -176l108 -124h-92l-63 71q-4 -3 -8 -7q-89 -76 -206 -76q-87 0 -146 50q-59 51 -59 130q0 109 165 193
q-88 93 -88 156q0 67 46.5 109.5t130.5 42.5q82 0 128.5 -45.5t46.5 -111.5q0 -95 -135 -158zM251 386q-19 -10 -39 -21q-89 -52 -89 -118q0 -48 33.5 -79t87.5 -35q84 -6 157 56q7 6 13 13z" />
    <glyph glyph-name="quotesingle" unicode="'" horiz-adv-x="228" 
d="M70 802h88v-193h-88v193z" />
    <glyph glyph-name="parenleft" unicode="(" horiz-adv-x="345" 
d="M64 388q0 281 170 439l59 -53q-141 -128 -141 -386q0 -257 141 -385l-59 -53q-170 158 -170 438z" />
    <glyph glyph-name="parenright" unicode=")" horiz-adv-x="345" 
d="M281 388q0 -280 -170 -438l-59 53q141 128 141 385q0 258 -141 386l59 53q170 -158 170 -439z" />
    <glyph glyph-name="asterisk" unicode="*" horiz-adv-x="557" 
d="M65 425l26 73l153 -55l-11 173h85l-7 -172l158 55l23 -74l-164 -47l117 -145l-70 -46l-95 154l-105 -154l-64 45l115 146z" />
    <glyph glyph-name="plus" unicode="+" horiz-adv-x="576" 
d="M63 441h180v191h89v-191h181v-74h-181v-196h-89v196h-180v74z" />
    <glyph glyph-name="comma" unicode="," horiz-adv-x="314" 
d="M103 -75q66 27 66 113h-68v116h122v-105q0 -123 -99 -158z" />
    <glyph glyph-name="hyphen" unicode="-" horiz-adv-x="500" 
d="M70 443h360v-78h-360v78z" />
    <glyph glyph-name="period" unicode="." horiz-adv-x="314" 
d="M101 36v118h122v-118h-122z" />
    <glyph glyph-name="slash" unicode="/" horiz-adv-x="428" 
d="M34 25l275 778h85l-275 -778h-85z" />
    <glyph glyph-name="zero" unicode="0" horiz-adv-x="564" 
d="M282 135q75 0 113.5 72.5t38.5 194.5q0 123 -41 196.5t-111 73.5q-71 0 -111.5 -73.5t-40.5 -196.5q0 -122 38.5 -194.5t113.5 -72.5zM42 402q0 142 65 243t175 101t175 -101t65 -243t-62.5 -241.5t-177.5 -99.5t-177.5 99.5t-62.5 241.5z" />
    <glyph glyph-name="one" unicode="1" horiz-adv-x="564" 
d="M289 76v580l-166 -62v73l175 72h79v-663h-88z" />
    <glyph glyph-name="two" unicode="2" horiz-adv-x="564" 
d="M249 670q-76 1 -160 -44v77q92 45 188 41q82 -3 133 -51.5t51 -131.5q0 -117 -90 -220l-164 -191h275v-74h-405v42l180 206q52 58 84.5 113t32.5 113q0 53 -30 86t-95 34z" />
    <glyph glyph-name="three" unicode="3" horiz-adv-x="564" 
d="M228 673q-52 0 -123 -17v71q65 17 120 18q113 3 177 -41t64 -128q0 -111 -109 -159q134 -57 132 -165q-2 -86 -70 -138.5t-186 -52.5q-68 0 -142 18v73q73 -17 137 -18q85 0 127.5 33.5t42.5 92.5q0 52 -50.5 86t-131.5 34h-43v75h39q167 0 167 116q0 100 -151 102z" />
    <glyph glyph-name="four" unicode="4" horiz-adv-x="564" 
d="M343 76v154h-305v52l315 464h74v-444h82v-72h-82v-154h-84zM343 610l-208 -308h208v308z" />
    <glyph glyph-name="five" unicode="5" horiz-adv-x="564" 
d="M196 465q149 11 223 -42t74 -149q0 -92 -65.5 -152.5t-188.5 -60.5q-92 0 -151 18v73q70 -16 145 -17q81 0 127 36.5t46 96.5q0 63 -49 94.5t-139 34.5q-49 2 -110 -6v340h345v-74h-257v-192z" />
    <glyph glyph-name="six" unicode="6" horiz-adv-x="564" 
d="M293 136q50 0 86 36.5t36 94.5q0 57 -33.5 92t-92.5 35q-72 0 -132 -34q-5 -107 33.5 -165.5t102.5 -58.5zM303 466q88 0 143 -52.5t55 -139.5q0 -94 -59 -153.5t-151 -59.5q-104 0 -163.5 82.5t-59.5 212.5q0 171 75 274q75 105 201 114q67 5 123 -8v-73q-56 8 -115 5
q-75 -4 -122 -62q-53 -66 -66 -173q68 33 139 33z" />
    <glyph glyph-name="seven" unicode="7" horiz-adv-x="564" 
d="M80 657v74h413v-63l-248 -592h-91l243 581h-317z" />
    <glyph glyph-name="eight" unicode="8" horiz-adv-x="564" 
d="M283 679q-53 0 -83 -29q-33 -28 -33 -81q0 -80 116 -124q116 42 116 124q0 51 -33 80q-32 30 -83 30zM282 60q-104 0 -164 53t-60 131q0 103 127 169q-106 70 -106 158q0 73 54.5 124.5t149.5 51.5q96 0 150 -52t54 -124q0 -92 -108 -158q127 -67 127 -169
q0 -79 -59.5 -131.5t-164.5 -52.5zM282 128q66 0 101 33t35 86q0 48 -34 81q-44 42 -101 49q-60 -10 -100 -48q-37 -33 -37 -82q0 -51 36 -85t100 -34z" />
    <glyph glyph-name="nine" unicode="9" horiz-adv-x="564" 
d="M270 672q-57 0 -89.5 -42t-32.5 -99q0 -61 32 -94t94 -33q66 0 129 38q4 103 -29.5 166.5t-103.5 63.5zM258 332q-89 0 -143.5 52t-54.5 140q0 100 58.5 161t153.5 61q107 0 164.5 -80.5t55.5 -216.5q-2 -160 -40 -240q-69 -145 -235 -149q-69 -2 -130 17v75
q54 -21 128 -16q77 5 127.5 58.5t55.5 169.5q-65 -32 -140 -32z" />
    <glyph glyph-name="colon" unicode=":" horiz-adv-x="314" 
d="M96 160v118h122v-118h-122zM96 528v118h122v-118h-122z" />
    <glyph glyph-name="semicolon" unicode=";" horiz-adv-x="314" 
d="M96 528v118h122v-118h-122zM98 49q66 27 66 113h-68v116h122v-105q0 -123 -99 -158z" />
    <glyph glyph-name="less" unicode="&#x3c;" horiz-adv-x="501" 
d="M451 58l-67 -49l-316 380l317 394l65 -49l-274 -346z" />
    <glyph glyph-name="equal" unicode="=" horiz-adv-x="530" 
d="M66 481v71h398v-71h-398zM66 258v71h398v-71h-398z" />
    <glyph glyph-name="greater" unicode="&#x3e;" horiz-adv-x="501" 
d="M51 58l275 330l-274 346l65 49l317 -394l-317 -380z" />
    <glyph glyph-name="question" unicode="?" horiz-adv-x="466" 
d="M419 575q0 -27 -10 -52.5t-25 -46.5t-33.5 -38t-35.5 -32q-48 -38 -65 -69.5t-17 -82.5v-34h-89v49q0 32 9.5 61.5t26.5 50.5q18 22 38 40t38 34q33 26 48.5 56t15.5 60q0 104 -123 104q-85 0 -150 -42v73q68 40 151 40q119 0 170 -51t51 -120zM135 121h106v-103h-106
v103z" />
    <glyph glyph-name="at" unicode="@" 
d="M642 164q105 27 130 186q10 63 -6 123.5t-65 112.5q-48 51 -112 76.5t-150 24.5q-63 -1 -125 -27.5t-113 -80.5q-48 -50 -74 -114t-30 -141q-4 -76 19.5 -145.5t71.5 -116.5q46 -50 111 -74.5t140 -26.5q165 -1 285 49v-68q-126 -48 -287 -48q-84 0 -167.5 29.5
t-139.5 88.5q-63 67 -87 148t-22 163q2 88 34 167.5t90 137.5q64 64 138 95.5t156 32.5q114 1 191 -33t129 -91q56 -62 76 -132t10 -150q-27 -206 -198 -246q-54 -13 -94 10q-31 16 -37 55q-51 -71 -129 -76q-71 -5 -118 41q-42 41 -45 111q-3 78 31 142q69 133 183 133
q103 -2 134 -86l21 77h71l-88 -300q-7 -31 8 -43q18 -14 58 -4zM386 158q49 0 92 50q55 65 55 144q0 93 -77 100q-45 4 -88 -35q-64 -59 -64 -158q0 -101 82 -101z" />
    <glyph glyph-name="A" unicode="A" horiz-adv-x="684" 
d="M385 744l265 -668h-84l-79 199h-291l-79 -199h-83l265 668h86zM342 650l-117 -301h233z" />
    <glyph glyph-name="B" unicode="B" horiz-adv-x="610" 
d="M93 731h165q75 0 127 -11q59 -12 99 -54t38 -115q-3 -94 -92 -134q121 -48 121 -156q0 -134 -131 -172q-45 -13 -151 -13h-176v655zM181 374v-224h130q51 0 76 8t37 19q39 33 39 84q0 52 -39 84q-13 10 -44.5 19.5t-78.5 9.5h-120zM274 447q63 0 86 8q74 26 74 96
q0 80 -70 97q-36 9 -100 9h-83v-210h93z" />
    <glyph glyph-name="C" unicode="C" horiz-adv-x="615" 
d="M59 411q0 148 88.5 237t246.5 95q83 4 159 -9v-73q-75 13 -146 9q-125 -5 -187 -71q-72 -73 -72 -192v-11q0 -121 73 -187.5t188 -73.5q80 -5 147 7v-73q-69 -12 -160 -7q-159 8 -248 94.5t-89 237.5v17z" />
    <glyph glyph-name="D" unicode="D" horiz-adv-x="688" 
d="M629 405q0 -56 -14.5 -106.5t-41.5 -90.5t-72 -71t-102 -45q-67 -16 -156 -16h-150v655h147q86 0 160 -18q58 -14 101.5 -43.5t72.5 -69.5t42 -89t13 -106zM541 405q0 95 -39.5 154t-118.5 81q-61 17 -144 17h-58v-507h58q96 0 144 15q78 24 118 84.5t40 155.5z" />
    <glyph glyph-name="E" unicode="E" horiz-adv-x="574" 
d="M181 150h334v-74h-422v655h415v-74h-327v-210h296v-73h-296v-224z" />
    <glyph glyph-name="F" unicode="F" horiz-adv-x="532" 
d="M181 76h-88v655h398v-74h-310v-210h273v-73h-273v-298z" />
    <glyph glyph-name="G" unicode="G" horiz-adv-x="692" 
d="M406 133q27 0 57 3t48 9v203h-149v74h237v-333q-92 -28 -191 -28q-169 0 -259 91.5t-90 233.5q0 164 92 257.5t266 99.5q74 3 144 -5v-72q-59 8 -143 4q-133 -5 -202 -74.5t-69 -200.5q0 -122 66 -192t193 -70z" />
    <glyph glyph-name="H" unicode="H" horiz-adv-x="695" 
d="M181 447h333v284h88v-655h-88v298h-333v-298h-88v655h88v-284z" />
    <glyph glyph-name="I" unicode="I" horiz-adv-x="274" 
d="M93 76v655h88v-655h-88z" />
    <glyph glyph-name="J" unicode="J" horiz-adv-x="405" 
d="M212 731h88v-481q0 -102 -52 -145.5t-127 -44.5q-45 -1 -93 4v73q44 -7 87 -3t70 27.5t27 73.5v496z" />
    <glyph glyph-name="K" unicode="K" horiz-adv-x="630" 
d="M181 731v-307l286 307h104l-302 -328l321 -327h-103l-306 304v-304h-88v655h88z" />
    <glyph glyph-name="L" unicode="L" horiz-adv-x="564" 
d="M181 731v-581h348v-74h-436v655h88z" />
    <glyph glyph-name="M" unicode="M" horiz-adv-x="849" 
d="M454 76h-59l-220 558v-558h-82v655h115l217 -531l215 531h116v-655h-83v558z" />
    <glyph glyph-name="N" unicode="N" horiz-adv-x="724" 
d="M166 731l377 -512v512h88v-655h-74l-376 507v-507h-88v655h73z" />
    <glyph glyph-name="O" unicode="O" horiz-adv-x="759" 
d="M146 402q0 -123 66 -191t167 -68t166.5 68t65.5 191q0 124 -65.5 192.5t-166.5 68.5t-167 -68.5t-66 -192.5zM59 402q0 146 89 241t231 95t231.5 -95t89.5 -241q0 -145 -89.5 -239.5t-231.5 -94.5t-231 94.5t-89 239.5z" />
    <glyph glyph-name="P" unicode="P" horiz-adv-x="612" 
d="M93 731h200q99 0 154 -24q36 -15 62 -43q50 -56 50 -137q0 -80 -50 -136q-26 -28 -62 -43q-53 -22 -162 -22h-104v-250h-88v655zM181 400h136q74 0 114 37q39 35 39 90q0 57 -39 92q-40 38 -114 38h-136v-257z" />
    <glyph glyph-name="Q" unicode="Q" horiz-adv-x="777" 
d="M595 148q35 -5 83 -5h69v-67h-79q-80 0 -141 25q-65 -32 -148 -32q-142 0 -231 94t-89 239q0 146 89 240.5t231 94.5t231.5 -94.5t89.5 -240.5q0 -145 -89 -239q-8 -8 -16 -15zM146 402q0 -123 66 -191t167 -68t166.5 68t65.5 191q0 124 -65.5 192.5t-166.5 68.5
t-167 -68.5t-66 -192.5z" />
    <glyph glyph-name="R" unicode="R" horiz-adv-x="601" 
d="M181 433h121q67 0 103.5 31t36.5 81q0 47 -34 79.5t-107 32.5h-120v-224zM261 360h-80v-284h-88v655h198q121 0 180 -53q59 -55 59 -134q0 -83 -61 -133q-43 -36 -118 -47l211 -288h-94z" />
    <glyph glyph-name="S" unicode="S" horiz-adv-x="582" 
d="M400 405q65 -23 91.5 -64t24.5 -94q-3 -84 -67 -135.5t-192 -51.5q-119 0 -189 21v75q85 -23 190 -22q82 1 124 30t46 80q6 71 -74 98l-168 57q-59 20 -89.5 57t-30.5 94q0 80 57.5 134.5t167.5 60.5q86 5 169 -15v-73q-79 21 -166 13q-68 -6 -103.5 -35t-35.5 -80
q0 -66 76 -92z" />
    <glyph glyph-name="T" unicode="T" horiz-adv-x="582" 
d="M335 76h-88v581h-219v74h526v-74h-219v-581z" />
    <glyph glyph-name="U" unicode="U" horiz-adv-x="699" 
d="M181 320q0 -82 44 -134q42 -48 126 -48q83 0 126 48q45 52 45 134v411h88v-404q0 -124 -67 -196q-63 -69 -192 -69t-192 69q-66 72 -66 196v404h88v-411z" />
    <glyph glyph-name="V" unicode="V" horiz-adv-x="644" 
d="M35 731h87l200 -530l200 530h87l-248 -655h-77z" />
    <glyph glyph-name="W" unicode="W" horiz-adv-x="903" 
d="M256 183l148 548h94l144 -548l142 547l86 1l-178 -655h-92l-149 555l-151 -555h-90l-177 655h85z" />
    <glyph glyph-name="X" unicode="X" horiz-adv-x="659" 
d="M330 344l-190 -268h-101l245 336l-231 319h101l175 -250l177 250h100l-231 -319l245 -336h-101z" />
    <glyph glyph-name="Y" unicode="Y" horiz-adv-x="641" 
d="M276 364l-238 367h96l187 -297l184 297h98l-238 -369v-286h-89v288z" />
    <glyph glyph-name="Z" unicode="Z" horiz-adv-x="616" 
d="M554 731v-76l-374 -505h379v-74h-497v49l398 532h-389v74h483z" />
    <glyph glyph-name="bracketleft" unicode="[" horiz-adv-x="387" 
d="M110 831h220v-62h-142v-760h142v-62h-220v884z" />
    <glyph glyph-name="backslash" unicode="\" 
d="M36 388v69h93l-66 274h74l59 -274h131l68 274h82l65 -274h131l62 274h74l-67 -274h94v-69h-110l-76 -312h-80l-73 312h-122l-76 -312h-78l-75 312h-110zM392 457h89l-44 187zM658 388h-100l51 -217zM310 388h-99l46 -217z" />
    <glyph glyph-name="bracketright" unicode="]" horiz-adv-x="387" 
d="M277 830v-884h-220v62h142v760h-142v62h220z" />
    <glyph glyph-name="asciicircum" unicode="^" horiz-adv-x="543" 
d="M145 460h-86l181 343h72l182 -343h-87l-131 260z" />
    <glyph glyph-name="underscore" unicode="_" horiz-adv-x="488" 
d="M10 9h468v-67h-468v67z" />
    <glyph glyph-name="grave" unicode="`" horiz-adv-x="381" 
d="M204 802l62 -172h-70l-82 172h90z" />
    <glyph glyph-name="a" unicode="a" horiz-adv-x="543" 
d="M372 283q-42 11 -71.5 15t-58.5 2q-42 -2 -66 -19q-31 -23 -32 -65q0 -42 23 -63t59 -19q84 4 146 67v82zM380 130q-79 -67 -167 -67q-74 0 -115.5 44t-41.5 108q0 68 51 112q48 40 126 42t139 -19v21q0 105 -126 111q-72 3 -132 -12v72q66 12 141 12q91 0 147 -47
q57 -48 58 -142v-289h-80v54z" />
    <glyph glyph-name="b" unicode="b" horiz-adv-x="581" 
d="M300 481h-1q-65 0 -123 -67v-204q52 -73 126 -73h1h-3h2q66 1 100 49q35 47 35 122q0 76 -35 124.5t-102 48.5zM319 63q-89 0 -151 65v-52h-80v668h88v-245q69 56 143 56q87 0 146.5 -65.5t59.5 -181.5q0 -115 -58 -180t-148 -65z" />
    <glyph glyph-name="c" unicode="c" horiz-adv-x="496" 
d="M145 309q0 -73 39 -118q48 -53 138 -53q72 1 118 11v-72q-62 -18 -130 -14q-124 7 -189 73t-65 173q0 108 67.5 175t186.5 71q65 2 127 -14v-72q-46 11 -115 12q-90 0 -138 -55q-39 -42 -39 -117z" />
    <glyph glyph-name="d" unicode="d" horiz-adv-x="581" 
d="M281 481q-67 0 -102 -48.5t-35 -124.5q0 -75 35 -122q34 -48 100 -49h2h-3h1q74 0 126 73v204q-60 67 -123 67h-1zM262 63q-90 0 -148 65t-58 180q0 116 59.5 181.5t146.5 65.5q79 0 143 -56v245h88v-668h-80v52q-62 -65 -151 -65z" />
    <glyph glyph-name="e" unicode="e" horiz-adv-x="534" 
d="M144 336h247q-1 71 -33.5 109.5t-90.5 38.5q-54 0 -87 -38t-36 -110zM142 269q6 -64 47 -98t104 -37q77 -4 160 15v-69q-76 -21 -160 -20q-105 1 -171 64t-66 184q0 114 60 181t151 67q94 0 152.5 -67.5t58.5 -173.5v-46h-336z" />
    <glyph glyph-name="f" unicode="f" horiz-adv-x="344" 
d="M318 542v-70h-121v-396h-84v396h-87v70h87v8q0 73 12.5 108t35.5 58q26 22 58.5 33t69.5 11q20 0 43 -4v-66q-14 2 -30 2q-25 0 -44 -6.5t-33 -20.5q-13 -14 -20.5 -36t-7.5 -77v-10h121z" />
    <glyph glyph-name="g" unicode="g" horiz-adv-x="580" 
d="M282 151q67 0 122 72v193q-54 66 -122 66q-63 0 -100 -50.5t-37 -119.5q0 -68 36.5 -114.5t100.5 -46.5zM404 105v33q-63 -61 -142 -61q-87 0 -144 59q-62 68 -62 177q0 105 62 179q54 63 144 63q87 0 150 -66v53h80v-409q0 -139 -60 -192q-64 -57 -178 -60
q-77 -2 -142 12v71q60 -14 137 -14t116 38.5t39 116.5z" />
    <glyph glyph-name="h" unicode="h" horiz-adv-x="591" 
d="M88 744h88v-267q61 78 150 78q75 0 126 -45.5t51 -147.5v-286h-88v299q0 106 -111 106q-74 0 -128 -99v-306h-88v668z" />
    <glyph glyph-name="i" unicode="i" horiz-adv-x="264" 
d="M88 76v466h88v-466h-88zM85 652v92h94v-92h-94z" />
    <glyph glyph-name="j" unicode="j" horiz-adv-x="273" 
d="M96 27v515h88v-487q0 -101 -43.5 -137t-104.5 -35q-33 1 -64 8v69q51 -13 93 5q31 13 31 62zM93 652v92h94v-92h-94z" />
    <glyph glyph-name="k" unicode="k" horiz-adv-x="534" 
d="M176 330l214 212h102l-231 -229l233 -237h-101l-217 220v-220h-88v668h88v-414z" />
    <glyph glyph-name="l" unicode="l" horiz-adv-x="264" 
d="M88 76v668h88v-668h-88z" />
    <glyph glyph-name="m" unicode="m" horiz-adv-x="867" 
d="M391 350q0 130 -109 130t-109 -130v-274h-85v275q0 99 51 151.5t141 52.5t143 -59q6 -6 11 -13q5 7 11 13q53 59 142 59q91 0 141.5 -53t50.5 -151v-275h-85v274q0 130 -109 130t-109 -130v-274h-85v274z" />
    <glyph glyph-name="n" unicode="n" horiz-adv-x="591" 
d="M87 366q0 93 56.5 140.5t152.5 47.5q95 0 151.5 -51t56.5 -136v-291h-88v291q0 112 -120 112q-121 0 -121 -112v-291h-88v290z" />
    <glyph glyph-name="o" unicode="o" horiz-adv-x="608" 
d="M552 307q0 -107 -72.5 -176.5t-175.5 -69.5q-100 0 -174 69t-74 177q0 110 72.5 179t175.5 69t175.5 -70t72.5 -178zM143 307q0 -77 45 -125t116 -48t116 48t45 125q0 78 -45 126.5t-116 48.5t-116 -48.5t-45 -126.5z" />
    <glyph glyph-name="p" unicode="p" horiz-adv-x="581" 
d="M300 137q67 0 102 48.5t35 124.5q0 75 -35 122q-34 48 -100 49h-2h3h-1q-74 0 -126 -73v-204q60 -67 123 -67h1zM319 555q90 0 148 -65t58 -180q0 -116 -59.5 -181.5t-146.5 -65.5q-79 0 -143 56v-237h-88v660h80v-55q66 68 151 68z" />
    <glyph glyph-name="q" unicode="q" horiz-adv-x="582" 
d="M282 137h1q63 0 123 67v204q-52 73 -126 73h-1h1h2h-2q-66 -1 -100 -49q-35 -47 -35 -122q0 -76 35 -124.5t102 -48.5zM263 555q82 0 151 -68v55h80v-660h-88v237q-64 -56 -143 -56q-87 0 -146.5 65.5t-59.5 181.5q0 115 58 180t148 65z" />
    <glyph glyph-name="r" unicode="r" horiz-adv-x="382" 
d="M88 542h80v-77q60 90 154 90q19 0 30 -2v-74l-30 1q-89 0 -146 -93v-311h-88v466z" />
    <glyph glyph-name="s" unicode="s" horiz-adv-x="488" 
d="M142 424q-2 -25 20 -44.5t92 -36.5l79 -20q49 -12 75 -43t24 -73q-3 -63 -51 -104q-52 -44 -167 -44q-87 0 -148 12v67q72 -15 150 -13q59 2 94 17q36 19 36 59q0 52 -66 67l-71 16q-153 32 -153 132q0 54 47 96.5t151 46.5q70 3 138 -14v-65q-72 16 -148 12
q-97 -6 -102 -68z" />
    <glyph glyph-name="t" unicode="t" horiz-adv-x="378" 
d="M206 212q0 -44 20 -60q22 -18 53 -18h70v-71h-82q-76 0 -111 35q-36 36 -36 111v263h-92v70h92v126l86 27v-153h120v-70h-120v-260z" />
    <glyph glyph-name="u" unicode="u" horiz-adv-x="591" 
d="M87 250v292h88v-301q0 -109 121 -109q120 0 120 109v301h88v-293q0 -95 -57.5 -143t-152.5 -48q-97 0 -152 45t-55 147z" />
    <glyph glyph-name="v" unicode="v" horiz-adv-x="541" 
d="M313 76h-89l-189 466h86l149 -381l151 381h84z" />
    <glyph glyph-name="w" unicode="w" horiz-adv-x="751" 
d="M371 448l-101 -372h-84l-152 466h83l110 -382l104 382h81l110 -380l113 380h82l-157 -466h-87z" />
    <glyph glyph-name="x" unicode="x" horiz-adv-x="520" 
d="M259 376l119 166h99l-167 -230l175 -236h-97l-128 173l-125 -173h-99l174 237l-167 229h97z" />
    <glyph glyph-name="y" unicode="y" horiz-adv-x="520" 
d="M30 542h88l135 -357l148 357h87l-277 -660h-86l85 202z" />
    <glyph glyph-name="z" unicode="z" horiz-adv-x="459" 
d="M315 473h-259v69h356v-69l-253 -328h270v-69h-384v41z" />
    <glyph glyph-name="braceleft" unicode="{" horiz-adv-x="424" 
d="M171 388q81 -38 82 -134v-146q0 -96 92 -96h22v-74h-38q-154 0 -154 196v91q0 107 -62 107h-25v112h25q62 0 62 107v91q0 196 154 196h38v-74h-22q-92 0 -92 -97v-146q-1 -96 -82 -133z" />
    <glyph glyph-name="bar" unicode="|" horiz-adv-x="253" 
d="M166 -130h-79v976h79v-976z" />
    <glyph glyph-name="braceright" unicode="}" horiz-adv-x="424" 
d="M253 388q-81 37 -82 133v146q0 97 -92 97h-22v74h38q154 0 154 -196v-91q0 -107 62 -107h25v-112h-25q-62 0 -62 -107v-91q0 -196 -154 -196h-38v74h22q92 0 92 96v146q1 96 82 134z" />
    <glyph glyph-name="asciitilde" unicode="~" horiz-adv-x="588" 
d="M472 423h78q-11 -66 -46 -106q-43 -49 -104 -49q-46 0 -86 29l-61 53q-33 28 -54 30q-69 9 -79 -82h-76q4 66 45 110q47 50 111 44q42 -5 79 -32l58 -51q29 -27 48 -30q68 -7 87 84z" />
    <glyph glyph-name="uni007F" horiz-adv-x="527" 
d="M118 703v-599h291v599h-291zM466 754v-701h-405v701h405z" />
    <glyph glyph-name="exclamdown" unicode="&#xa1;" 
d="M383 731h106v-108h-106v108zM487 53h-101l12 480h77z" />
    <glyph glyph-name="currency" unicode="&#xa4;" 
d="M673 418q0 108 -72.5 171t-164.5 63t-164.5 -63t-72.5 -171t72.5 -171t164.5 -63t164.5 63t72.5 171zM739 418q0 -111 -74 -193l119 -119l-36 -37l-122 121q-80 -64 -190 -64q-109 0 -189 63l-121 -120l-36 37l119 118q-76 82 -76 194q0 111 74 192l-118 121l36 37
l121 -122q80 64 190 64t191 -65l122 123l36 -37l-120 -120q74 -82 74 -193z" />
    <glyph glyph-name="section" unicode="&#xa7;" 
d="M396 479q-31 1 -54 -16q-28 -24 -28 -56q0 -47 65 -99q64 -49 127 -49q70 0 70 53q0 49 -59 110q-70 56 -121 57zM442 803q63 0 101 -39.5t38 -94.5h-44q-9 46 -36 65.5t-64 19.5t-61 -23.5t-19 -58.5q5 -34 43 -73q22 -23 79 -71q71 -55 99 -85q46 -54 53 -99
q8 -55 -17 -87q-33 -47 -107 -39q33 -32 53 -54q48 -48 47 -91q-3 -60 -50.5 -89.5t-118.5 -29.5q-59 0 -101.5 34.5t-47.5 96.5h58q6 -37 33.5 -57.5t60.5 -20.5q99 0 99 72q0 51 -117 127q-68 47 -105 80q-51 44 -59 95.5t19 89.5q46 64 132 48l-32 32q-26 21 -55 55
t-29 75q-1 49 37 85.5t102 36.5h9z" />
    <glyph glyph-name="dieresis" unicode="&#xa8;" 
d="M538 679v123h123v-123h-123zM211 679v123h123v-123h-123z" />
    <glyph glyph-name="ordfeminine" unicode="&#xaa;" 
d="M178 150h516v-74h-516v74zM548 457q-42 11 -71.5 14t-58.5 2q-42 -2 -65 -19q-32 -23 -33 -66q0 -42 23.5 -62t58.5 -20q84 0 146 65v86zM556 304q-83 -69 -167 -69q-74 0 -115.5 44t-41.5 109q0 67 51 111q48 42 126 42q72 0 139 -22v26q0 105 -126 110q-72 3 -132 -11
v70q65 15 141 13q89 -2 147 -48t58 -142v-289h-80v56z" />
    <glyph glyph-name="uni00AD" unicode="&#xad;" 
d="M245 368v74h449v-74h-449z" />
    <glyph glyph-name="registered" unicode="&#xae;" 
d="M280 665h158q56 0 91 -13t56 -33q20 -21 32 -48t12 -55t-12 -54.5t-32 -46.5q-21 -20 -56 -32q-13 -5 -44 -12l167 -229h-78l-164 228h-59v-228h-71v523zM351 427h95q58 0 85 26t27 64t-27.5 63.5t-84.5 25.5h-95v-179zM843 405q0 -82 -32.5 -155t-88.5 -130
q-53 -53 -128 -85t-158 -32t-157.5 32t-131.5 85q-53 57 -84.5 130t-31.5 155t31.5 155.5t84.5 127.5q57 55 131.5 88t157.5 33t158 -33t129 -88q55 -54 87.5 -127.5t32.5 -155.5zM796 405q0 74 -29.5 140.5t-79.5 114.5q-48 50 -112.5 80t-138.5 30t-138.5 -30t-113.5 -80
q-49 -48 -77.5 -114.5t-28.5 -140.5q0 -75 28.5 -141.5t77.5 -115.5q49 -51 113.5 -79.5t138.5 -28.5t138 28.5t113 79.5q50 49 79.5 115.5t29.5 141.5z" />
    <glyph glyph-name="degree" unicode="&#xb0;" 
d="M343 696q0 -43 -29.5 -74.5t-78.5 -31.5t-78.5 31.5t-29.5 74.5t29.5 74.5t78.5 31.5t78.5 -31.5t29.5 -74.5zM298 696q0 26 -17 45.5t-46 19.5t-46 -19.5t-17 -45.5t17 -45.5t46 -19.5t46 19.5t17 45.5z" />
    <glyph glyph-name="plusminus" unicode="&#xb1;" 
d="M211 217h450v-70h-450v70zM211 551h180v191h89v-191h181v-74h-181v-189h-89v189h-180v74z" />
    <glyph glyph-name="uni00B2" unicode="&#xb2;" 
d="M202 752q-52 -4 -105 -31v52q63 29 124 29q54 -1 86.5 -34.5t32.5 -85.5q0 -79 -82 -170l-77 -92h172v-50h-260v29l113 133q36 45 54.5 79t18.5 65q0 38 -21.5 58t-55.5 18z" />
    <glyph glyph-name="uni00B3" unicode="&#xb3;" 
d="M188 750q-40 0 -82 -13v50q39 11 80 13q72 3 113 -24.5t41 -85.5q-3 -64 -73 -103q88 -30 88 -98q0 -63 -45 -96.5t-120 -33.5q-52 0 -93 12v46q47 -8 90 -8q57 0 82.5 22.5t25.5 58.5t-31.5 54t-78.5 18h-34v47h22q108 0 108 78q-7 63 -93 63z" />
    <glyph glyph-name="acute" unicode="&#xb4;" 
d="M400 552h-50l94 250h108z" />
    <glyph glyph-name="paragraph" unicode="&#xb6;" 
d="M617 803v-848h-30v821h-110v-821h-30v510q-113 0 -160.5 48.5t-47.5 120.5q0 70 49.5 119.5t117.5 49.5h211z" />
    <glyph glyph-name="periodcentered" unicode="&#xb7;" 
d="M374 346v123h123v-123h-123z" />
    <glyph glyph-name="cedilla" unicode="&#xb8;" 
d="M418 112h45l-16 -60q90 -15 90 -72q0 -40 -34 -64.5t-94 -24.5q-20 0 -37 3t-21 5v37q1 -1 16 -3.5t35 -3.5q83 0 83 51q0 24 -27.5 35t-66.5 11z" />
    <glyph glyph-name="uni00B9" unicode="&#xb9;" 
d="M191 370v376l-106 -39v48l111 47h55v-432h-60z" />
    <glyph glyph-name="ordmasculine" unicode="&#xba;" 
d="M436 731q106 0 180 -72q67 -68 67 -174t-67 -175q-74 -71 -180 -71q-104 0 -178 71q-69 69 -69 175t69 174q74 72 178 72zM278 485q0 -76 47 -123q46 -48 111 -49q67 1 113 49q47 47 47 123t-47 123q-46 48 -113 49q-65 -1 -111 -49q-47 -47 -47 -123zM178 150h516v-74
h-516v74z" />
    <glyph glyph-name="onequarter" unicode="&#xbc;" 
d="M453 -114v96h-177v31l184 263h45v-250h51v-44h-51v-96h-52zM778 338h-684v41h684v-41zM453 199l-116 -173h116v173zM424 455v325l-98 -36v40l103 43h47v-372h-52z" />
    <glyph glyph-name="onehalf" unicode="&#xbd;" 
d="M778 338h-684v41h684v-41zM423 202q-43 0 -93 -26v45q70 33 112 28q47 -6 72 -32q26 -24 26 -71q0 -65 -66 -142l-67 -75h145v-44h-222v27l93 108q33 38 48.5 67t15.5 53q0 62 -64 62zM424 455v325l-98 -36v40l103 43h47v-372h-52z" />
    <glyph glyph-name="threequarters" unicode="&#xbe;" 
d="M778 338h-684v41h684v-41zM453 -114v96h-177v31l184 263h45v-250h51v-44h-51v-96h-52zM453 199l-116 -173h116v173zM496 637q60 -28 60 -84q0 -53 -38 -83q-36 -25 -98 -26q-42 -1 -79 13v43q40 -13 76 -12q48 1 67 19t19 47q0 30 -23.5 44.5t-66.5 14.5h-28v44h19
q88 0 88 61q0 51 -72 53q-37 1 -75 -15v40q45 21 82 20q27 -1 49.5 -8t35.5 -18q16 -14 24 -30.5t8 -36.5q0 -53 -48 -86z" />
    <glyph glyph-name="questiondown" unicode="&#xbf;" 
d="M489 745v-108h-106v108h106zM205 209q0 28 9.5 51.5t24.5 42.5t34 34t36 29q47 36 64.5 64.5t17.5 76.5v40h89v-60q0 -30 -9 -57t-27 -47q-17 -21 -37.5 -37t-37.5 -30q-33 -24 -49 -50.5t-16 -52.5q0 -92 114 -92q33 0 66.5 9t79.5 26v-69q-29 -14 -68 -23.5t-80 -9.5
q-103 0 -157 45t-54 110z" />
    <glyph glyph-name="AE" unicode="&#xc6;" 
d="M769 76h-225l-60 169h-272l-54 -169h-76l220 695h458v-64h-352l81 -242h253v-65h-228l93 -260h162v-64zM461 310l-113 373l-113 -373h226z" />
    <glyph glyph-name="Eth" unicode="&#xd0;" 
d="M729 406q0 -57 -14 -107t-42 -90q-30 -41 -73.5 -71t-99.5 -45q-34 -10 -72 -13.5t-85 -3.5h-150v291h-113v74h113v290h152q46 0 84 -4t72 -14q56 -16 100 -45.5t73 -68.5q28 -39 41.5 -87.5t13.5 -105.5zM643 406q0 94 -41 152.5t-119 82.5q-29 9 -65 12.5t-79 3.5h-58
v-216h105v-74h-105v-217h58q43 0 79 2.5t65 12.5q78 24 119 85t41 156z" />
    <glyph glyph-name="multiply" unicode="&#xd7;" 
d="M594 191l-158 158l-157 -157l-53 53l157 157l-157 157l53 54l157 -158l158 158l53 -53l-158 -158l158 -158z" />
    <glyph glyph-name="Oslash" unicode="&#xd8;" 
d="M657 403q0 67 -18 115q-11 28 -25 52l-326 -371q27 -26 63 -40q40 -17 85 -17q47 0 86.5 16.5t70.5 49.5q28 33 46 80.5t18 114.5zM586 606q-28 28 -64 43q-40 17 -86 17t-86 -17.5t-70 -49.5q-30 -34 -47 -82t-17 -114t18 -114q10 -30 26 -54zM745 403
q0 -73 -21.5 -132.5t-60.5 -104.5q-40 -46 -97.5 -71.5t-129.5 -25.5t-130 26q-40 17 -71 44l-94 -107l-32 31l95 108q-37 44 -56 99q-20 59 -20 133q0 75 21 134t61 104q39 46 97 71.5t129 25.5q73 0 131 -25q40 -18 72 -47l104 119l32 -32l-105 -119q36 -43 55 -97
q20 -59 20 -134z" />
    <glyph glyph-name="Thorn" unicode="&#xde;" 
d="M440 481h-1q-61 0 -123 -64v-209q55 -70 126 -71q66 1 101 48q34 48 34 122q0 76 -35 125t-102 49zM308 130v-130h-80v746h88v-241q68 50 143 50q90 0 148 -64t58 -184q0 -118 -58 -181t-148 -63q-87 0 -151 67z" />
    <glyph glyph-name="germandbls" unicode="&#xdf;" 
d="M687 237q-1 -72 -56 -120.5t-163 -48.5h-55v63h21q164 0 164 119q0 137 -165 137h-20v62h3q78 -1 118.5 29.5t40.5 101.5q0 48 -35.5 74t-103.5 26q-120 0 -120 -116v-506h-88v499q0 187 208 187h15q93 0 150 -45t57 -120q0 -104 -105 -156q134 -45 134 -186z" />
    <glyph glyph-name="ae" unicode="&#xe6;" 
d="M408 279q-50 23 -118 23q-41 0 -73 -22t-32 -64t19 -64q23 -23 73 -23q75 0 131 63v87zM486 334h223q-7 71 -29 105q-32 49 -83 49q-53 0 -82 -49q-22 -34 -29 -105zM408 370q0 120 -110 120q-86 0 -154 -27v63q76 32 158 32q79 0 129 -46q14 -13 24 -29l6 6
q53 66 136 66q86 0 138 -67t52 -172v-44h-303q10 -66 44 -101q41 -42 98 -41q78 0 137 32v-67q-58 -32 -137 -32q-101 0 -160 66q-6 6 -11 12q-87 -78 -190 -78q-32 0 -65.5 10.5t-53.5 29.5q-18 19 -28 48.5t-10 64.5q0 34 11 62.5t31 46.5q21 20 59 31t73 11q55 0 126 -29
v32z" />
    <glyph glyph-name="eth" unicode="&#xf0;" 
d="M391 588l83 44q-40 25 -96 27q-74 4 -128 -12v76q67 16 131 15q104 -3 171 -64l89 47l25 -49l-77 -41q66 -95 66 -279q0 -128 -59 -211.5t-161 -83.5q-97 0 -154.5 59t-57.5 161q0 93 55.5 141.5t142.5 48.5q68 0 138 -33q0 105 -41 159l-102 -54zM433 132q71 0 102.5 58
t31.5 162q-36 18 -68 30.5t-62 12.5q-63 0 -94 -31.5t-31 -93.5q0 -57 31.5 -97.5t89.5 -40.5z" />
    <glyph glyph-name="divide" unicode="&#xf7;" 
d="M698 365h-522l-1 73h523v-73zM498 619q0 -25 -18.5 -43.5t-43.5 -18.5t-43.5 18.5t-18.5 43.5t18.5 43.5t43.5 18.5t43.5 -18.5t18.5 -43.5zM498 185q0 -25 -18.5 -43.5t-43.5 -18.5t-43.5 18.5t-18.5 43.5t18.5 43.5t43.5 18.5t43.5 -18.5t18.5 -43.5z" />
    <glyph glyph-name="oslash" unicode="&#xf8;" 
d="M436 555q98 0 169 -62l89 88l27 -28l-89 -88q51 -63 51 -156q0 -106 -67 -175q-74 -71 -180 -71q-90 0 -158 54l-77 -76l-27 27l76 75q-61 67 -61 166q0 106 69 174q74 72 178 72zM278 309q0 -63 33 -106l235 232q-45 45 -110 46q-65 -1 -111 -49q-47 -47 -47 -123z
M337 175q42 -37 99 -38q67 1 113 49q47 47 47 123q0 56 -25 96z" />
    <glyph glyph-name="thorn" unicode="&#xfe;" 
d="M440 481h-1q-61 0 -123 -64v-209q55 -70 126 -71q66 1 101 48q34 48 34 122q0 76 -35 125t-102 49zM308 130v-130h-80v746h88v-241q68 50 143 50q90 0 148 -64t58 -184q0 -118 -58 -181t-148 -63q-87 0 -151 67z" />
    <glyph glyph-name="dcroat" unicode="&#x111;" 
d="M417 680h139v91h88v-91h110v-44h-110v-560h-80v54q-64 -67 -151 -67q-90 0 -148 63t-58 181q0 120 58 184t148 64q75 0 143 -50v131h-139v44zM432 481q-67 0 -102 -49t-35 -125q0 -74 34 -122q35 -47 101 -48q71 1 126 71v209q-62 64 -123 64h-1z" />
    <glyph glyph-name="Hbar" unicode="&#x126;" 
d="M103 641h80v90h88v-90h332v90h89v-90h90v-64h-90v-501h-89v298h-332v-298h-88v501h-80v64zM603 577h-332v-130h332v130z" />
    <glyph glyph-name="hbar" unicode="&#x127;" 
d="M130 680h98v74h88v-74h151v-44h-151v-160q59 79 150 79q70 0 123.5 -45t53.5 -149v-285h-88v299q0 106 -112 106q-82 0 -127 -104v-301h-88v560h-98v44z" />
    <glyph glyph-name="dotlessi" unicode="&#x131;" 
d="M392 76v466h87v-466h-87zM389 648v86h94v-86h-94z" />
    <glyph glyph-name="IJ" unicode="&#x132;" 
d="M201 76v655h88v-655h-88zM583 731h88v-473q0 -110 -45.5 -149t-134.5 -45q-52 -3 -94 3v72q40 -6 89 -2q34 3 65.5 24.5t31.5 70.5v499z" />
    <glyph glyph-name="ij" unicode="&#x133;" 
d="M272 76v466h87v-466h-87zM269 648v86h94v-86h-94zM513 648v86h95v-86h-95zM516 29v513h89v-525q-1 -74 -38 -110q-39 -37 -124 -37q-21 0 -39 3.5t-32 7.5v69q23 -5 36 -6.5t25 -1.5q43 0 64 17q19 18 19 70z" />
    <glyph glyph-name="kgreenlandic" unicode="&#x138;" 
d="M431 441q79 75 130 94q36 13 92 3v-48q-46 2 -74 -18q-35 -24 -61 -51l-111 -108l222 -237h-101l-213 221v-221h-87v466h87v-211z" />
    <glyph glyph-name="Ldot" unicode="&#x13f;" 
d="M306 731v-581h348v-74h-436v655h88zM644 434q0 -24 -18.5 -42.5t-44.5 -18.5t-44.5 18.5t-18.5 42.5t18.5 42.5t44.5 18.5t44.5 -18.5t18.5 -42.5z" />
    <glyph glyph-name="ldot" unicode="&#x140;" 
d="M392 76v678h87v-678h-87zM744 434q0 -24 -18.5 -42.5t-44.5 -18.5t-44.5 18.5t-18.5 42.5t18.5 42.5t44.5 18.5t44.5 -18.5t18.5 -42.5z" />
    <glyph glyph-name="Lslash" unicode="&#x141;" 
d="M306 731v-292l140 45l12 -42l-152 -49v-243h348v-74h-436v289l-100 -32l-11 42l111 36v320h88z" />
    <glyph glyph-name="lslash" unicode="&#x142;" 
d="M392 76v314l-114 -37l-11 42l125 40v319h87v-291l127 41l12 -42l-139 -45v-341h-87z" />
    <glyph glyph-name="napostrophe" unicode="&#x149;" 
d="M49 673q0 21 -14 30.5t-24 9.5v60q-1 0 6 0q49 0 75.5 -20.5t26.5 -57.5q0 -21 -9 -44t-22 -41h-61l11 21.5t11 41.5zM228 361q0 97 54 145t154 48q99 0 153 -50.5t54 -142.5v-285h-88v295q0 109 -119 109q-120 0 -120 -109v-295h-88v285z" />
    <glyph glyph-name="Eng" unicode="&#x14a;" 
d="M733 252q0 -117 -65.5 -190t-144.5 -73v64q50 0 88 54t38 134q0 87 -43.5 144t-117.5 57q-55 0 -101.5 -58t-46.5 -124v-184h-75v626h75v-288q61 105 164 105t166 -74.5t63 -192.5z" />
    <glyph glyph-name="eng" unicode="&#x14b;" 
d="M643 46q-2 -75 -33 -109q-33 -38 -97 -38h-55v71h31q66 0 66 83v317q0 110 -119 110q-120 0 -120 -109v-295h-88v285q0 97 54 145t154 48q99 0 153 -50.5t54 -141.5v-316z" />
    <glyph glyph-name="OE" unicode="&#x152;" 
d="M521 150h309v-74h-450l14 7q-30 -7 -63 -7q-120 0 -193 91.5t-73 235.5t73 236t193 92h480v-74h-289v-15q3 -3 6 -7q33 -45 52 -101q12 -39 16 -87h190v-73h-189q-3 -56 -18 -101q-19 -56 -52 -101q-3 -4 -6 -7v-15zM147 403q0 -119 54 -186.5t130 -67.5t130.5 67.5
t54.5 186.5t-54.5 186.5t-130.5 67.5t-130 -67.5t-54 -186.5z" />
    <glyph glyph-name="oe" unicode="&#x153;" 
d="M278 555q91 0 148 -69q9 -11 16 -23q9 14 19 26q53 66 136 66q86 0 138 -67t52 -172v-44h-303q10 -66 44 -101q41 -42 98 -41q78 0 137 32v-67q-58 -32 -137 -32q-101 0 -160 66q-12 13 -22 29q-8 -13 -18 -25q-57 -70 -148 -70q-86 0 -142.5 69.5t-56.5 176.5
t56.5 176.5t142.5 69.5zM157 309q0 -75 34 -123.5t90 -48.5q55 0 91 49q35 48 35 123t-35 124q-36 48 -92 48q-55 0 -89 -48.5t-34 -123.5zM486 334h223q-7 71 -29 105q-32 49 -83 49q-53 0 -82 -49q-22 -34 -29 -105z" />
    <glyph glyph-name="Tbar" unicode="&#x166;" 
d="M480 76h-87v340h-165v54h165v187h-220v74h526v-74h-219v-187h164v-54h-164v-340z" />
    <glyph glyph-name="tbar" unicode="&#x167;" 
d="M230 382h110v94h-91v66h91v159h86v-159h135v-66h-135v-94h141v-48h-141v-133q0 -17 4.5 -26.5t13.5 -19.5q10 -10 25 -15t32 -5h69v-71h-84q-35 0 -63.5 9.5t-47.5 27.5q-18 16 -26.5 39.5t-8.5 53.5v140h-110v48z" />
    <glyph glyph-name="caron" unicode="&#x2c7;" 
d="M436 627l-221 121l37 51l184 -104l179 105l35 -49z" />
    <glyph glyph-name="uni02D0" unicode="&#x2d0;" 
d="M436 509l-65 118h126zM371 193l65 116l61 -116h-126z" />
    <glyph glyph-name="breve" unicode="&#x2d8;" 
d="M436 744q58 0 80 58h85q-39 -122 -165 -122q-127 0 -165 122h85q22 -58 80 -58z" />
    <glyph glyph-name="dotaccent" unicode="&#x2d9;" 
d="M505 734q0 -28 -20.5 -48.5t-48.5 -20.5t-48.5 20.5t-20.5 48.5t20.5 48.5t48.5 20.5t48.5 -20.5t20.5 -48.5z" />
    <glyph glyph-name="ring" unicode="&#x2da;" 
d="M544 718q0 -43 -31 -74.5t-77 -31.5q-45 0 -76.5 31.5t-31.5 74.5q0 44 31.5 75t76.5 31q46 0 77 -31t31 -75zM500 718q0 29 -19 48.5t-45 19.5t-45 -19.5t-19 -48.5q0 -27 19 -47.5t45 -20.5t45 20.5t19 47.5z" />
    <glyph glyph-name="ogonek" unicode="&#x2db;" 
d="M466 -11q0 -26 19 -40.5t42 -15.5q22 -1 45.5 8t32.5 18l12 -10q-12 -18 -52 -37.5t-79 -18.5q-42 1 -67.5 24.5t-23.5 52.5q0 34 32 68h53q-14 -24 -14 -49z" />
    <glyph glyph-name="hungarumlaut" unicode="&#x2dd;" 
d="M300 552h-51l94 250h109zM506 552h-51l94 250h109z" />
    <glyph glyph-name="Alpha" unicode="&#x391;" 
d="M480 744l263 -668h-82l-79 199h-292l-79 -199h-82l263 668h88zM436 648l-118 -299h236z" />
    <glyph glyph-name="Beta" unicode="&#x392;" 
d="M228 731h165q75 0 127 -11q49 -9 90 -47q23 -24 35 -54.5t12 -66.5q0 -80 -94 -134q121 -47 121 -156q0 -37 -14.5 -70.5t-40.5 -59.5q-26 -25 -69 -40.5t-166 -15.5h-166v655zM316 374v-224h130q51 0 75.5 8t37.5 19q39 33 39 85t-39 85q-13 11 -37.5 19t-75.5 8h-130z
M399 447q59 0 95 6q75 24 75 99q0 76 -75 100q-36 5 -95 5h-83v-210h83z" />
    <glyph glyph-name="Gamma" unicode="&#x393;" 
d="M228 76v655h416v-74h-328v-581h-88z" />
    <glyph glyph-name="uni0394" unicode="&#x394;" 
d="M437 651l-174 -501h345zM164 76v83l231 585h87l228 -581v-87h-546z" />
    <glyph glyph-name="Epsilon" unicode="&#x395;" 
d="M317 150h334v-74h-422v655h403v-74h-315v-210h280v-73h-280v-224z" />
    <glyph glyph-name="Zeta" unicode="&#x396;" 
d="M679 731v-75l-375 -506h380v-74h-497v49l399 532h-390v74h483z" />
    <glyph glyph-name="Eta" unicode="&#x397;" 
d="M271 447h332v284h89v-655h-89v298h-332v-298h-88v655h88v-284z" />
    <glyph glyph-name="Theta" unicode="&#x398;" 
d="M300 442h273v-76h-273v76zM657 403q0 67 -18 114.5t-46 81.5q-31 33 -71 50t-86 17t-86 -17.5t-70 -49.5q-30 -34 -47 -82t-17 -114t17.5 -114t46.5 -81q30 -33 70.5 -49.5t85.5 -16.5q47 0 86.5 16.5t70.5 49.5q28 33 46 80.5t18 114.5zM745 403q0 -73 -21.5 -132.5
t-60.5 -104.5q-40 -46 -97.5 -71.5t-129.5 -25.5t-130 25.5t-97 71.5q-41 45 -61 104t-20 133q0 75 21 134t61 104q39 46 97 71.5t129 25.5q73 0 130.5 -25.5t97.5 -71.5q40 -45 60.5 -104t20.5 -134z" />
    <glyph glyph-name="Iota" unicode="&#x399;" 
d="M393 76v655h88v-655h-88z" />
    <glyph glyph-name="Kappa" unicode="&#x39a;" 
d="M229 76v655h88v-309l288 309h104l-310 -327l329 -328h-109l-302 301v-301h-88z" />
    <glyph glyph-name="Lambda" unicode="&#x39b;" 
d="M150 76l247 655h78l247 -655h-86l-200 546l-202 -546h-84z" />
    <glyph glyph-name="Mu" unicode="&#x39c;" 
d="M465 76h-59l-220 555v-555h-82v655h115l217 -526l216 526h115v-655h-83v556z" />
    <glyph glyph-name="Nu" unicode="&#x39d;" 
d="M249 731l377 -510v510h88v-655h-74l-376 506v-506h-88v655h73z" />
    <glyph glyph-name="Xi" unicode="&#x39e;" 
d="M228 440h416v-73h-416v73zM188 150h496v-74h-496v74zM188 731h496v-74h-496v74z" />
    <glyph glyph-name="Omicron" unicode="&#x39f;" 
d="M657 403q0 67 -18 114.5t-46 81.5q-31 33 -71 50t-86 17t-86 -17.5t-70 -49.5q-30 -34 -47 -82t-17 -114t17.5 -114t46.5 -81q30 -33 70.5 -49.5t85.5 -16.5q47 0 86.5 16.5t70.5 49.5q28 33 46 80.5t18 114.5zM745 403q0 -73 -21.5 -132.5t-60.5 -104.5
q-40 -46 -97.5 -71.5t-129.5 -25.5t-130 25.5t-97 71.5q-41 45 -61 104t-20 133q0 75 21 134t61 104q39 46 97 71.5t129 25.5q73 0 130.5 -25.5t97.5 -71.5q40 -45 60.5 -104t20.5 -134z" />
    <glyph glyph-name="Pi" unicode="&#x3a0;" 
d="M700 76h-88v581h-335v-581h-88v655h511v-655z" />
    <glyph glyph-name="Rho" unicode="&#x3a1;" 
d="M228 731h200q104 0 155 -24q35 -15 61 -43q50 -50 50 -136t-50 -136q-26 -28 -61 -43q-51 -23 -163 -23h-104v-250h-88v655zM316 400h136q73 0 114 36q39 36 39 92q0 57 -39 93q-41 36 -114 36h-136v-257z" />
    <glyph glyph-name="Sigma" unicode="&#x3a3;" 
d="M494 405l-211 -255h370v-74h-490v60l230 268l-207 266v61h464v-74h-338z" />
    <glyph glyph-name="Tau" unicode="&#x3a4;" 
d="M480 76h-87v581h-220v74h526v-74h-219v-581z" />
    <glyph glyph-name="Upsilon" unicode="&#x3a5;" 
d="M391 363l-239 368h96l188 -299l185 299h98l-239 -369v-286h-89v287z" />
    <glyph glyph-name="Phi" unicode="&#x3a6;" 
d="M393 26v112q-110 11 -182 77q-86 78 -86 190t86 191q72 65 182 76v99h88v-99q110 -11 182 -76q86 -79 86 -191t-86 -190q-72 -66 -182 -77v-112h-88zM393 213v384q-64 -10 -114 -50q-66 -54 -66 -142t66 -141q50 -41 114 -51zM481 597v-384q64 10 114 51q66 53 66 141
t-66 142q-50 40 -114 50z" />
    <glyph glyph-name="Chi" unicode="&#x3a7;" 
d="M437 344l-190 -268h-100l244 337l-230 318h100l175 -249l177 249h99l-230 -318l244 -337h-100z" />
    <glyph glyph-name="Psi" unicode="&#x3a8;" 
d="M393 731h88v-329q71 17 117 92q53 86 53 237h88q0 -188 -77 -293q-71 -96 -181 -112v-250h-88v250q-110 16 -181 112q-77 105 -77 293h88q0 -151 53 -237q46 -75 117 -92v329z" />
    <glyph glyph-name="uni03A9" unicode="&#x3a9;" 
d="M369 76h-242v74h169q-168 107 -168 287q0 129 87 215t221 86t221 -86t87 -215q0 -179 -168 -287h169v-74h-242v101q153 110 153 260q0 109 -62.5 169t-157.5 60t-157.5 -60t-62.5 -169q0 -150 153 -260v-101z" />
    <glyph glyph-name="alpha" unicode="&#x3b1;" 
d="M503 315q-7 55 -33.5 111t-78.5 56t-85.5 -53t-33.5 -127q0 -70 33 -118t81 -48q45 0 74.5 49.5t42.5 129.5zM184 312q0 107 52.5 175t141.5 68q104 0 159 -167l46 142h78l-93 -236q7 -67 34 -109q34 -54 89 -37v-69q-69 -19 -108 24q-34 27 -47 122q-62 -162 -169 -162
q-78 0 -130.5 64t-52.5 171v14z" />
    <glyph glyph-name="beta" unicode="&#x3b2;" 
d="M624 567q0 -100 -97 -146q134 -41 134 -164q0 -83 -52.5 -137t-147.5 -54q-70 0 -144 46v-222h-86v621q0 150 80 196q24 14 53 21t61 7q87 0 143 -45t56 -123zM402 446h29q56 0 79 42q20 36 20 80q0 50 -32.5 78t-71.5 28q-106 -2 -106 -127v-370q29 -29 61.5 -38.5
t57.5 -9.5q61 0 95 34t33 91q0 132 -135 132h-30v60z" />
    <glyph glyph-name="gamma" unicode="&#x3b3;" 
d="M466 76h-105l30 191l10 62q0 64 -27 109t-67 45q-47 0 -68 -12l10 68q37 16 77 16q112 0 142 -165q41 106 90 136.5t109 28.5q52 -2 95 -22l-15 -70q-32 20 -76 20q-112 0 -163 -152q-6 -21 -10 -46z" />
    <glyph glyph-name="delta" unicode="&#x3b4;" 
d="M566 270q0 39 -20.5 72t-75.5 93q-92 -45 -126 -79.5t-34 -91.5q0 -53 36.5 -91.5t88.5 -38.5q131 0 131 136zM400 630q0 -19 14.5 -36t35.5 -35q20 -17 45.5 -37t51.5 -43q68 -65 93.5 -112.5t25.5 -96.5q0 -47 -17 -82.5t-47 -64.5q-31 -28 -74 -44t-97 -16
q-106 0 -163 59t-57 140q0 60 43 117.5t156 104.5q-106 80 -106 150q0 45 33.5 76t111.5 31q105 0 205 -39v-72q-90 42 -197 42q-29 0 -43 -12.5t-14 -29.5z" />
    <glyph glyph-name="epsilon" unicode="&#x3b5;" 
d="M539 286h-105q-98 0 -98 -77q0 -33 27 -53t78 -20q50 0 99 11t75 24v-72q-89 -37 -185 -37q-51 0 -88 10t-61 29q-23 17 -34 43.5t-11 54.5q0 78 97 125q-81 34 -81 104q0 27 12.5 50.5t37.5 40.5t61.5 27.5t81.5 10.5q38 0 80.5 -6.5t73.5 -14.5v-71q-34 8 -72.5 13
t-69.5 5q-48 0 -76.5 -17t-28.5 -49q0 -39 26 -51.5t68 -12.5h93v-67z" />
    <glyph glyph-name="zeta" unicode="&#x3b6;" 
d="M605 686q-48 -30 -96.5 -71t-84.5 -87q-38 -46 -60.5 -98t-22.5 -103q0 -33 12 -57t32 -37q17 -14 40.5 -22t48.5 -15q27 -7 52 -14.5t45 -20.5q20 -12 31 -31t11 -49q0 -29 -14.5 -68.5t-37.5 -76.5h-92q19 28 33 62t14 57q0 24 -13.5 37t-34.5 20q-19 7 -42.5 13
t-51.5 14q-59 15 -93 59t-34 117q0 51 17 98.5t49 90.5q30 43 90.5 96t94.5 73l-204 -20v71q54 0 151.5 4.5t159.5 14.5v-57z" />
    <glyph glyph-name="eta" unicode="&#x3b7;" 
d="M643 -114h-88v485q0 109 -119 109q-120 0 -120 -109v-295h-88v283q0 99 53.5 147t152.5 48q98 0 153.5 -50.5t55.5 -143.5v-474z" />
    <glyph glyph-name="theta" unicode="&#x3b8;" 
d="M291 367q5 -97 38 -155q38 -69 108 -69q69 0 108 69q33 58 38 155h-292zM583 441q-5 96 -38 154q-39 68 -108 68q-70 0 -108 -68q-33 -58 -38 -154h292zM202 403q0 142 62.5 238t172.5 96t172.5 -96t62.5 -238t-62.5 -238t-172.5 -96t-172.5 96t-62.5 238z" />
    <glyph glyph-name="iota" unicode="&#x3b9;" 
d="M426 220q0 -51 19 -69q21 -17 64 -17q12 0 25 1.5t36 6.5v-69q-14 -4 -32 -7.5t-39 -3.5q-85 0 -124 37q-37 36 -38 110v333h89v-322z" />
    <glyph glyph-name="kappa" unicode="&#x3ba;" 
d="M431 441q79 75 130 94q36 13 92 3v-48q-46 2 -74 -18q-35 -24 -61 -51l-111 -108l222 -237h-101l-213 226v-226h-87v466h87v-216z" />
    <glyph glyph-name="lambda" unicode="&#x3bb;" 
d="M338 741q37 0 64.5 -11.5t48.5 -36.5q22 -25 41 -64.5t40 -94.5l179 -458h-95l-119 321l-150 -321h-96l195 417q-31 93 -50.5 122.5t-38.5 42.5q-20 11 -46 11q-12 0 -25 -2t-12 -2v67q8 3 26 6t38 3z" />
    <glyph glyph-name="uni03BC" unicode="&#x3bc;" 
d="M229 542h87v-295q0 -109 120 -109q118 0 118 109v295h88v-285q0 -92 -54.5 -142.5t-153.5 -50.5q-71 0 -118 24v-203h-87v657z" />
    <glyph glyph-name="nu" unicode="&#x3bd;" 
d="M453 76h-62l-160 466h83l118 -385q152 186 152 385h73q0 -223 -204 -466z" />
    <glyph glyph-name="xi" unicode="&#x3be;" 
d="M591 394h-16q-44 0 -88.5 -8t-76.5 -24q-33 -15 -52.5 -38.5t-19.5 -58.5q0 -26 14.5 -42.5t34.5 -23.5q18 -9 46 -15t56 -11q27 -5 54 -12t47 -20q19 -12 31 -31t12 -49q0 -70 -56 -139h-95q10 14 29.5 52.5t19.5 68.5q0 24 -14.5 37.5t-35.5 21.5q-20 6 -44 10.5
t-52 9.5q-72 13 -109 42t-37 86q0 102 171 171q-129 20 -129 93q0 97 205 168l-207 -16v61q44 0 143.5 2t198.5 7v-55q-46 -10 -91.5 -25.5t-77.5 -31.5q-33 -18 -52 -40.5t-19 -51.5q0 -23 9.5 -38.5t29.5 -25.5q19 -9 49 -12t68 -3h54v-59z" />
    <glyph glyph-name="omicron" unicode="&#x3bf;" 
d="M436 555q106 0 176.5 -70t70.5 -176t-70.5 -176t-176.5 -70q-104 0 -175.5 70t-71.5 176t71.5 176t175.5 70zM278 309q0 -76 46.5 -123.5t111.5 -48.5q67 1 113.5 48.5t46.5 123.5t-46.5 123.5t-113.5 48.5q-65 -1 -111.5 -48.5t-46.5 -123.5z" />
    <glyph glyph-name="pi" unicode="&#x3c0;" 
d="M546 468h-219v-392h-87v392h-110v74h613v-74h-110v-302q0 -14 13 -23q12 -10 33 -10q18 0 31 2v-69q-9 -1 -28 -3.5t-31 -1.5q-103 9 -105 98v309z" />
    <glyph glyph-name="rho" unicode="&#x3c1;" 
d="M440 137q67 0 102 48t35 122q0 76 -34 124q-35 47 -101 50h-2h3h-1q-71 -3 -126 -73v-209q62 -62 123 -62h1zM459 555q90 0 148 -64t58 -184q0 -118 -58 -181t-148 -63q-75 0 -143 58v-239h-88v660h80v-56q64 69 151 69z" />
    <glyph glyph-name="sigma" unicode="&#x3c3;" 
d="M436 555q40 0 75 -10q45 35 152 35h76v-68h-52q-59 0 -91 -11q10 -8 20 -18q67 -68 67 -174t-67 -175q-74 -71 -180 -71q-104 0 -178 71q-69 69 -69 175t69 174q74 72 178 72zM278 309q0 -76 47 -123q46 -48 111 -49q67 1 113 49q47 47 47 123t-47 123q-46 48 -113 49
q-65 -1 -111 -49q-47 -47 -47 -123z" />
    <glyph glyph-name="tau" unicode="&#x3c4;" 
d="M392 468h-164v74h416v-74h-165v-294q0 -14 13 -23q12 -10 33 -10q18 0 31 2v-69q-9 -1 -28 -3t-31 -2q-104 0 -105 100v299z" />
    <glyph glyph-name="upsilon" unicode="&#x3c5;" 
d="M263 430q0 46 -38 46q-16 0 -17 -1v65q18 6 52 6q88 0 88 -95l-7 -166q0 -63 27 -107t86 -44q63 0 95.5 53t32.5 134q0 120 -46 221h84q50 -108 50 -222q0 -122 -58.5 -189.5t-158.5 -67.5q-94 0 -147 51.5t-53 161.5z" />
    <glyph glyph-name="phi" unicode="&#x3c6;" 
d="M480 731v-179q81 -12 140 -68q74 -71 74 -175t-74 -175q-59 -56 -140 -68v-158h-88v158q-81 12 -140 68q-74 71 -74 175t74 175q59 57 141 68v179h87zM480 476v-334q48 11 80 48q45 52 45 119t-45 120q-32 36 -80 47zM392 142l1 335q-49 -11 -81 -48q-45 -53 -45 -120
t45 -119q32 -37 80 -48z" />
    <glyph glyph-name="chi" unicode="&#x3c7;" 
d="M437 374l121 168h95l-166 -231l174 -235h-95l-130 175l-127 -175h-95l175 237l-168 229h95z" />
    <glyph glyph-name="psi" unicode="&#x3c8;" 
d="M393 731h88v-577q169 37 170 389h88q-1 -433 -258 -465v-185h-88v185q-259 31 -258 465h88q-1 -352 170 -390v578z" />
    <glyph glyph-name="omega" unicode="&#x3c9;" 
d="M436 167q-41 -99 -151 -99q-85 0 -132 61q-43 57 -43 168q0 128 67 252h89q-66 -114 -66 -250q0 -85 30.5 -120.5t65.5 -35.5q96 0 95 173v93h90v-93q-1 -173 95 -173q35 0 65.5 35.5t30.5 120.5q0 136 -66 250h89q67 -124 67 -252q0 -111 -43 -168q-47 -61 -133 -61
q-111 0 -150 99z" />
    <glyph glyph-name="uni0401" unicode="&#x401;" 
d="M306 814h69v-69h-69v69zM507 814h69v-69h-69v69zM317 98h334v-74h-422v655h403v-74h-315v-210h280v-73h-280v-224z" />
    <glyph glyph-name="uni0410" unicode="&#x410;" 
d="M227 76h-95l263 668h87l262 -668h-96l-78 199h-264zM437 651l-103 -302h208z" />
    <glyph glyph-name="uni0411" unicode="&#x411;" 
d="M316 374v-224h130q51 0 75.5 8t37.5 19q39 33 39 85t-39 85q-13 11 -37.5 19t-75.5 8h-130zM384 448q133 0 176 -15.5t69 -40.5q26 -26 40.5 -59.5t14.5 -70.5t-14.5 -70.5t-40.5 -59.5q-26 -25 -69 -40.5t-166 -15.5h-166v655h416v-74h-328v-209h68z" />
    <glyph glyph-name="uni0412" unicode="&#x412;" 
d="M228 731h165q75 0 127 -11q49 -9 90 -47q23 -24 35 -54.5t12 -66.5q0 -80 -94 -134q121 -47 121 -156q0 -37 -14.5 -70.5t-40.5 -59.5q-26 -25 -69 -40.5t-166 -15.5h-166v655zM316 374v-224h130q51 0 75.5 8t37.5 19q39 33 39 85t-39 85q-13 11 -37.5 19t-75.5 8h-130z
M399 447q59 0 95 6q75 24 75 99q0 76 -75 100q-36 5 -95 5h-83v-210h83z" />
    <glyph glyph-name="uni0413" unicode="&#x413;" 
d="M228 76v655h422v-74h-334v-581h-88z" />
    <glyph glyph-name="uni0414" unicode="&#x414;" 
d="M166 150q149 270 149 581h329v-581h77v-265h-88v191h-464v-191h-88v265h85zM389 655q0 -225 -124 -489v-16h291v505h-167z" />
    <glyph glyph-name="uni0415" unicode="&#x415;" 
d="M317 150h334v-74h-422v655h403v-74h-315v-210h280v-73h-280v-224z" />
    <glyph glyph-name="uni0416" unicode="&#x416;" 
d="M392 419v312h88v-312l220 312h103l-232 -324l251 -331h-103l-239 304v-304h-88v304l-239 -304h-103l251 331l-232 324h103z" />
    <glyph glyph-name="uni0417" unicode="&#x417;" 
d="M236 703q82 39 183 39q107 0 167 -51q55 -45 55 -131q0 -92 -89 -147q108 -39 108 -142q0 -38 -15.5 -78t-46.5 -66q-32 -28 -81.5 -43.5t-116.5 -15.5q-55 0 -101.5 11.5t-75.5 27.5v71q15 -11 62.5 -22t107.5 -11q103 0 141 40t38 90q0 19 -8.5 37.5t-23.5 33.5
q-16 13 -42.5 21t-58.5 8h-100v76h94q120 0 120 103q0 48 -36 79.5t-113 31.5q-46 0 -98.5 -11t-69.5 -22v71z" />
    <glyph glyph-name="uni0418" unicode="&#x418;" 
d="M638 731h76v-655h-88v513l-373 -513h-77v655h88v-515z" />
    <glyph glyph-name="uni0419" unicode="&#x419;" 
d="M638 621h76v-655h-88v513l-373 -513h-77v655h88v-515zM436 744q58 0 80 58h85q-34 -114 -165 -114t-165 114h85q22 -58 80 -58z" />
    <glyph glyph-name="uni041A" unicode="&#x41a;" 
d="M229 76v655h88v-309l288 309h104l-310 -327l329 -328h-109l-302 301v-301h-88z" />
    <glyph glyph-name="uni041B" unicode="&#x41b;" 
d="M450 657q-18 -126 -35 -226t-35 -161q-19 -61 -39.5 -100t-44.5 -61t-51 -30.5t-61 -8.5q-26 0 -40 4v82q7 -2 25 -2q21 0 37.5 7t32.5 25q15 18 31 53.5t34 98.5q16 62 32.5 167t32.5 226h330v-655h-88v581h-161z" />
    <glyph glyph-name="uni041C" unicode="&#x41c;" 
d="M465 76h-59l-220 555v-555h-82v655h115l217 -526l216 526h115v-655h-83v556z" />
    <glyph glyph-name="uni041D" unicode="&#x41d;" 
d="M270 447h332v284h89v-655h-89v298h-332v-298h-88v655h88v-284z" />
    <glyph glyph-name="uni041E" unicode="&#x41e;" 
d="M657 403q0 67 -18 114.5t-46 81.5q-31 33 -71 50t-86 17t-86 -17.5t-70 -49.5q-30 -34 -47 -82t-17 -114t17.5 -114t46.5 -81q30 -33 70.5 -49.5t85.5 -16.5q47 0 86.5 16.5t70.5 49.5q28 33 46 80.5t18 114.5zM745 403q0 -73 -21.5 -132.5t-60.5 -104.5
q-40 -46 -97.5 -71.5t-129.5 -25.5t-130 25.5t-97 71.5q-41 45 -61 104t-20 133q0 75 21 134t61 104q39 46 97 71.5t129 25.5q73 0 130.5 -25.5t97.5 -71.5q40 -45 60.5 -104t20.5 -134z" />
    <glyph glyph-name="uni041F" unicode="&#x41f;" 
d="M700 76h-88v581h-335v-581h-88v655h511v-655z" />
    <glyph glyph-name="uni0420" unicode="&#x420;" 
d="M228 731h200q104 0 155 -24q35 -15 61 -43q50 -50 50 -136t-50 -136q-26 -28 -61 -43q-51 -23 -163 -23h-104v-250h-88v655zM316 400h136q73 0 114 36q39 36 39 92q0 57 -39 93q-41 36 -114 36h-136v-257z" />
    <glyph glyph-name="uni0421" unicode="&#x421;" 
d="M513 671q-54 0 -101.5 -17.5t-80.5 -50.5q-35 -34 -55 -85t-20 -120t18.5 -118.5t53.5 -81.5q32 -32 80.5 -47t107.5 -15q79 0 143 24v-73q-31 -12 -70 -18t-80 -6q-83 0 -146.5 23t-107.5 66q-44 42 -65.5 104t-21.5 139q0 75 23.5 139.5t67.5 110.5q43 46 107 72.5
t143 26.5q75 0 144 -26v-71q-37 11 -70.5 17.5t-69.5 6.5z" />
    <glyph glyph-name="uni0422" unicode="&#x422;" 
d="M480 76h-87v581h-220v74h526v-74h-219v-581z" />
    <glyph glyph-name="uni0423" unicode="&#x423;" 
d="M391 363l-239 368h96l188 -299l185 299h98l-239 -369v-286h-89v287z" />
    <glyph glyph-name="uni0424" unicode="&#x424;" 
d="M393 76v62q-110 11 -182 77q-86 78 -86 190t86 191q72 65 182 76v59h88v-59q110 -11 182 -76q86 -79 86 -191t-86 -190q-72 -66 -182 -77v-62h-88zM393 213v384q-64 -10 -114 -50q-66 -54 -66 -142t66 -141q50 -41 114 -51zM481 597v-384q64 10 114 51q66 53 66 141
t-66 142q-50 40 -114 50z" />
    <glyph glyph-name="uni0425" unicode="&#x425;" 
d="M437 344l-190 -268h-100l244 337l-230 318h100l175 -249l177 249h99l-230 -318l244 -337h-100z" />
    <glyph glyph-name="uni0426" unicode="&#x426;" 
d="M189 77v655h88v-581h325v581h88v-581h92v-264h-88v190h-505z" />
    <glyph glyph-name="uni0427" unicode="&#x427;" 
d="M644 51h-88v280q-59 -79 -150 -79q-70 0 -123.5 45t-53.5 149v285h88v-299q0 -106 112 -106q82 0 127 104v301h88v-680z" />
    <glyph glyph-name="uni0428" unicode="&#x428;" 
d="M762 76h-653v655h89v-581h194v581h88v-581h193v581h89v-655z" />
    <glyph glyph-name="uni0429" unicode="&#x429;" 
d="M724 76h-615v655h89v-581h194v581h88v-581h193v581h89v-580h50v-264h-88v189z" />
    <glyph glyph-name="uni042A" unicode="&#x42a;" 
d="M440 481h-1q-61 0 -123 -64v-209q55 -70 126 -71q66 1 101 48q34 48 34 122q0 76 -35 125t-102 49zM316 731v-226q68 50 143 50q90 0 148 -64t58 -184q0 -118 -58 -181t-148 -63q-87 0 -151 67v-54h-80v581h-117v74h205z" />
    <glyph glyph-name="uni042B" unicode="&#x42b;" 
d="M649 76v655h89v-655h-89zM333 481h-1q-61 0 -123 -64v-209q55 -70 126 -71h1h-3h2q66 1 101 48q34 48 34 122q0 76 -35 125t-102 49zM352 63q-87 0 -151 67v-54h-80v655h88v-226q68 50 143 50q90 0 148 -64t58 -184q0 -118 -58 -181t-148 -63z" />
    <glyph glyph-name="uni042C" unicode="&#x42c;" 
d="M440 481h-1q-61 0 -123 -64v-209q55 -70 126 -71h1h-3h2q66 1 101 48q34 48 34 122q0 76 -35 125t-102 49zM459 63q-87 0 -151 67v-54h-80v670h88v-241q68 50 143 50q90 0 148 -64t58 -184q0 -118 -58 -181t-148 -63z" />
    <glyph glyph-name="uni042D" unicode="&#x42d;" 
d="M312 655q-69 0 -120 -18v76q55 19 131 19q79 0 139 -24t101 -66q42 -43 64.5 -102.5t22.5 -131.5q0 -75 -20.5 -135.5t-62.5 -103.5q-41 -43 -105 -67t-148 -24q-38 0 -72.5 6t-57.5 12v76q16 -7 53.5 -12t73.5 -5q56 0 100 12.5t76 38.5q31 26 49 65t23 104h-331v76h328
q-10 61 -30.5 97t-51.5 60q-30 23 -71 35t-91 12z" />
    <glyph glyph-name="uni042E" unicode="&#x42e;" 
d="M730 403q0 66 -16 113.5t-42 81.5q-27 33 -63.5 50.5t-72.5 17.5q-37 0 -73 -17.5t-63 -50.5q-28 -34 -42 -81.5t-14 -113.5t14.5 -114t41.5 -80q27 -33 63.5 -50t72.5 -17q37 0 73 17t63 50q26 32 42 80t16 114zM71 731h89v-290h95q4 52 19 96q19 59 54 105
q36 45 88 70.5t120 25.5q69 0 120.5 -25.5t88.5 -70.5q35 -46 54.5 -105t19.5 -134q0 -74 -20.5 -133t-54.5 -105q-37 -45 -88.5 -70.5t-119.5 -25.5q-69 0 -121 25.5t-88 70.5q-36 46 -54 105q-14 44 -18 97h-95v-291h-89v655z" />
    <glyph glyph-name="uni042F" unicode="&#x42f;" 
d="M644 76h-88v284h-74l-212 -284h-94l210 288q-77 10 -120 50q-59 54 -59 129v1q0 77 58.5 132t180.5 55h198v-655zM556 657h-122q-71 0 -105 -33t-34 -80q0 -45 34 -77.5t105 -32.5h122v223z" />
    <glyph glyph-name="uni0430" unicode="&#x430;" 
d="M548 283q-42 11 -71.5 15t-58.5 3q-42 -2 -65 -19q-32 -23 -33 -66q0 -42 23.5 -62.5t58.5 -19.5q83 5 146 69v80zM556 132q-83 -69 -167 -69q-74 0 -115.5 44t-41.5 109q0 67 51 111q48 42 126 42q72 2 139 -20v24q0 105 -126 110q-72 3 -132 -11v70q65 15 141 13
q89 -2 147 -48t58 -142v-289h-80v56z" />
    <glyph glyph-name="uni0431" unicode="&#x431;" 
d="M444 138q58 0 90 35q34 38 34 96q0 63 -34 94t-95 31q-31 0 -62 -8.5t-70 -30.5q0 -105 32.5 -161t104.5 -56zM501 750q78 0 143 14v-78q-63 -15 -139 -17q-150 -3 -198 -242q76 40 147 40q87 0 147 -53q56 -50 56 -139q0 -101 -58 -156q-61 -56 -157 -56q-105 0 -165 78
q-62 78 -62 216q0 163 80 282q76 103 206 111z" />
    <glyph glyph-name="uni0432" unicode="&#x432;" 
d="M247 542h155q108 0 151 -37.5t43 -87.5q0 -54 -75 -99q94 -34 94 -112q0 -55 -45.5 -92.5t-168.5 -37.5h-154v466zM331 284v-141h113q27 0 42 5t23 11q23 21 23 54t-22 53q-8 9 -23.5 13.5t-42.5 4.5h-113zM413 344q33 0 55 4q44 14 44 62q0 47 -44 61q-21 4 -54 4h-83
v-131h82z" />
    <glyph glyph-name="uni0433" unicode="&#x433;" 
d="M584 468h-208v-392h-88v466h296v-74z" />
    <glyph glyph-name="uni0434" unicode="&#x434;" 
d="M256 150q72 150 72 392h265v-392h59v-176h-88v102h-262v-102h-88v176h42zM409 496q0 -170 -64 -346h160v346h-96z" />
    <glyph glyph-name="uni0435" unicode="&#x435;" 
d="M313 336h247q-4 74 -34.5 111t-89.5 37q-56 0 -87.5 -37t-35.5 -111zM311 270q10 -70 48.5 -102t102.5 -34q76 -4 160 15v-68q-76 -22 -160 -19q-110 1 -173.5 64t-63.5 183q0 114 60.5 180t150.5 66q93 0 152 -67t59 -172v-46h-336z" />
    <glyph glyph-name="uni0436" unicode="&#x436;" 
d="M392 326v216h87v-216l214 216h100l-217 -229l217 -237h-101l-213 226v-226h-87v226l-213 -226h-101l217 237l-217 229h100z" />
    <glyph glyph-name="uni0437" unicode="&#x437;" 
d="M282 519q28 12 69.5 19.5t82.5 7.5q46 0 81 -10t59 -27q23 -17 35 -39.5t12 -49.5q0 -62 -64 -102q77 -37 77 -104q0 -28 -12 -53.5t-36 -44.5q-25 -20 -65.5 -31.5t-97.5 -11.5q-47 0 -86 7.5t-63 17.5v68q26 -11 63.5 -17.5t72.5 -6.5q33 0 56 4t38 14t22 24.5t7 31.5
q0 49 -49 60q-17 4 -46 4h-103v66h108q22 0 36 5q21 7 30.5 23.5t9.5 35.5q0 33 -25.5 50t-72.5 17q-39 0 -78.5 -8t-60.5 -15v65z" />
    <glyph glyph-name="uni0438" unicode="&#x438;" 
d="M644 542v-466h-88v350l-237 -350h-91v466h88v-342l236 342h92z" />
    <glyph glyph-name="uni0439" unicode="&#x439;" 
d="M644 542v-466h-88v350l-237 -350h-91v466h88v-342l236 342h92zM436 673q58 0 80 58h85q-34 -114 -165 -114t-165 114h85q22 -58 80 -58z" />
    <glyph glyph-name="uni043A" unicode="&#x43a;" 
d="M529 542h100l-222 -229l222 -237h-101l-213 221v-221h-87v466h87v-211z" />
    <glyph glyph-name="uni043B" unicode="&#x43b;" 
d="M644 539v-463h-88v389h-110q-15 -102 -30 -169.5t-33 -108.5q-17 -42 -35.5 -65t-36.5 -33q-19 -10 -38 -13.5t-40 -3.5q-9 0 -18.5 1l-9.5 1v78h16q18 0 32.5 4.5t26.5 18.5q13 14 24.5 40t22.5 69q12 43 23 110t21 145h273z" />
    <glyph glyph-name="uni043C" unicode="&#x43c;" 
d="M417 182l133 360h121v-466h-79v384l-146 -384h-59l-145 383v-383h-79v466h120z" />
    <glyph glyph-name="uni043D" unicode="&#x43d;" 
d="M300 348h272v194h89v-466h-89v199h-272v-199h-88v466h88v-194z" />
    <glyph glyph-name="uni043E" unicode="&#x43e;" 
d="M436 555q106 0 180 -72q67 -68 67 -174t-67 -175q-74 -71 -180 -71q-104 0 -178 71q-69 69 -69 175t69 174q74 72 178 72zM278 309q0 -76 47 -123q46 -48 111 -49q67 1 113 49q47 47 47 123t-47 123q-46 48 -113 49q-65 -1 -111 -49q-47 -47 -47 -123z" />
    <glyph glyph-name="uni043F" unicode="&#x43f;" 
d="M316 468v-392h-88v466h416v-466h-88v392h-240z" />
    <glyph glyph-name="uni0440" unicode="&#x440;" 
d="M440 137q67 0 102 48t35 122q0 76 -34 124q-35 47 -101 50h-2h3h-1q-71 -3 -126 -73v-209q62 -62 123 -62h1zM459 555q90 0 148 -64t58 -184q0 -118 -58 -181t-148 -63q-75 0 -143 58v-239h-88v660h80v-56q64 69 151 69z" />
    <glyph glyph-name="uni0441" unicode="&#x441;" 
d="M334 310q-1 -74 39 -119q48 -53 138 -53q72 0 118 11v-71q-62 -18 -130 -14q-122 7 -188 73t-66 173t66 172.5t188 72.5q65 4 127 -14v-71q-46 11 -115 11q-90 0 -138 -53q-40 -44 -39 -118z" />
    <glyph glyph-name="uni0442" unicode="&#x442;" 
d="M228 468v74h416v-74h-164v-392h-88v392h-164z" />
    <glyph glyph-name="uni0443" unicode="&#x443;" 
d="M205 542h88l134 -357l150 357h87l-278 -660h-87l85 201z" />
    <glyph glyph-name="uni0444" unicode="&#x444;" 
d="M480 731v-179q82 -11 141 -68q74 -71 74 -175t-74 -175q-59 -57 -141 -68v-158h-88v158q-81 12 -139 68q-74 71 -74 175t74 175q59 56 140 68v179h87zM480 477v-336q49 11 81 49q45 52 45 119t-45 120q-32 37 -81 48zM392 142l1 334q-48 -11 -80 -47q-45 -53 -45 -120
t45 -119q31 -37 79 -48z" />
    <glyph glyph-name="uni0445" unicode="&#x445;" 
d="M437 374l121 168h95l-166 -231l174 -235h-95l-130 175l-127 -175h-95l175 237l-168 229h95z" />
    <glyph glyph-name="uni0446" unicode="&#x446;" 
d="M633 77h-415v465h88v-391h265v391h88v-391h62v-264h-88v190z" />
    <glyph glyph-name="uni0447" unicode="&#x447;" 
d="M643 -47h-88v278q-59 -79 -150 -79q-70 0 -123.5 45t-53.5 149v196h88v-210q0 -106 112 -106q82 0 127 104v212h88v-589z" />
    <glyph glyph-name="uni0448" unicode="&#x448;" 
d="M723 76h-575v466h86v-392h159v392h86v-392h158v392h86v-466z" />
    <glyph glyph-name="uni0449" unicode="&#x449;" 
d="M684 76h-536v466h86v-392h159v392h86v-392h158v392h86v-393h53v-240h-92v167z" />
    <glyph glyph-name="uni044A" unicode="&#x44a;" 
d="M372 369q45 5 75 5q104 0 150.5 -41t46.5 -101q0 -72 -62.5 -113t-159.5 -41q-43 0 -77 5t-61 11v374h-143v74h231v-173zM429 149q55 0 89 19.5t34 59.5q0 35 -29 55t-87 20q-26 0 -64 -5v-146q31 -3 57 -3z" />
    <glyph glyph-name="uni044B" unicode="&#x44b;" 
d="M310 149q55 0 89 19.5t34 59.5q0 35 -29 55t-87 20q-26 0 -64 -5v-146q31 -3 57 -3zM165 542h88v-173q45 5 75 5q104 0 150.5 -41t46.5 -101q0 -72 -62.5 -113t-159.5 -41q-43 0 -77 5t-61 11v448zM684 77h-88v465h88v-465z" />
    <glyph glyph-name="uni044C" unicode="&#x44c;" 
d="M402 149q55 0 89 19.5t34 59.5q0 35 -29 55t-87 20q-26 0 -64 -5v-146q31 -3 57 -3zM257 542h88v-173q45 5 75 5q104 0 150.5 -41t46.5 -101q0 -72 -62.5 -113t-159.5 -41q-43 0 -77 5t-61 11v448z" />
    <glyph glyph-name="uni044D" unicode="&#x44d;" 
d="M390 541q54 0 98.5 -16.5t77.5 -45.5q31 -31 48.5 -75t17.5 -101q0 -59 -17.5 -103t-49.5 -74q-32 -29 -78 -43.5t-104 -14.5q-40 0 -73 8t-48 15v66q17 -8 49 -14t66 -6q73 0 114 30.5t51 107.5h-243v66h239q-8 45 -22 67.5t-35 37.5q-21 12 -46.5 19t-54.5 7
q-37 0 -69 -6.5t-42 -11.5v65q21 8 53.5 15t67.5 7z" />
    <glyph glyph-name="uni044E" unicode="&#x44e;" 
d="M134 76v466h87v-195h106q10 81 61 136q65 72 162 72q100 0 165 -72q62 -67 62 -174t-62 -175q-65 -71 -165 -71q-97 0 -162 71q-52 56 -61 139h-106v-197h-87zM413 309q0 -75 41 -123q43 -48 97 -49q55 1 98 49q42 48 42 123t-42 123q-43 48 -98 49q-54 -1 -97 -49
q-41 -48 -41 -123z" />
    <glyph glyph-name="uni044F" unicode="&#x44f;" 
d="M435 477q-89 0 -89 -81q0 -73 94 -73h88v154h-93zM256 393q0 72 45 108q51 41 134 41h181v-466h-88v182h-97l-90 -182h-86l102 200q-101 37 -101 117z" />
    <glyph glyph-name="uni0451" unicode="&#x451;" 
d="M313 336h247q-4 74 -34.5 111t-89.5 37q-56 0 -87.5 -37t-35.5 -111zM311 270q10 -70 48.5 -102t102.5 -34q76 -4 160 15v-68q-76 -22 -160 -19q-110 1 -173.5 64t-63.5 183q0 114 60.5 180t150.5 66q93 0 152 -67t59 -172v-46h-336zM306 715h69v-69h-69v69zM507 715h69
v-69h-69v69z" />
    <glyph glyph-name="uni2015" unicode="&#x2015;" 
d="M10 368v74h852v-74h-852z" />
    <glyph glyph-name="quoteleft" unicode="&#x2018;" horiz-adv-x="436" 
d="M203 684q5 114 102 149l29 -42q-72 -29 -72 -107h63v-122h-122v122z" />
    <glyph glyph-name="quoteright" unicode="&#x2019;" horiz-adv-x="436" 
d="M233 691q-5 -114 -102 -149l-29 42q72 29 72 107h-63v122h122v-122z" />
    <glyph glyph-name="quotedblleft" unicode="&#x201c;" horiz-adv-x="580" 
d="M135 684q5 114 102 149l29 -42q-72 -29 -72 -107h63v-122h-122v122zM347 684q5 114 102 149l29 -42q-72 -29 -72 -107h63v-122h-122v122z" />
    <glyph glyph-name="quotedblright" unicode="&#x201d;" horiz-adv-x="580" 
d="M233 691q-5 -114 -102 -149l-29 42q72 29 72 107h-63v122h122v-122zM445 691q-5 -114 -102 -149l-29 42q72 29 72 107h-63v122h122v-122z" />
    <glyph glyph-name="dagger" unicode="&#x2020;" 
d="M657 489h-199v-534h-45v534h-200v48h200v266h45v-266h199v-48z" />
    <glyph glyph-name="daggerdbl" unicode="&#x2021;" 
d="M662 621h-203v-107h186v-48h-186v-512h-46v512h-185v48h185v107h-201v49h201v132h46v-132h203v-49z" />
    <glyph glyph-name="twodotenleader" unicode="&#x2025;" 
d="M591 346v123h123v-123h-123zM157 346v123h123v-123h-123z" />
    <glyph glyph-name="ellipsis" unicode="&#x2026;" 
d="M664 346v123h123v-123h-123zM374 346v123h123v-123h-123zM84 346v123h123v-123h-123z" />
    <glyph glyph-name="perthousand" unicode="&#x2030;" 
d="M229 718q56 0 76.5 -40.5t-3.5 -104.5q-23 -66 -67 -109t-95 -47t-74 38.5t-4 104.5q22 65 69.5 111.5t97.5 46.5zM227 680q-36 0 -66 -35t-49 -79q-18 -41 -12 -72t33 -38q28 -6 61 24.5t59 86.5q26 53 14 83t-40 30zM471 306q56 0 76.5 -43t-5.5 -108q-25 -63 -66 -104
t-94 -46q-51 -5 -73.5 38t-4.5 105q22 65 69.5 111.5t97.5 46.5zM469 268q-34 1 -65 -34.5t-49 -79.5q-18 -41 -14 -71.5t33 -37.5q27 -6 60.5 23t59.5 87q25 50 14 81t-39 32zM758 306q56 0 76.5 -43t-5.5 -108q-25 -63 -66 -104t-93 -46q-53 -5 -75.5 38t-4.5 105
q23 65 70 111.5t98 46.5zM756 268q-33 1 -65 -34.5t-50 -79.5q-18 -41 -14 -71.5t33 -37.5q27 -6 61 23t60 87q25 50 14 81t-39 32zM522 731h55l-475 -726h-55z" />
    <glyph glyph-name="minute" unicode="&#x2032;" 
d="M132 552h-50l94 250h108z" />
    <glyph glyph-name="second" unicode="&#x2033;" 
d="M132 552h-51l94 250h109zM348 552h-51l94 250h109z" />
    <glyph glyph-name="uni203B" unicode="&#x203b;" 
d="M711 731l37 -36l-275 -283l288 -296l-37 -36l-288 295l-287 -294l-37 36l287 295l-274 282l37 36l274 -281zM497 153q0 -25 -18.5 -43.5t-43.5 -18.5t-43.5 18.5t-18.5 43.5t18.5 43.5t43.5 18.5t43.5 -18.5t18.5 -43.5zM760 411q0 -25 -18.5 -43.5t-43.5 -18.5
t-43.5 18.5t-18.5 43.5t18.5 43.5t43.5 18.5t43.5 -18.5t18.5 -43.5zM235 412q0 -25 -18.5 -43.5t-43.5 -18.5t-43.5 18.5t-18.5 43.5t18.5 43.5t43.5 18.5t43.5 -18.5t18.5 -43.5zM498 670q0 -25 -18.5 -43.5t-43.5 -18.5t-43.5 18.5t-18.5 43.5t18.5 43.5t43.5 18.5
t43.5 -18.5t18.5 -43.5z" />
    <glyph glyph-name="uni2074" unicode="&#x2074;" 
d="M257 360v109h-195v36l203 296h50v-286h55v-46h-55v-109h-58zM257 709l-130 -194h130v194z" />
    <glyph glyph-name="uni207F" unicode="&#x207f;" 
d="M73 567q0 68 37.5 101.5t107.5 33.5q68 0 106 -35.5t38 -99.5v-197h-60v205q0 77 -84 77q-85 0 -85 -77v-205h-60v197z" />
    <glyph glyph-name="uni2081" unicode="&#x2081;" 
d="M191 -55v376l-106 -39v48l111 47h55v-432h-60z" />
    <glyph glyph-name="uni2082" unicode="&#x2082;" 
d="M202 327q-52 -4 -105 -31v52q63 29 124 29q54 -1 86.5 -34.5t32.5 -85.5q0 -79 -82 -170l-77 -92h172v-50h-260v29l113 133q36 45 54.5 79t18.5 65q0 38 -21.5 58t-55.5 18z" />
    <glyph glyph-name="uni2083" unicode="&#x2083;" 
d="M188 325q-40 0 -82 -13v50q39 11 80 13q72 3 113 -24.5t41 -85.5q-3 -64 -73 -103q88 -30 88 -98q0 -63 -45 -96.5t-120 -33.5q-52 0 -93 12v46q47 -8 90 -8q57 0 82.5 22.5t25.5 58.5t-31.5 54t-78.5 18h-34v47h22q108 0 108 78q-7 63 -93 63z" />
    <glyph glyph-name="uni2084" unicode="&#x2084;" 
d="M257 -65v109h-195v36l203 296h50v-286h55v-46h-55v-109h-58zM257 284l-130 -194h130v194z" />
    <glyph glyph-name="Euro" unicode="&#x20ac;" 
d="M104 482h117q16 99 83 166q88 89 246 96q83 4 159 -10v-73q-75 13 -146 10q-125 -5 -187 -71q-48 -49 -64 -118h254v-45h-261q-1 -14 -1 -29v-11q0 -36 6 -67h256v-45h-244q18 -47 53 -79q71 -66 190 -70q80 -3 147 7v-73q-69 -11 -160 -7q-162 7 -249 93q-54 52 -75 129
h-124v45h115q-4 31 -4 65v17q0 13 1 25h-112v45z" />
    <glyph glyph-name="uni2103" unicode="&#x2103;" 
d="M300 355q0 132 79 211.5t221 86.5q75 3 142 -9v-63q-66 11 -130 8q-113 -4 -169 -64q-65 -66 -65 -173q0 -114 64 -173.5t172 -62.5q72 -3 131 6v-63q-61 -10 -143 -7q-145 7 -223.5 83.5t-78.5 214.5v5zM261 668q0 28 -18.5 46.5t-45.5 18.5q-28 0 -46 -18.5t-18 -46.5
q0 -29 18 -47t46 -18q27 0 45.5 18t18.5 47zM297 668q0 -42 -29.5 -71.5t-71.5 -29.5t-71.5 29.5t-29.5 71.5t29.5 71.5t71.5 29.5t71.5 -29.5t29.5 -71.5z" />
    <glyph glyph-name="uni2109" unicode="&#x2109;" 
d="M764 583h-273v-200h249v-69h-249v-257h-73v594h346v-68zM269 668q0 28 -18.5 46.5t-45.5 18.5q-28 0 -46 -18.5t-18 -46.5q0 -29 18 -47t46 -18q27 0 45.5 18t18.5 47zM305 668q0 -42 -29.5 -71.5t-71.5 -29.5t-71.5 29.5t-29.5 71.5t29.5 71.5t71.5 29.5t71.5 -29.5
t29.5 -71.5z" />
    <glyph glyph-name="uni2113" unicode="&#x2113;" 
d="M631 69q-37 -73 -121 -74q-93 1 -145 80q-51 -20 -118 -14v65q43 -4 91 7q-50 136 -42 308t83 265q55 69 126 43q64 -21 76 -134q18 -157 -21.5 -301.5t-118.5 -207.5q18 -39 64 -47q51 -8 76 53zM507 609q-5 61 -29 69q-32 10 -51 -29q-46 -94 -50 -232.5t30 -250.5
q57 66 84.5 193.5t15.5 249.5z" />
    <glyph glyph-name="uni2116" unicode="&#x2116;" 
d="M481 132h327v-56h-327v56zM124 731l220 -511v511h61v-655h-55l-220 510v-510h-61v655h55zM645 549q71 0 119 -47.5t48 -117.5t-48 -117.5t-119 -47.5q-72 0 -119.5 47.5t-47.5 117.5t48 117.5t119 47.5zM541 384q0 -49 30 -81t74 -32t74 32t30 81t-30 81t-74 32t-74 -32
t-30 -81z" />
    <glyph glyph-name="uni2121" unicode="&#x2121;" 
d="M252 74h-72v607h-141v52h352v-52h-139v-607zM399 328h199q-2 86 -26 129.5t-73 43.5t-72.5 -43.5t-27.5 -129.5zM397 278q10 -89 40.5 -124.5t81.5 -37.5q63 -6 131 11v-49q-63 -18 -130 -17q-91 1 -140.5 66t-49.5 180q0 110 40.5 178t128.5 68q84 -2 128 -70t44 -162
v-43h-274zM741 74v659h71v-659h-71z" />
    <glyph glyph-name="trademark" unicode="&#x2122;" 
d="M250 413h-66v265h-118v57h303v-57h-119v-265zM628 413h-36l-110 235v-235h-57v322h79l106 -233l105 233h81v-322h-59v232z" />
    <glyph glyph-name="Omega" unicode="&#x2126;" 
d="M435 681q-83 0 -136.5 -59.5t-53.5 -175.5q0 -99 38.5 -153.5t97.5 -76.5q20 -7 19 -55v-91h-174v55h96v48q-76 36 -121 101t-45 175q0 135 75.5 217t203.5 82q129 0 205 -82t76 -217q0 -108 -49.5 -177t-116.5 -99v-48h96v-55h-174v91q-2 48 18 55q59 22 98 76.5
t39 153.5q0 116 -54.5 175.5t-137.5 59.5z" />
    <glyph glyph-name="uni212B" unicode="&#x212b;" 
d="M437 460l-98 -252h198zM476 545l224 -569h-74l-66 169h-244l-66 -169h-74l223 569h77zM500 717q0 28 -18.5 46.5t-45.5 18.5q-28 0 -46 -18.5t-18 -46.5q0 -29 18 -47t46 -18q27 0 45.5 18t18.5 47zM536 717q0 -42 -29.5 -71.5t-71.5 -29.5t-71.5 29.5t-29.5 71.5
t29.5 71.5t71.5 29.5t71.5 -29.5t29.5 -71.5z" />
    <glyph glyph-name="onethird" unicode="&#x2153;" 
d="M778 338h-684v41h684v-41zM496 77q60 -28 60 -84q0 -53 -38 -83q-36 -25 -98 -26q-42 -1 -79 13v43q40 -13 76 -12q48 1 67 19t19 47q0 30 -23.5 44.5t-66.5 14.5h-28v44h19q88 0 88 61q0 51 -72 53q-37 1 -75 -15v40q45 21 82 20q27 -1 49.5 -8t35.5 -18
q16 -14 24 -30.5t8 -36.5q0 -53 -48 -86zM424 455v325l-98 -36v40l103 43h47v-372h-52z" />
    <glyph glyph-name="twothirds" unicode="&#x2154;" 
d="M778 338h-684v41h684v-41zM423 777q-43 0 -93 -26v45q70 33 112 28q47 -6 72 -32q26 -24 26 -71q0 -65 -66 -142l-67 -75h145v-44h-222v27l93 108q33 38 48.5 67t15.5 53q0 62 -64 62zM496 77q60 -28 60 -84q0 -53 -38 -83q-36 -25 -98 -26q-42 -1 -79 13v43
q40 -13 76 -12q48 1 67 19t19 47q0 30 -23.5 44.5t-66.5 14.5h-28v44h19q88 0 88 61q0 51 -72 53q-37 1 -75 -15v40q45 21 82 20q27 -1 49.5 -8t35.5 -18q16 -14 24 -30.5t8 -36.5q0 -53 -48 -86z" />
    <glyph glyph-name="oneeighth" unicode="&#x215b;" 
d="M778 338h-684v41h684v-41zM436 234q-30 0 -50 -15q-20 -16 -20 -46q0 -26 19 -44t51 -26q33 8 52 26t19 44q0 31 -21 46q-20 15 -50 15zM436 -113q-62 0 -100 30q-37 31 -37 72q0 69 71 96q-62 31 -62 90q0 39 36 67q35 29 92 29q58 0 92 -28q36 -29 36 -68
q0 -59 -62 -90q71 -27 71 -96q0 -41 -37 -72q-38 -30 -100 -30zM436 -77q39 0 60 19q19 21 19 49t-21 47.5t-58 26.5q-37 -7 -58 -26.5t-21 -47.5t19 -49q21 -19 60 -19zM424 455v325l-98 -36v40l103 43h47v-372h-52z" />
    <glyph glyph-name="threeeighths" unicode="&#x215c;" 
d="M778 338h-684v41h684v-41zM436 234q-30 0 -50 -15q-20 -16 -20 -46q0 -26 19 -44t51 -26q33 8 52 26t19 44q0 31 -21 46q-20 15 -50 15zM436 -113q-62 0 -100 30q-37 31 -37 72q0 69 71 96q-62 31 -62 90q0 39 36 67q35 29 92 29q58 0 92 -28q36 -29 36 -68
q0 -59 -62 -90q71 -27 71 -96q0 -41 -37 -72q-38 -30 -100 -30zM436 -77q39 0 60 19q19 21 19 49t-21 47.5t-58 26.5q-37 -7 -58 -26.5t-21 -47.5t19 -49q21 -19 60 -19zM496 637q60 -28 60 -84q0 -53 -38 -83q-36 -25 -98 -26q-42 -1 -79 13v43q40 -13 76 -12q48 1 67 19
t19 47q0 30 -23.5 44.5t-66.5 14.5h-28v44h19q88 0 88 61q0 51 -72 53q-37 1 -75 -15v40q45 21 82 20q27 -1 49.5 -8t35.5 -18q16 -14 24 -30.5t8 -36.5q0 -53 -48 -86z" />
    <glyph glyph-name="fiveeighths" unicode="&#x215d;" 
d="M778 338h-684v41h684v-41zM408 662q45 6 80 -5.5t54 -35.5q22 -22 22 -62q0 -52 -38 -83t-99 -31q-49 0 -85 11v43q36 -9 79 -9q44 0 65.5 19.5t21.5 50.5q0 34 -23 49.5t-70 15.5q-32 0 -63 -1v196h189v-39h-133v-119zM436 234q-30 0 -50 -15q-20 -16 -20 -46
q0 -26 19 -44t51 -26q33 8 52 26t19 44q0 31 -21 46q-20 15 -50 15zM436 -113q-62 0 -100 30q-37 31 -37 72q0 69 71 96q-62 31 -62 90q0 39 36 67q35 29 92 29q58 0 92 -28q36 -29 36 -68q0 -59 -62 -90q71 -27 71 -96q0 -41 -37 -72q-38 -30 -100 -30zM436 -77q39 0 60 19
q19 21 19 49t-21 47.5t-58 26.5q-37 -7 -58 -26.5t-21 -47.5t19 -49q21 -19 60 -19z" />
    <glyph glyph-name="seveneighths" unicode="&#x215e;" 
d="M778 338h-684v41h684v-41zM436 234q-30 0 -50 -15q-20 -16 -20 -46q0 -26 19 -44t51 -26q33 8 52 26t19 44q0 31 -21 46q-20 15 -50 15zM436 -113q-62 0 -100 30q-37 31 -37 72q0 59 82 96q-73 41 -73 90q0 39 36 67q35 29 92 29q58 0 92 -28q36 -29 36 -68
q0 -49 -73 -90q82 -37 82 -96q0 -41 -37 -72q-38 -30 -100 -30zM436 -77q39 0 60 19q19 21 19 49t-21 47.5t-58 26.5q-37 -7 -58 -26.5t-21 -47.5t19 -49q21 -19 60 -19zM316 770v44h260v-36l-157 -338h-59l152 330h-196z" />
    <glyph glyph-name="uni2160" unicode="&#x2160;" 
d="M393 76v655h88v-655h-88z" />
    <glyph glyph-name="uni2161" unicode="&#x2161;" 
d="M228 76v655h88v-655h-88zM557 76v655h88v-655h-88z" />
    <glyph glyph-name="uni2162" unicode="&#x2162;" 
d="M176 76v655h83v-655h-83zM394 76v655h83v-655h-83zM612 76v655h83v-655h-83z" />
    <glyph glyph-name="uni2163" unicode="&#x2163;" 
d="M120 76v655h88v-655h-88zM308 731h86l152 -533l150 533h88l-200 -655h-76z" />
    <glyph glyph-name="uni2164" unicode="&#x2164;" 
d="M150 731h84l202 -546l200 546h86l-247 -655h-78z" />
    <glyph glyph-name="uni2165" unicode="&#x2165;" 
d="M752 76h-88v655h88v-655zM564 731l-200 -655h-76l-200 655h88l150 -533l152 533h86z" />
    <glyph glyph-name="uni2166" unicode="&#x2166;" 
d="M536 77v655h78v-655h-78zM725 77v655h78v-655h-78zM455 731l-161 -655h-76l-161 655h83l116 -544l118 544h81z" />
    <glyph glyph-name="uni2167" unicode="&#x2167;" 
d="M375 731l-132 -655h-74l-132 655h73l96 -565l98 565h71zM446 77v654h68v-654h-68zM595 77v654h68v-654h-68zM744 77v654h68v-654h-68z" />
    <glyph glyph-name="uni2168" unicode="&#x2168;" 
d="M201 77h-87v655h87v-655zM533 349l-145 -273h-93l188 334l-175 321h88l138 -262l139 262h88l-177 -323l186 -332h-92z" />
    <glyph glyph-name="uni2169" unicode="&#x2169;" 
d="M435 349l-190 -273h-98l234 334l-220 321h95l180 -262l179 262h95l-222 -323l233 -332h-98z" />
    <glyph glyph-name="uni2170" unicode="&#x2170;" 
d="M392 76v466h87v-466h-87zM389 645v86h94v-86h-94z" />
    <glyph glyph-name="uni2171" unicode="&#x2171;" 
d="M228 76v466h87v-466h-87zM225 645v86h94v-86h-94zM557 76v466h87v-466h-87zM554 645v86h94v-86h-94z" />
    <glyph glyph-name="uni2172" unicode="&#x2172;" 
d="M176 76v466h83v-466h-83zM173 645v86h90v-86h-90zM612 76v466h83v-466h-83zM609 645v86h90v-86h-90zM394 76v466h83v-466h-83zM391 645v86h90v-86h-90z" />
    <glyph glyph-name="uni2173" unicode="&#x2173;" 
d="M133 76v466h87v-466h-87zM130 645v86h94v-86h-94zM586 76h-69l-182 466h93l124 -349l124 349h93z" />
    <glyph glyph-name="uni2174" unicode="&#x2174;" 
d="M456 76h-41l-225 466h93l153 -343l153 343h93z" />
    <glyph glyph-name="uni2175" unicode="&#x2175;" 
d="M725 76h-87v466h87v-466zM728 645h-94v86h94v-86zM369 76h-69l-182 466h93l124 -349l124 349h93z" />
    <glyph glyph-name="uni2176" unicode="&#x2176;" 
d="M287 76h-59l-168 466h81l117 -367l117 367h81zM536 76v466h78v-466h-78zM533 645v86h85v-86h-85zM725 76v466h78v-466h-78zM722 645v86h85v-86h-85z" />
    <glyph glyph-name="uni2177" unicode="&#x2177;" 
d="M237 76h-59l-139 466h72l97 -373l97 373h72zM446 76v466h68v-466h-68zM443 645v86h75v-86h-75zM595 76v466h68v-466h-68zM592 645v86h75v-86h-75zM744 76v466h68v-466h-68zM741 645v86h75v-86h-75z" />
    <glyph glyph-name="uni2178" unicode="&#x2178;" 
d="M261 76h-87v466h87v-466zM264 646h-94v86h94v-86zM567 373l108 169h85l-150 -231l156 -235h-84l-116 175l-115 -175h-84l157 237l-151 229h84z" />
    <glyph glyph-name="uni2179" unicode="&#x2179;" 
d="M436 375l121 167h95l-165 -231l173 -235h-96l-129 174l-127 -174h-95l174 237l-167 229h95z" />
    <glyph glyph-name="arrowleft" unicode="&#x2190;" 
d="M862 384h-695l43 -116l-188 137l187 134l-43 -112h696v-43z" />
    <glyph glyph-name="arrowup" unicode="&#x2191;" 
d="M413 -130v823l-104 -42l127 185l133 -186l-109 42v-822h-47z" />
    <glyph glyph-name="arrowright" unicode="&#x2192;" 
d="M10 384v43h698l-43 112l187 -134l-188 -137l43 116h-697z" />
    <glyph glyph-name="arrowdown" unicode="&#x2193;" 
d="M413 846h47v-825l109 42l-133 -186l-127 185l104 -42v826z" />
    <glyph glyph-name="arrowboth" unicode="&#x2194;" 
d="M163 427h546l-43 112l187 -134l-187 -136l42 115h-544l42 -115l-187 136l187 134z" />
    <glyph glyph-name="arrowupdn" unicode="&#x2195;" 
d="M436 -81l-116 210l99 -24v505l-99 -24l116 210l116 -210l-95 24v-505l95 24z" />
    <glyph glyph-name="uni2196" unicode="&#x2196;" 
d="M152 541l-99 253l231 -134l-78 -21l613 -681l-27 -26l-612 683z" />
    <glyph glyph-name="uni2197" unicode="&#x2197;" 
d="M714 539l-28 74l-612 -683l-27 26l613 681l-78 21l231 134z" />
    <glyph glyph-name="uni2198" unicode="&#x2198;" 
d="M714 193l99 -253l-231 134l78 21l-613 681l27 26l612 -683z" />
    <glyph glyph-name="uni2199" unicode="&#x2199;" 
d="M152 193l28 -74l612 683l27 -26l-613 -681l78 -21l-231 -134z" />
    <glyph glyph-name="arrowdblright" unicode="&#x21d2;" 
d="M19 333h688l69 72l-69 72h-688v46h643l-114 118l36 37l272 -273l-269 -273l-38 36l113 119h-643v46z" />
    <glyph glyph-name="arrowdblboth" unicode="&#x21d4;" 
d="M210 523h453l-114 118l39 37l269 -273l-267 -275l-41 39l114 118h-453l114 -118l-40 -40l-269 276l268 274l40 -38zM707 333l70 72l-70 72h-542l-70 -72l70 -72h542z" />
    <glyph glyph-name="universal" unicode="&#x2200;" 
d="M227 731l79 -199h264l78 199h96l-262 -668h-87l-263 668h95zM437 156l105 302h-208z" />
    <glyph glyph-name="partialdiff" unicode="&#x2202;" 
d="M433 138q73 0 103.5 58.5t30.5 155.5q-36 23 -67 32.5t-63 9.5q-61 0 -93 -31.5t-32 -94.5q0 -58 33 -94t88 -36zM423 467q67 0 141 -39q-38 226 -190 238q-60 6 -115 -6v73q56 13 123 8q126 -8 200.5 -115t74.5 -271q0 -137 -61.5 -214.5t-160.5 -77.5q-90 0 -150 55
t-60 157q0 89 58.5 140.5t139.5 51.5z" />
    <glyph glyph-name="existential" unicode="&#x2203;" 
d="M527 150v224h-296v73h296v210h-327v74h415v-655h-422v74h334z" />
    <glyph glyph-name="gradient" unicode="&#x2207;" 
d="M436 90l-368 641h735zM167 677l269 -464l268 464h-537z" />
    <glyph glyph-name="element" unicode="&#x2208;" 
d="M782 325h-633q3 -39 17.5 -69.5t43.5 -56.5q27 -29 70.5 -46.5t96.5 -17.5h406v-61h-405q-71 0 -127 21.5t-96 57.5q-37 38 -58 90.5t-21 111.5q0 60 21 112.5t58 90.5q40 36 96 59t127 23h405v-61h-407q-52 0 -95.5 -19.5t-70.5 -48.5q-29 -25 -43.5 -55.5t-17.5 -66.5
h633v-64z" />
    <glyph glyph-name="suchthat" unicode="&#x220b;" 
d="M88 325v64h633q-3 36 -17.5 66.5t-43.5 55.5q-27 29 -71 48.5t-95 19.5h-407v61h405q71 0 127 -23t96 -59q37 -38 58 -90.5t21 -112.5q0 -59 -21 -111.5t-58 -90.5q-40 -36 -96 -57.5t-127 -21.5h-405v61h406q53 0 96.5 17.5t70.5 46.5q29 26 43.5 56.5t17.5 69.5h-633z
" />
    <glyph glyph-name="product" unicode="&#x220f;" 
d="M750 731v-75h-122v-580h-84v580h-213v-580h-84v580h-120v75h623z" />
    <glyph glyph-name="summation" unicode="&#x2211;" 
d="M533 416l-260 -269h383l-18 -71h-480l15 63l278 286l-166 238l20 68h431l-10 -72h-359z" />
    <glyph glyph-name="radical" unicode="&#x221a;" 
d="M560 756l-273 -786l-155 402l-54 -59l-17 28l107 112l124 -322l227 672h286v-47h-245z" />
    <glyph glyph-name="proportional" unicode="&#x221d;" 
d="M608 236q-94 0 -173 124q-83 -119 -173 -119q-81 0 -128.5 48.5t-47.5 121.5v6q0 73 47.5 121.5t128.5 48.5q94 0 173 -113q74 118 173 118q70 0 118 -51l-26 -33q-34 34 -93 34q-92 0 -145 -124q56 -132 145 -132q59 0 93 34l26 -33q-48 -51 -118 -51zM409 418
q-63 125 -147 125q-56 0 -89 -39t-33 -87t33 -87t89 -39q85 0 147 127z" />
    <glyph glyph-name="infinity" unicode="&#x221e;" 
d="M401 406q-20 54 -53.5 83.5t-79.5 29.5q-51 0 -85 -33t-34 -81q0 -50 34.5 -81.5t84.5 -31.5q46 0 79.5 30t53.5 84zM436 459q37 67 77.5 90t90.5 23q79 0 131.5 -48t52.5 -119t-52.5 -119t-131.5 -48q-50 0 -90.5 23t-77.5 90q-37 -67 -77.5 -90t-90.5 -23
q-79 0 -131.5 48t-52.5 119t52.5 119t131.5 48q50 0 90.5 -23t77.5 -90zM471 406q20 -54 53.5 -84t79.5 -30q50 0 84.5 31.5t34.5 81.5q0 48 -34 81t-85 33q-46 0 -79.5 -29.5t-53.5 -83.5z" />
    <glyph glyph-name="angle" unicode="&#x2220;" 
d="M200 140h576v-64h-667q-16 0 -23 4t-10 15t6 22t12 15l583 585l50 -50z" />
    <glyph glyph-name="uni2225" unicode="&#x2225;" 
d="M318 -112v941h71v-941h-71zM549 -112v941h71v-941h-71z" />
    <glyph glyph-name="logicaland" unicode="&#x2227;" 
d="M726 1l-290 605l-291 -605l-53 24l318 661q12 27 26 27q12 0 26 -29l317 -659z" />
    <glyph glyph-name="logicalor" unicode="&#x2228;" 
d="M726 713l53 -24l-317 -659q-14 -29 -26 -29q-14 0 -26 27l-318 661l53 24l291 -605z" />
    <glyph glyph-name="intersection" unicode="&#x2229;" 
d="M725 418v-412h-72v426q0 54 -20.5 100t-52.5 75q-31 29 -69 41t-69 12h-10q-33 0 -71 -12.5t-70 -41.5q-33 -29 -55 -75t-22 -99v-426h-71v412q0 71 23 127t62 96q38 39 92 61t116 22q61 0 115 -22t93 -62q39 -42 60 -100.5t21 -121.5z" />
    <glyph glyph-name="union" unicode="&#x222a;" 
d="M725 295q0 -63 -21 -121.5t-60 -100.5q-39 -40 -93 -62t-115 -22q-62 0 -116 22t-92 61q-39 40 -62 96t-23 127v412h71v-426q0 -53 22 -99t55 -75q32 -29 70 -41.5t71 -12.5h10q31 0 69 12t69 41q32 29 52.5 74.5t20.5 100.5v426h72v-412z" />
    <glyph glyph-name="integral" unicode="&#x222b;" 
d="M206 26q30 -57 91 -57q58 0 90 93q32 88 58 291l27 195q23 128 52 180q46 81 120 81q45 0 73.5 -31t28.5 -109l-13 -1q-3 22 -25.5 52.5t-70.5 30.5q-69 0 -91 -141l-33 -253q-37 -272 -85.5 -361t-127.5 -89q-39 0 -69 30.5t-40 83.5z" />
    <glyph glyph-name="uni222C" unicode="&#x222c;" 
d="M43 27q30 -58 81 -58t80 94q32 87 58 290l27 195q20 130 53.5 195.5t107.5 65.5q46 0 74.5 -37.5t28.5 -88.5l-11 -4q-5 25 -29 48.5t-62 23.5q-64 0 -88 -141l-33 -253q-37 -271 -87 -360.5t-117 -89.5q-38 0 -63 27t-35 80zM320 27q30 -58 81 -58t80 94q32 87 58 290
l27 195q20 130 53.5 195.5t107.5 65.5q46 0 74.5 -37.5t28.5 -88.5l-11 -4q-5 25 -29 48.5t-62 23.5q-64 0 -88 -141l-33 -253q-37 -271 -87 -360.5t-117 -89.5q-38 0 -63 27t-35 80z" />
    <glyph glyph-name="uni222E" unicode="&#x222e;" 
d="M657 705q0 -25 -12.5 -36.5t-29.5 -11.5q-20 0 -28 8t-10 22q-3 13 -6 26.5t-24 13.5q-9 0 -19.5 -9t-16.5 -26q-12 -27 -19.5 -52.5t-12.5 -68.5l-10 -82q125 -28 120 -141q-5 -119 -134 -142q-2 -47 -10.5 -91t-20.5 -73q-21 -50 -58 -74.5t-82 -24.5q-37 0 -58 15
t-21 46q0 23 13 36t29 13q24 0 37 -17.5t13 -55.5h8q34 0 52 20t28 55q6 28 9 49t10 105q-123 39 -117 145q6 114 131 138q6 46 10 75.5t11 54.5q21 70 61 108.5t86 38.5q32 0 51.5 -17t19.5 -47zM558 349q2 50 -29.5 77.5t-61.5 27.5q-8 -106 -11 -214q98 18 102 109z
M415 459q-94 -15 -96 -111q-2 -78 85 -106q-1 109 11 217z" />
    <glyph glyph-name="therefore" unicode="&#x2234;" 
d="M264 206q0 -25 -18.5 -43.5t-43.5 -18.5t-43.5 18.5t-18.5 43.5t18.5 43.5t43.5 18.5t43.5 -18.5t18.5 -43.5zM733 206q0 -25 -18.5 -43.5t-43.5 -18.5t-43.5 18.5t-18.5 43.5t18.5 43.5t43.5 18.5t43.5 -18.5t18.5 -43.5zM498 576q0 -25 -18.5 -43.5t-43.5 -18.5
t-43.5 18.5t-18.5 43.5t18.5 43.5t43.5 18.5t43.5 -18.5t18.5 -43.5z" />
    <glyph glyph-name="uni2235" unicode="&#x2235;" 
d="M264 576q0 -25 -18.5 -43.5t-43.5 -18.5t-43.5 18.5t-18.5 43.5t18.5 43.5t43.5 18.5t43.5 -18.5t18.5 -43.5zM733 576q0 -25 -18.5 -43.5t-43.5 -18.5t-43.5 18.5t-18.5 43.5t18.5 43.5t43.5 18.5t43.5 -18.5t18.5 -43.5zM498 206q0 -25 -18.5 -43.5t-43.5 -18.5
t-43.5 18.5t-18.5 43.5t18.5 43.5t43.5 18.5t43.5 -18.5t18.5 -43.5z" />
    <glyph glyph-name="similar" unicode="&#x223c;" 
d="M610 423h78q-11 -65 -46 -105q-43 -50 -104 -50q-46 0 -86 30l-61 53q-33 28 -54 30q-69 8 -79 -83h-75q3 66 44 110q46 51 111 44q43 -5 79 -32l58 -51q29 -27 48 -29q68 -7 87 83z" />
    <glyph glyph-name="uni223D" unicode="&#x223d;" 
d="M727 412v-2v1q0 47 -28 83q-34 40 -83 40q-36 0 -60.5 -13t-43.5 -34q-18 -20 -32.5 -46.5t-28.5 -51.5q-9 -16 -24 -40t-41 -50q-22 -24 -54.5 -39.5t-78.5 -15.5q-69 0 -118 48.5t-49 129.5q0 69 46.5 116.5t120.5 47.5q57 0 106 -37l-22 -39q-39 27 -88 27
q-44 0 -73 -30q-36 -34 -36 -93q0 -44 29 -84.5t84 -40.5q39 0 68 21.5t49 46.5q20 26 36.5 53.5t28.5 49.5q15 28 32 51t40 39q23 15 49 24t59 9q70 0 118 -50t48 -129q0 -69 -46.5 -116.5t-120.5 -47.5q-57 0 -106 37l22 39q39 -27 88 -27q44 0 73 30q36 34 36 92v1z" />
    <glyph glyph-name="uni2252" unicode="&#x2252;" 
d="M122 455v55h630v-55h-630zM121 299v56h631v-56h-631zM352 661q0 -25 -18.5 -43.5t-43.5 -18.5t-43.5 18.5t-18.5 43.5t18.5 43.5t43.5 18.5t43.5 -18.5t18.5 -43.5zM643 152q0 -25 -18.5 -43.5t-43.5 -18.5t-43.5 18.5t-18.5 43.5t18.5 43.5t43.5 18.5t43.5 -18.5
t18.5 -43.5z" />
    <glyph glyph-name="notequal" unicode="&#x2260;" 
d="M191 462v71h287l83 144l57 -36l-62 -108h124v-71h-165l-70 -122h235v-71h-275l-87 -151l-57 37l66 114h-136v71h176l70 122h-246z" />
    <glyph glyph-name="equivalence" unicode="&#x2261;" 
d="M122 533v55h630v-55h-630zM121 377v56h631v-56h-631zM121 222v55h631v-55h-631z" />
    <glyph glyph-name="lessequal" unicode="&#x2264;" 
d="M679 304l-29 -59l-447 217v25l434 222l30 -58l-339 -175zM175 87v74h522v-74h-522z" />
    <glyph glyph-name="greaterequal" unicode="&#x2265;" 
d="M193 304l351 172l-339 175l30 58l434 -222v-25l-447 -217zM697 87h-522v74h522v-74z" />
    <glyph glyph-name="uni226A" unicode="&#x226a;" 
d="M532 728l26 -37l-396 -287l393 -298l-30 -37l-443 335zM785 728l26 -37l-396 -287l393 -298l-30 -37l-443 335z" />
    <glyph glyph-name="uni226B" unicode="&#x226b;" 
d="M340 728l450 -324l-443 -335l-30 37l393 298l-396 287zM87 728l450 -324l-443 -335l-30 37l393 298l-396 287z" />
    <glyph glyph-name="propersubset" unicode="&#x2282;" 
d="M376 68q-63 0 -122 21.5t-102 59.5q-40 40 -61.5 93t-21.5 113q0 61 21.5 114t60.5 92q40 38 97 61.5t128 23.5h415v-67h-427q-53 0 -98.5 -22t-73.5 -54q-29 -33 -42 -71.5t-13 -72.5v-10q0 -32 12.5 -70.5t41.5 -70.5q29 -31 73.5 -51.5t99.5 -20.5h427v-68h-415z" />
    <glyph glyph-name="propersuperset" unicode="&#x2283;" 
d="M484 68h-415v68h427q54 0 99 20.5t74 51.5q29 32 41.5 70.5t12.5 70.5v10q0 34 -13 72.5t-42 71.5q-28 32 -73.5 54t-98.5 22h-427v67h415q71 0 128 -23.5t96 -61.5q40 -39 61.5 -92t21.5 -114q0 -60 -21.5 -113t-61.5 -93q-43 -38 -102 -59.5t-122 -21.5z" />
    <glyph glyph-name="reflexsubset" unicode="&#x2286;" 
d="M378 209q-71 0 -136.5 18t-102.5 50q-40 32 -58.5 74.5t-18.5 92.5q0 49 18.5 92.5t57.5 75.5q36 32 98 51.5t141 19.5h426v-64h-435q-58 0 -99.5 -16t-72.5 -40q-28 -25 -40.5 -56.5t-12.5 -62.5q0 -32 12.5 -63.5t40.5 -54.5q29 -25 72.5 -39t100.5 -14h434v-64h-425z
M91 23v59h721v-59h-721z" />
    <glyph glyph-name="reflexsuperset" unicode="&#x2287;" 
d="M495 209h-424v64h434q57 0 100 14t72 39q29 23 41.5 54.5t12.5 63.5q0 31 -12.5 62.5t-41.5 56.5q-30 24 -71.5 40t-99.5 16h-435v64h425q80 0 141.5 -19.5t97.5 -51.5q40 -32 58.5 -75.5t18.5 -92.5q0 -50 -18.5 -92.5t-59.5 -74.5q-36 -32 -101.5 -50t-137.5 -18z
M783 23h-721v59h721v-59z" />
    <glyph glyph-name="uni2299" unicode="&#x2299;" 
d="M74 404q0 151 106.5 255.5t255.5 104.5t255.5 -104.5t106.5 -255.5t-106.5 -255.5t-255.5 -104.5q-150 2 -256 105.5t-106 254.5zM745 404q0 135 -91 223t-218 88t-218 -88t-91 -223t91 -223t218 -88t218 88t91 223zM303 404q0 57 40 94t93 37t93 -37t40 -94t-40 -94
t-93 -37t-93 37t-40 94z" />
    <glyph glyph-name="perpendicular" unicode="&#x22a5;" 
d="M92 140h303v562h82v-562h303v-64h-688v64z" />
    <glyph glyph-name="uni2312" unicode="&#x2312;" 
d="M166 432h-84q20 130 113 221t241 91q143 0 238.5 -90.5t117.5 -221.5h-85q-18 107 -93 176.5t-178 69.5t-177 -68.5t-93 -177.5z" />
    <glyph glyph-name="uni2460" unicode="&#x2460;" 
d="M848 360q0 -83 -32.5 -156.5t-89.5 -129.5q-55 -54 -129.5 -85.5t-159.5 -31.5q-84 0 -158.5 31.5t-129.5 85.5q-57 56 -89 129.5t-32 156.5q0 84 32 157.5t89 129.5q55 54 129.5 86t158.5 32q85 0 159.5 -32t129.5 -86q57 -56 89.5 -129.5t32.5 -157.5zM791 360
q0 72 -28.5 136t-74.5 112q-49 48 -113.5 76.5t-137.5 28.5q-72 0 -136.5 -28.5t-113.5 -76.5q-46 -48 -74 -112t-28 -136q0 -71 28 -135t74 -112q49 -48 113.5 -76t136.5 -28q73 0 137.5 28t113.5 76q46 48 74.5 112t28.5 135zM419 111v442l-127 -47v59l131 55h59v-509h-63
z" />
    <glyph glyph-name="uni2461" unicode="&#x2461;" 
d="M848 360q0 -83 -32.5 -156.5t-89.5 -129.5q-55 -54 -129.5 -85.5t-159.5 -31.5q-84 0 -158.5 31.5t-129.5 85.5q-57 56 -89 129.5t-32 156.5q0 84 32 157.5t89 129.5q55 54 129.5 86t158.5 32q85 0 159.5 -32t129.5 -86q57 -56 89.5 -129.5t32.5 -157.5zM791 360
q0 72 -28.5 136t-74.5 112q-49 48 -113.5 76.5t-137.5 28.5q-72 0 -136.5 -28.5t-113.5 -76.5q-46 -48 -74 -112t-28 -136q0 -71 28 -135t74 -112q49 -48 113.5 -76t136.5 -28q73 0 137.5 28t113.5 76q46 48 74.5 112t28.5 135zM415 577q-60 -3 -120 -35v61q71 35 139 35
q66 0 103.5 -39.5t37.5 -103.5q0 -94 -96 -202l-90 -104h202v-60h-302v37l132 154q44 53 66 93t22 76q0 42 -25.5 66t-68.5 22z" />
    <glyph glyph-name="uni2462" unicode="&#x2462;" 
d="M407 562q-48 0 -93 -13v60q44 11 90 13q84 4 132 -27.5t48 -101.5q-4 -76 -79 -120q97 -36 97 -119q0 -74 -52 -112t-140 -38q-59 0 -106 11v57q51 -10 102 -9q69 0 100 26.5t31 66.5q0 42 -38 63.5t-95 21.5h-37v58h26q128 0 128 90q-8 73 -114 73zM848 360
q0 -83 -32.5 -156.5t-89.5 -129.5q-55 -54 -129.5 -85.5t-159.5 -31.5q-84 0 -158.5 31.5t-129.5 85.5q-57 56 -89 129.5t-32 156.5q0 84 32 157.5t89 129.5q55 54 129.5 86t158.5 32q85 0 159.5 -32t129.5 -86q57 -56 89.5 -129.5t32.5 -157.5zM791 360q0 72 -28.5 136
t-74.5 112q-49 48 -113.5 76.5t-137.5 28.5q-72 0 -136.5 -28.5t-113.5 -76.5q-46 -48 -74 -112t-28 -136q0 -71 28 -135t74 -112q49 -48 113.5 -76t136.5 -28q73 0 137.5 28t113.5 76q46 48 74.5 112t28.5 135z" />
    <glyph glyph-name="uni2463" unicode="&#x2463;" 
d="M457 94v127h-229v44l238 349h53v-335h64v-58h-64v-127h-62zM457 507l-153 -228h153v228zM848 360q0 -83 -32.5 -156.5t-89.5 -129.5q-55 -54 -129.5 -85.5t-159.5 -31.5q-84 0 -158.5 31.5t-129.5 85.5q-57 56 -89 129.5t-32 156.5q0 84 32 157.5t89 129.5
q55 54 129.5 86t158.5 32q85 0 159.5 -32t129.5 -86q57 -56 89.5 -129.5t32.5 -157.5zM791 360q0 72 -28.5 136t-74.5 112q-49 48 -113.5 76.5t-137.5 28.5q-72 0 -136.5 -28.5t-113.5 -76.5q-46 -48 -74 -112t-28 -136q0 -71 28 -135t74 -112q49 -48 113.5 -76t136.5 -28
q73 0 137.5 28t113.5 76q46 48 74.5 112t28.5 135z" />
    <glyph glyph-name="uni2464" unicode="&#x2464;" 
d="M379 400q75 6 120.5 -8.5t73.5 -47.5q30 -35 30 -92q0 -73 -51.5 -116.5t-140.5 -43.5q-65 0 -112 12v59q42 -11 106 -11q68 0 101 28t33 70q0 49 -36 72t-107 23q-46 0 -82 -4v257h259v-60h-194v-138zM848 360q0 -83 -32.5 -156.5t-89.5 -129.5q-55 -54 -129.5 -85.5
t-159.5 -31.5q-84 0 -158.5 31.5t-129.5 85.5q-57 56 -89 129.5t-32 156.5q0 84 32 157.5t89 129.5q55 54 129.5 86t158.5 32q85 0 159.5 -32t129.5 -86q57 -56 89.5 -129.5t32.5 -157.5zM791 360q0 72 -28.5 136t-74.5 112q-49 48 -113.5 76.5t-137.5 28.5
q-72 0 -136.5 -28.5t-113.5 -76.5q-46 -48 -74 -112t-28 -136q0 -71 28 -135t74 -112q49 -48 113.5 -76t136.5 -28q73 0 137.5 28t113.5 76q46 48 74.5 112t28.5 135z" />
    <glyph glyph-name="uni2465" unicode="&#x2465;" 
d="M424 155q45 0 70 27.5t25 69.5q0 45 -25 69.5t-72 24.5q-22 0 -47 -6t-49 -18q0 -78 22 -122.5t76 -44.5zM433 404q61 0 105.5 -39.5t44.5 -108.5q0 -79 -45 -120.5t-115 -41.5q-72 0 -118 59t-46 164q0 127 56 207.5t149 87.5q52 5 94 -6v-61q-42 10 -87 7
q-121 -7 -142 -176q46 28 104 28zM848 360q0 -83 -32.5 -156.5t-89.5 -129.5q-55 -54 -129.5 -85.5t-159.5 -31.5q-84 0 -158.5 31.5t-129.5 85.5q-57 56 -89 129.5t-32 156.5q0 84 32 157.5t89 129.5q55 54 129.5 86t158.5 32q85 0 159.5 -32t129.5 -86q57 -56 89.5 -129.5
t32.5 -157.5zM791 360q0 72 -28.5 136t-74.5 112q-49 48 -113.5 76.5t-137.5 28.5q-72 0 -136.5 -28.5t-113.5 -76.5q-46 -48 -74 -112t-28 -136q0 -71 28 -135t74 -112q49 -48 113.5 -76t136.5 -28q73 0 137.5 28t113.5 76q46 48 74.5 112t28.5 135z" />
    <glyph glyph-name="uni2466" unicode="&#x2466;" 
d="M278 529v61h309v-52l-187 -449h-69l182 440h-235zM848 360q0 -83 -32.5 -156.5t-89.5 -129.5q-55 -54 -129.5 -85.5t-159.5 -31.5q-84 0 -158.5 31.5t-129.5 85.5q-57 56 -89 129.5t-32 156.5q0 84 32 157.5t89 129.5q55 54 129.5 86t158.5 32q85 0 159.5 -32t129.5 -86
q57 -56 89.5 -129.5t32.5 -157.5zM791 360q0 72 -28.5 136t-74.5 112q-49 48 -113.5 76.5t-137.5 28.5q-72 0 -136.5 -28.5t-113.5 -76.5q-46 -48 -74 -112t-28 -136q0 -71 28 -135t74 -112q49 -48 113.5 -76t136.5 -28q73 0 137.5 28t113.5 76q46 48 74.5 112t28.5 135z
" />
    <glyph glyph-name="uni2467" unicode="&#x2467;" 
d="M436 559q-40 0 -63.5 -22.5t-23.5 -59.5q0 -29 21.5 -54.5t65.5 -34.5q41 9 64.5 34.5t23.5 54.5q0 37 -25 59.5t-63 22.5zM436 96q-71 0 -120 39.5t-49 98.5q0 81 93 124q-75 53 -78 121q0 56 42.5 95t111.5 39q68 0 110.5 -38.5t42.5 -95.5q-3 -68 -78 -121
q93 -43 93 -124q0 -59 -48 -98.5t-120 -39.5zM436 148q51 0 77 27.5t26 60.5q0 35 -29 62t-74 34q-48 -7 -75.5 -34.5t-27.5 -61.5q0 -33 27 -60.5t76 -27.5zM848 360q0 -83 -32.5 -156.5t-89.5 -129.5q-55 -54 -129.5 -85.5t-159.5 -31.5q-84 0 -158.5 31.5t-129.5 85.5
q-57 56 -89 129.5t-32 156.5q0 84 32 157.5t89 129.5q55 54 129.5 86t158.5 32q85 0 159.5 -32t129.5 -86q57 -56 89.5 -129.5t32.5 -157.5zM791 360q0 72 -28.5 136t-74.5 112q-49 48 -113.5 76.5t-137.5 28.5q-72 0 -136.5 -28.5t-113.5 -76.5q-46 -48 -74 -112t-28 -136
q0 -71 28 -135t74 -112q49 -48 113.5 -76t136.5 -28q73 0 137.5 28t113.5 76q46 48 74.5 112t28.5 135z" />
    <glyph glyph-name="uni2468" unicode="&#x2468;" 
d="M441 551q-46 0 -69 -31.5t-23 -71.5q0 -45 23.5 -69t69.5 -24q24 0 52 7.5t47 18.5q0 77 -23 123.5t-77 46.5zM431 298q-64 0 -106 35.5t-42 107.5q0 82 43 126.5t115 44.5q81 0 122.5 -61.5t41.5 -165.5q2 -149 -55 -219t-149 -73q-49 -2 -99 9v63q39 -15 98 -10
q70 6 103.5 47.5t33.5 118.5q-53 -23 -106 -23zM848 360q0 -83 -32.5 -156.5t-89.5 -129.5q-55 -54 -129.5 -85.5t-159.5 -31.5q-84 0 -158.5 31.5t-129.5 85.5q-57 56 -89 129.5t-32 156.5q0 84 32 157.5t89 129.5q55 54 129.5 86t158.5 32q85 0 159.5 -32t129.5 -86
q57 -56 89.5 -129.5t32.5 -157.5zM791 360q0 72 -28.5 136t-74.5 112q-49 48 -113.5 76.5t-137.5 28.5q-72 0 -136.5 -28.5t-113.5 -76.5q-46 -48 -74 -112t-28 -136q0 -71 28 -135t74 -112q49 -48 113.5 -76t136.5 -28q73 0 137.5 28t113.5 76q46 48 74.5 112t28.5 135z
" />
    <glyph glyph-name="uni2469" unicode="&#x2469;" 
d="M462 355q0 -86 23.5 -128.5t63.5 -42.5t65.5 42.5t25.5 128.5q0 83 -25.5 126.5t-65.5 43.5t-63.5 -43.5t-23.5 -126.5zM395 355q0 97 39.5 158.5t114.5 61.5q76 0 117 -61.5t40 -158.5q0 -99 -40.5 -160.5t-116.5 -61.5q-75 0 -114.5 61.5t-39.5 160.5zM267 133v377
l-78 -40v50l84 49h56v-436h-62zM848 360q0 -83 -32.5 -156.5t-89.5 -129.5q-55 -54 -129.5 -85.5t-159.5 -31.5q-84 0 -158.5 31.5t-129.5 85.5q-57 56 -89 129.5t-32 156.5q0 84 32 157.5t89 129.5q55 54 129.5 86t158.5 32q85 0 159.5 -32t129.5 -86q57 -56 89.5 -129.5
t32.5 -157.5zM791 360q0 72 -28.5 136t-74.5 112q-49 48 -113.5 76.5t-137.5 28.5q-72 0 -136.5 -28.5t-113.5 -76.5q-46 -48 -74 -112t-28 -136q0 -71 28 -135t74 -112q49 -48 113.5 -76t136.5 -28q73 0 137.5 28t113.5 76q46 48 74.5 112t28.5 135z" />
    <glyph glyph-name="uni246A" unicode="&#x246a;" 
d="M298 123v393l-88 -37v56l93 44h57v-456h-62zM558 123v393l-88 -37v56l93 44h57v-456h-62zM848 360q0 -83 -32.5 -156.5t-89.5 -129.5q-55 -54 -129.5 -85.5t-159.5 -31.5q-84 0 -158.5 31.5t-129.5 85.5q-57 56 -89 129.5t-32 156.5q0 84 32 157.5t89 129.5
q55 54 129.5 86t158.5 32q85 0 159.5 -32t129.5 -86q57 -56 89.5 -129.5t32.5 -157.5zM791 360q0 72 -28.5 136t-74.5 112q-49 48 -113.5 76.5t-137.5 28.5q-72 0 -136.5 -28.5t-113.5 -76.5q-46 -48 -74 -112t-28 -136q0 -71 28 -135t74 -112q49 -48 113.5 -76t136.5 -28
q73 0 137.5 28t113.5 76q46 48 74.5 112t28.5 135z" />
    <glyph glyph-name="uni246B" unicode="&#x246b;" 
d="M520 523q-58 -5 -110 -30v56q66 32 131 32q56 -3 90.5 -37.5t34.5 -94.5q0 -86 -88 -175l-82 -85h185v-56h-276v34l121 132q40 50 60 80.5t20 62.5q0 39 -23.5 60.5t-62.5 20.5zM275 123v393l-88 -37v56l93 44h57v-456h-62zM848 360q0 -83 -32.5 -156.5t-89.5 -129.5
q-55 -54 -129.5 -85.5t-159.5 -31.5q-84 0 -158.5 31.5t-129.5 85.5q-57 56 -89 129.5t-32 156.5q0 84 32 157.5t89 129.5q55 54 129.5 86t158.5 32q85 0 159.5 -32t129.5 -86q57 -56 89.5 -129.5t32.5 -157.5zM791 360q0 72 -28.5 136t-74.5 112q-49 48 -113.5 76.5
t-137.5 28.5q-72 0 -136.5 -28.5t-113.5 -76.5q-46 -48 -74 -112t-28 -136q0 -71 28 -135t74 -112q49 -48 113.5 -76t136.5 -28q73 0 137.5 28t113.5 76q46 48 74.5 112t28.5 135z" />
    <glyph glyph-name="uni246C" unicode="&#x246c;" 
d="M509 523q-44 0 -86 -12v54q41 11 84 13q75 4 119 -22.5t44 -91.5q0 -70 -78 -105q95 -27 95 -102q0 -69 -48.5 -102t-127.5 -33q-55 0 -98 11v53q48 -9 94 -8q63 0 91 22t28 58q0 39 -34.5 55.5t-85.5 16.5h-35v53h24q122 0 116 77q-4 63 -102 63zM275 123v393l-88 -37
v56l93 44h57v-456h-62zM848 360q0 -83 -32.5 -156.5t-89.5 -129.5q-55 -54 -129.5 -85.5t-159.5 -31.5q-84 0 -158.5 31.5t-129.5 85.5q-57 56 -89 129.5t-32 156.5q0 84 32 157.5t89 129.5q55 54 129.5 86t158.5 32q85 0 159.5 -32t129.5 -86q57 -56 89.5 -129.5
t32.5 -157.5zM791 360q0 72 -28.5 136t-74.5 112q-49 48 -113.5 76.5t-137.5 28.5q-72 0 -136.5 -28.5t-113.5 -76.5q-46 -48 -74 -112t-28 -136q0 -71 28 -135t74 -112q49 -48 113.5 -76t136.5 -28q73 0 137.5 28t113.5 76q46 48 74.5 112t28.5 135z" />
    <glyph glyph-name="uni246D" unicode="&#x246d;" 
d="M583 123v113h-194v40l203 303h51v-291h61v-52h-61v-113h-60zM583 481l-126 -193h126v193zM275 123v393l-88 -37v56l93 44h57v-456h-62zM848 360q0 -83 -32.5 -156.5t-89.5 -129.5q-55 -54 -129.5 -85.5t-159.5 -31.5q-84 0 -158.5 31.5t-129.5 85.5q-57 56 -89 129.5
t-32 156.5q0 84 32 157.5t89 129.5q55 54 129.5 86t158.5 32q85 0 159.5 -32t129.5 -86q57 -56 89.5 -129.5t32.5 -157.5zM791 360q0 72 -28.5 136t-74.5 112q-49 48 -113.5 76.5t-137.5 28.5q-72 0 -136.5 -28.5t-113.5 -76.5q-46 -48 -74 -112t-28 -136q0 -71 28 -135
t74 -112q49 -48 113.5 -76t136.5 -28q73 0 137.5 28t113.5 76q46 48 74.5 112t28.5 135z" />
    <glyph glyph-name="uni246E" unicode="&#x246e;" 
d="M476 399q67 5 109.5 -8.5t67.5 -44.5q28 -31 28 -80q0 -67 -47.5 -105.5t-127.5 -38.5q-60 0 -103 12v54q39 -10 97 -10q62 0 91.5 24t29.5 63q0 45 -33 64.5t-97 19.5q-42 0 -75 -4v235h238v-56h-178v-125zM275 123v393l-88 -37v56l93 44h57v-456h-62zM848 360
q0 -83 -32.5 -156.5t-89.5 -129.5q-55 -54 -129.5 -85.5t-159.5 -31.5q-84 0 -158.5 31.5t-129.5 85.5q-57 56 -89 129.5t-32 156.5q0 84 32 157.5t89 129.5q55 54 129.5 86t158.5 32q85 0 159.5 -32t129.5 -86q57 -56 89.5 -129.5t32.5 -157.5zM791 360q0 72 -28.5 136
t-74.5 112q-49 48 -113.5 76.5t-137.5 28.5q-72 0 -136.5 -28.5t-113.5 -76.5q-46 -48 -74 -112t-28 -136q0 -71 28 -135t74 -112q49 -48 113.5 -76t136.5 -28q73 0 137.5 28t113.5 76q46 48 74.5 112t28.5 135z" />
    <glyph glyph-name="uni2474" unicode="&#x2474;" 
d="M419 111v442l-127 -47v59l131 55h59v-509h-63zM29 361q0 239 156 393l44 -45q-141 -140 -141 -348q0 -222 140 -347l-43 -45q-156 154 -156 392zM848 361q0 -238 -159 -392l-43 44q143 126 143 348q0 208 -144 348l44 45q159 -154 159 -393z" />
    <glyph glyph-name="uni2475" unicode="&#x2475;" 
d="M415 577q-60 -3 -120 -35v61q71 35 139 35q66 0 103.5 -39.5t37.5 -103.5q0 -94 -96 -202l-90 -104h202v-60h-302v37l132 154q44 53 66 93t22 76q0 42 -25.5 66t-68.5 22zM29 361q0 239 156 393l44 -45q-141 -140 -141 -348q0 -222 140 -347l-43 -45q-156 154 -156 392z
M848 361q0 -238 -159 -392l-43 44q143 126 143 348q0 208 -144 348l44 45q159 -154 159 -393z" />
    <glyph glyph-name="uni2476" unicode="&#x2476;" 
d="M407 562q-48 0 -93 -13v60q44 11 90 13q84 4 132 -27.5t48 -101.5q-4 -76 -79 -120q97 -36 97 -119q0 -74 -52 -112t-140 -38q-59 0 -106 11v57q51 -10 102 -9q69 0 100 26.5t31 66.5q0 42 -38 63.5t-95 21.5h-37v58h26q128 0 128 90q-8 73 -114 73zM29 361
q0 239 156 393l44 -45q-141 -140 -141 -348q0 -222 140 -347l-43 -45q-156 154 -156 392zM848 361q0 -238 -159 -392l-43 44q143 126 143 348q0 208 -144 348l44 45q159 -154 159 -393z" />
    <glyph glyph-name="uni2477" unicode="&#x2477;" 
d="M457 94v127h-229v44l238 349h53v-335h64v-58h-64v-127h-62zM457 507l-153 -228h153v228zM29 361q0 239 156 393l44 -45q-141 -140 -141 -348q0 -222 140 -347l-43 -45q-156 154 -156 392zM848 361q0 -238 -159 -392l-43 44q143 126 143 348q0 208 -144 348l44 45
q159 -154 159 -393z" />
    <glyph glyph-name="uni2478" unicode="&#x2478;" 
d="M379 400q75 6 120.5 -8.5t73.5 -47.5q30 -35 30 -92q0 -73 -51.5 -116.5t-140.5 -43.5q-65 0 -112 12v59q42 -11 106 -11q68 0 101 28t33 70q0 49 -36 72t-107 23q-46 0 -82 -4v257h259v-60h-194v-138zM29 361q0 239 156 393l44 -45q-141 -140 -141 -348q0 -222 140 -347
l-43 -45q-156 154 -156 392zM848 361q0 -238 -159 -392l-43 44q143 126 143 348q0 208 -144 348l44 45q159 -154 159 -393z" />
    <glyph glyph-name="uni2479" unicode="&#x2479;" 
d="M29 361q0 239 156 393l44 -45q-141 -140 -141 -348q0 -222 140 -347l-43 -45q-156 154 -156 392zM848 361q0 -238 -159 -392l-43 44q143 126 143 348q0 208 -144 348l44 45q159 -154 159 -393zM424 155q45 0 70 27.5t25 69.5q0 45 -25 69.5t-72 24.5q-22 0 -47 -6
t-49 -18q0 -78 22 -122.5t76 -44.5zM433 404q61 0 105.5 -39.5t44.5 -108.5q0 -79 -45 -120.5t-115 -41.5q-72 0 -118 59t-46 164q0 127 56 207.5t149 87.5q52 5 94 -6v-61q-42 10 -87 7q-121 -7 -142 -176q46 28 104 28z" />
    <glyph glyph-name="uni247A" unicode="&#x247a;" 
d="M278 529v61h309v-52l-187 -449h-69l182 440h-235zM29 361q0 239 156 393l44 -45q-141 -140 -141 -348q0 -222 140 -347l-43 -45q-156 154 -156 392zM848 361q0 -238 -159 -392l-43 44q143 126 143 348q0 208 -144 348l44 45q159 -154 159 -393z" />
    <glyph glyph-name="uni247B" unicode="&#x247b;" 
d="M29 361q0 239 156 393l44 -45q-141 -140 -141 -348q0 -222 140 -347l-43 -45q-156 154 -156 392zM848 361q0 -238 -159 -392l-43 44q143 126 143 348q0 208 -144 348l44 45q159 -154 159 -393zM436 559q-40 0 -63.5 -22.5t-23.5 -59.5q0 -29 21.5 -54.5t65.5 -34.5
q41 9 64.5 34.5t23.5 54.5q0 37 -25 59.5t-63 22.5zM436 96q-71 0 -120 39.5t-49 98.5q0 81 93 124q-75 53 -78 121q0 56 42.5 95t111.5 39q68 0 110.5 -38.5t42.5 -95.5q-3 -68 -78 -121q93 -43 93 -124q0 -59 -48 -98.5t-120 -39.5zM436 148q51 0 77 27.5t26 60.5
q0 35 -29 62t-74 34q-48 -7 -75.5 -34.5t-27.5 -61.5q0 -33 27 -60.5t76 -27.5z" />
    <glyph glyph-name="uni247C" unicode="&#x247c;" 
d="M29 361q0 239 156 393l44 -45q-141 -140 -141 -348q0 -222 140 -347l-43 -45q-156 154 -156 392zM848 361q0 -238 -159 -392l-43 44q143 126 143 348q0 208 -144 348l44 45q159 -154 159 -393zM441 551q-46 0 -69 -31.5t-23 -71.5q0 -45 23.5 -69t69.5 -24q24 0 52 7.5
t47 18.5q0 77 -23 123.5t-77 46.5zM431 298q-64 0 -106 35.5t-42 107.5q0 82 43 126.5t115 44.5q81 0 122.5 -61.5t41.5 -165.5q2 -149 -55 -219t-149 -73q-49 -2 -99 9v63q39 -15 98 -10q70 6 103.5 47.5t33.5 118.5q-53 -23 -106 -23z" />
    <glyph glyph-name="uni247D" unicode="&#x247d;" 
d="M462 355q0 -86 23.5 -128.5t63.5 -42.5t65.5 42.5t25.5 128.5q0 83 -25.5 126.5t-65.5 43.5t-63.5 -43.5t-23.5 -126.5zM395 355q0 97 39.5 158.5t114.5 61.5q76 0 117 -61.5t40 -158.5q0 -99 -40.5 -160.5t-116.5 -61.5q-75 0 -114.5 61.5t-39.5 160.5zM267 133v377
l-78 -40v50l84 49h56v-436h-62zM29 361q0 239 156 393l44 -45q-141 -140 -141 -348q0 -222 140 -347l-43 -45q-156 154 -156 392zM848 361q0 -238 -159 -392l-43 44q143 126 143 348q0 208 -144 348l44 45q159 -154 159 -393z" />
    <glyph glyph-name="uni247E" unicode="&#x247e;" 
d="M298 123v393l-88 -37v56l93 44h57v-456h-62zM558 123v393l-88 -37v56l93 44h57v-456h-62zM29 361q0 239 156 393l44 -45q-141 -140 -141 -348q0 -222 140 -347l-43 -45q-156 154 -156 392zM848 361q0 -238 -159 -392l-43 44q143 126 143 348q0 208 -144 348l44 45
q159 -154 159 -393z" />
    <glyph glyph-name="uni247F" unicode="&#x247f;" 
d="M520 523q-58 -5 -110 -30v56q66 32 131 32q56 -3 90.5 -37.5t34.5 -94.5q0 -86 -88 -175l-82 -85h185v-56h-276v34l121 132q40 50 60 80.5t20 62.5q0 39 -23.5 60.5t-62.5 20.5zM275 123v393l-88 -37v56l93 44h57v-456h-62zM29 361q0 239 156 393l44 -45
q-141 -140 -141 -348q0 -222 140 -347l-43 -45q-156 154 -156 392zM848 361q0 -238 -159 -392l-43 44q143 126 143 348q0 208 -144 348l44 45q159 -154 159 -393z" />
    <glyph glyph-name="uni2480" unicode="&#x2480;" 
d="M509 523q-44 0 -86 -12v54q41 11 84 13q75 4 119 -22.5t44 -91.5q0 -70 -78 -105q95 -27 95 -102q0 -69 -48.5 -102t-127.5 -33q-55 0 -98 11v53q48 -9 94 -8q63 0 91 22t28 58q0 39 -34.5 55.5t-85.5 16.5h-35v53h24q122 0 116 77q-4 63 -102 63zM275 123v393l-88 -37
v56l93 44h57v-456h-62zM29 361q0 239 156 393l44 -45q-141 -140 -141 -348q0 -222 140 -347l-43 -45q-156 154 -156 392zM848 361q0 -238 -159 -392l-43 44q143 126 143 348q0 208 -144 348l44 45q159 -154 159 -393z" />
    <glyph glyph-name="uni2481" unicode="&#x2481;" 
d="M29 361q0 239 156 393l44 -45q-141 -140 -141 -348q0 -222 140 -347l-43 -45q-156 154 -156 392zM848 361q0 -238 -159 -392l-43 44q143 126 143 348q0 208 -144 348l44 45q159 -154 159 -393zM575 123v113h-194v40l203 303h51v-291h61v-52h-61v-113h-60zM575 481
l-126 -193h126v193zM270 123v393l-83 -37v56l88 44h57v-456h-62z" />
    <glyph glyph-name="uni2482" unicode="&#x2482;" 
d="M476 399q67 5 109.5 -8.5t67.5 -44.5q28 -31 28 -80q0 -67 -47.5 -105.5t-127.5 -38.5q-60 0 -103 12v54q39 -10 97 -10q62 0 91.5 24t29.5 63q0 45 -33 64.5t-97 19.5q-42 0 -75 -4v235h238v-56h-178v-125zM275 123v393l-88 -37v56l93 44h57v-456h-62zM29 361
q0 239 156 393l44 -45q-141 -140 -141 -348q0 -222 140 -347l-43 -45q-156 154 -156 392zM848 361q0 -238 -159 -392l-43 44q143 126 143 348q0 208 -144 348l44 45q159 -154 159 -393z" />
    <glyph glyph-name="uni249C" unicode="&#x249c;" 
d="M29 361q0 239 156 393l44 -45q-141 -140 -141 -348q0 -222 140 -347l-43 -45q-156 154 -156 392zM848 361q0 -238 -159 -392l-43 44q143 126 143 348q0 208 -144 348l44 45q159 -154 159 -393zM524 335q-34 9 -57.5 11t-46.5 2q-34 -1 -53 -16q-23 -18 -23 -49
t17.5 -47.5t44.5 -16.5q69 0 118 50v66zM531 209q-56 -50 -133 -51q-59 0 -93 35.5t-34 89.5q0 56 42 93q39 34 99 34q58 0 112 -17v17q0 79 -101 84q-56 1 -105 -9v62q52 13 114 11q69 -2 116 -38q49 -38 49 -116v-236h-66v41z" />
    <glyph glyph-name="uni249D" unicode="&#x249d;" 
d="M29 361q0 239 156 393l44 -45q-141 -140 -141 -348q0 -222 140 -347l-43 -45q-156 154 -156 392zM848 361q0 -238 -159 -392l-43 44q143 126 143 348q0 208 -144 348l44 45q159 -154 159 -393zM460 432h-1q-51 0 -96 -51v-161q42 -56 99 -56q50 0 79 39q28 38 28 94
q0 58 -28 96.5t-81 38.5zM474 100q-66 0 -118 50v-42h-66v519h73v-177q49 48 111 48q71 0 119 -51.5t48 -149.5q0 -91 -48 -144t-119 -53z" />
    <glyph glyph-name="uni249E" unicode="&#x249e;" 
d="M326 360q-1 -57 30 -92q37 -42 108 -42q59 0 97 9v-63q-52 -16 -105 -12q-96 6 -149.5 58.5t-53.5 140.5q0 89 53 141.5t150 57.5q52 4 103 -11v-64q-40 10 -95 10q-71 0 -109 -43q-30 -34 -29 -90zM29 361q0 239 156 393l44 -45q-141 -140 -141 -348q0 -222 140 -347
l-43 -45q-156 154 -156 392zM848 361q0 -238 -159 -392l-43 44q143 126 143 348q0 208 -144 348l44 45q159 -154 159 -393z" />
    <glyph glyph-name="uni249F" unicode="&#x249f;" 
d="M29 361q0 239 156 393l44 -45q-141 -140 -141 -348q0 -222 140 -347l-43 -45q-156 154 -156 392zM848 361q0 -238 -159 -392l-43 44q143 126 143 348q0 208 -144 348l44 45q159 -154 159 -393zM412 432h1q51 0 96 -51v-161q-42 -56 -99 -56q-50 0 -79 39q-28 38 -28 94
q0 58 28 96.5t81 38.5zM398 100q66 0 118 50v-42h66v519h-73v-177q-49 48 -111 48q-71 0 -119 -51.5t-48 -149.5q0 -91 48 -144t119 -53z" />
    <glyph glyph-name="uni24A0" unicode="&#x24a0;" 
d="M339 383h193q-1 53 -25 82.5t-72 29.5q-45 0 -69.5 -29.5t-26.5 -82.5zM337 324q8 -50 37.5 -75.5t80.5 -26.5q61 -3 130 13v-62q-63 -19 -130 -15q-86 1 -137 51t-51 148q0 94 48.5 148t119.5 54q73 0 121.5 -54.5t48.5 -143.5v-37h-268zM29 361q0 239 156 393l44 -45
q-141 -140 -141 -348q0 -222 140 -347l-43 -45q-156 154 -156 392zM848 361q0 -238 -159 -392l-43 44q143 126 143 348q0 208 -144 348l44 45q159 -154 159 -393z" />
    <glyph glyph-name="uni24A1" unicode="&#x24a1;" 
d="M539 444v-63h-97v-299h-68v299h-70v63h70v6q0 56 10 84.5t30 47.5q19 18 44.5 27.5t55.5 9.5q16 0 36 -5v-60q-13 3 -26 3q-20 0 -35.5 -5.5t-26.5 -15.5q-10 -12 -15 -28.5t-5 -56.5v-7h97zM29 361q0 239 156 393l44 -45q-141 -140 -141 -348q0 -222 140 -347l-43 -45
q-156 154 -156 392zM848 361q0 -238 -159 -392l-43 44q143 126 143 348q0 208 -144 348l44 45q159 -154 159 -393z" />
    <glyph glyph-name="uni24A2" unicode="&#x24a2;" 
d="M29 361q0 239 156 393l44 -45q-141 -140 -141 -348q0 -222 140 -347l-43 -45q-156 154 -156 392zM848 361q0 -238 -159 -392l-43 44q143 126 143 348q0 208 -144 348l44 45q159 -154 159 -393zM435 291q58 0 98 60v149q-48 50 -99 50q-49 0 -77.5 -40t-28.5 -92
q0 -53 29.5 -90t77.5 -37zM536 280q-61 -55 -116 -55q-71 0 -114 49q-51 55 -51 144q0 87 50 147q44 51 115 51q66 0 120 -55v44h65v-330q0 -111 -50 -156q-53 -46 -142 -47q-61 -1 -113 10v60q49 -12 110 -10q63 2 93 27t33 80v41z" />
    <glyph glyph-name="uni24A3" unicode="&#x24a3;" 
d="M277 616h72v-229q57 64 118 64q56 0 99.5 -36.5t43.5 -118.5v-186h-72v191q0 84 -89 84q-58 -1 -100 -75v-200h-72v506zM29 361q0 239 156 393l44 -45q-141 -140 -141 -348q0 -222 140 -347l-43 -45q-156 154 -156 392zM848 361q0 -238 -159 -392l-43 44q143 126 143 348
q0 208 -144 348l44 45q159 -154 159 -393z" />
    <glyph glyph-name="uni24A4" unicode="&#x24a4;" 
d="M400 88v379h72v-379h-72zM398 550v79h76v-79h-76zM29 361q0 239 156 393l44 -45q-141 -140 -141 -348q0 -222 140 -347l-43 -45q-156 154 -156 392zM848 361q0 -238 -159 -392l-43 44q143 126 143 348q0 208 -144 348l44 45q159 -154 159 -393z" />
    <glyph glyph-name="uni24A5" unicode="&#x24a5;" 
d="M419 215v263h73v-248q0 -72 -29 -103.5t-91 -34.5q-24 -3 -60 6v65q59 -13 87 2q20 15 20 50zM417 553v79h77v-79h-77zM29 361q0 239 156 393l44 -45q-141 -140 -141 -348q0 -222 140 -347l-43 -45q-156 154 -156 392zM848 361q0 -238 -159 -392l-43 44q143 126 143 348
q0 208 -144 348l44 45q159 -154 159 -393z" />
    <glyph glyph-name="uni24A6" unicode="&#x24a6;" 
d="M357 612v-278l168 175h88l-178 -187l178 -192h-88l-168 181v-181h-73v482h73zM29 361q0 239 156 393l44 -45q-141 -140 -141 -348q0 -222 140 -347l-43 -45q-156 154 -156 392zM848 361q0 -238 -159 -392l-43 44q143 126 143 348q0 208 -144 348l44 45q159 -154 159 -393
z" />
    <glyph glyph-name="uni24A7" unicode="&#x24a7;" 
d="M399 84v550h73v-550h-73zM29 361q0 239 156 393l44 -45q-141 -140 -141 -348q0 -222 140 -347l-43 -45q-156 154 -156 392zM848 361q0 -238 -159 -392l-43 44q143 126 143 348q0 208 -144 348l44 45q159 -154 159 -393z" />
    <glyph glyph-name="uni24A8" unicode="&#x24a8;" 
d="M404 387q0 105 -76 105q-75 0 -75 -105v-218h-67v219q0 79 33 124.5t105 45.5q68 0 110 -56q43 56 109 56q74 0 109.5 -45.5t35.5 -124.5v-219h-67v218q0 105 -76 105t-76 -105v-218h-65v218zM29 361q0 239 156 393l44 -45q-141 -140 -141 -348q0 -222 140 -347l-43 -45
q-156 154 -156 392zM848 361q0 -238 -159 -392l-43 44q143 126 143 348q0 208 -144 348l44 45q159 -154 159 -393z" />
    <glyph glyph-name="uni24A9" unicode="&#x24a9;" 
d="M269 401q0 80 43.5 119t122.5 39q78 0 122.5 -41t44.5 -116v-231h-72v235q0 87 -95 87q-94 0 -94 -87v-235h-72v230zM29 361q0 239 156 393l44 -45q-141 -140 -141 -348q0 -222 140 -347l-43 -45q-156 154 -156 392zM848 361q0 -238 -159 -392l-43 44q143 126 143 348
q0 208 -144 348l44 45q159 -154 159 -393z" />
    <glyph glyph-name="uni24AA" unicode="&#x24aa;" 
d="M634 359q0 -90 -58 -145.5t-142 -55.5q-83 0 -140.5 55.5t-57.5 145.5q0 91 57.5 147t140.5 56q84 0 142 -56t58 -147zM308 359q0 -61 34.5 -98.5t91.5 -37.5t92.5 37.5t35.5 98.5q0 62 -35.5 100t-92.5 38t-91.5 -38t-34.5 -100zM29 361q0 239 156 393l44 -45
q-141 -140 -141 -348q0 -222 140 -347l-43 -45q-156 154 -156 392zM848 361q0 -238 -159 -392l-43 44q143 126 143 348q0 208 -144 348l44 45q159 -154 159 -393z" />
    <glyph glyph-name="uni24AB" unicode="&#x24ab;" 
d="M452 272q53 0 81 38t28 95t-28 95q-27 40 -79 40q-57 -1 -99 -57v-162q47 -49 96 -49h1zM466 606q71 0 119 -53t48 -148q0 -97 -48 -148t-119 -51q-58 0 -111 47v-172h-73v515h66v-45q58 55 118 55zM29 361q0 239 156 393l44 -45q-141 -140 -141 -348q0 -222 140 -347
l-43 -45q-156 154 -156 392zM848 361q0 -238 -159 -392l-43 44q143 126 143 348q0 208 -144 348l44 45q159 -154 159 -393z" />
    <glyph glyph-name="uni24AC" unicode="&#x24ac;" 
d="M29 361q0 239 156 393l44 -45q-141 -140 -141 -348q0 -222 140 -347l-43 -45q-156 154 -156 392zM848 361q0 -238 -159 -392l-43 44q143 126 143 348q0 208 -144 348l44 45q159 -154 159 -393zM420 272q-53 0 -81 38t-28 95t28 95q27 40 79 40q57 -1 99 -57v-162
q-47 -49 -96 -49h-1zM406 606q-71 0 -119 -53t-48 -148q0 -97 48 -148t119 -51q58 0 111 47v-172h73v515h-66v-45q-58 55 -118 55z" />
    <glyph glyph-name="uni24AD" unicode="&#x24ad;" 
d="M29 361q0 239 156 393l44 -45q-141 -140 -141 -348q0 -222 140 -347l-43 -45q-156 154 -156 392zM848 361q0 -238 -159 -392l-43 44q143 126 143 348q0 208 -144 348l44 45q159 -154 159 -393zM354 531h66v-70q50 76 112 76h34v-64h-34q-62 0 -106 -81v-240h-72v379z" />
    <glyph glyph-name="uni24AE" unicode="&#x24ae;" 
d="M364 453q0 -22 12 -35q16 -15 76 -29l62 -14q36 -10 57 -34t21 -64q0 -49 -43 -84q-42 -34 -129 -37q-66 -4 -121 10v57q53 -10 121 -9q48 3 75 16q29 17 30 43q0 38 -53 52l-56 13q-123 26 -123 105q0 49 42.5 82.5t114.5 35.5q57 3 107 -10v-57q-58 10 -114 8
q-76 -3 -79 -49zM29 361q0 239 156 393l44 -45q-141 -140 -141 -348q0 -222 140 -347l-43 -45q-156 154 -156 392zM848 361q0 -238 -159 -392l-43 44q143 126 143 348q0 208 -144 348l44 45q159 -154 159 -393z" />
    <glyph glyph-name="uni24AF" unicode="&#x24af;" 
d="M426 246q0 -27 2 -36q3 -9 10 -17q8 -8 20 -11.5t27 -3.5h56v-64h-70q-27 0 -49 7t-37 22q-15 12 -22 31q-6 20 -7 50v215h-73v63h73v101l70 23v-124h96v-63h-96v-193zM29 361q0 239 156 393l44 -45q-141 -140 -141 -348q0 -222 140 -347l-43 -45q-156 154 -156 392z
M848 361q0 -238 -159 -392l-43 44q143 126 143 348q0 208 -144 348l44 45q159 -154 159 -393z" />
    <glyph glyph-name="uni24B0" unicode="&#x24b0;" 
d="M269 296v232h72v-235q0 -87 94 -87q95 0 95 87v235h72v-233q0 -74 -44.5 -114.5t-122.5 -40.5q-79 0 -122.5 38t-43.5 118zM29 361q0 239 156 393l44 -45q-141 -140 -141 -348q0 -222 140 -347l-43 -45q-156 154 -156 392zM848 361q0 -238 -159 -392l-43 44
q143 126 143 348q0 208 -144 348l44 45q159 -154 159 -393z" />
    <glyph glyph-name="uni24B1" unicode="&#x24b1;" 
d="M29 361q0 239 156 393l44 -45q-141 -140 -141 -348q0 -222 140 -347l-43 -45q-156 154 -156 392zM848 361q0 -238 -159 -392l-43 44q143 126 143 348q0 208 -144 348l44 45q159 -154 159 -393zM471 140h-70l-157 380h72l121 -303l120 303h73z" />
    <glyph glyph-name="uni24B2" unicode="&#x24b2;" 
d="M29 361q0 239 156 393l44 -45q-141 -140 -141 -348q0 -222 140 -347l-43 -45q-156 154 -156 392zM848 361q0 -238 -159 -392l-43 44q143 126 143 348q0 208 -144 348l44 45q159 -154 159 -393zM438 441l-68 -289h-55l-105 388h61l71 -295l70 295h50l73 -294l73 294h61
l-109 -388h-55z" />
    <glyph glyph-name="uni24B3" unicode="&#x24b3;" 
d="M435 414l94 135h84l-132 -189l138 -191h-84l-100 139l-100 -139h-84l139 193l-134 187h83zM29 361q0 239 156 393l44 -45q-141 -140 -141 -348q0 -222 140 -347l-43 -45q-156 154 -156 392zM848 361q0 -238 -159 -392l-43 44q143 126 143 348q0 208 -144 348l44 45
q159 -154 159 -393z" />
    <glyph glyph-name="uni24B4" unicode="&#x24b4;" 
d="M256 588h73l115 -272l115 272h68l-218 -511h-68l67 156zM29 361q0 239 156 393l44 -45q-141 -140 -141 -348q0 -222 140 -347l-43 -45q-156 154 -156 392zM848 361q0 -238 -159 -392l-43 44q143 126 143 348q0 208 -144 348l44 45q159 -154 159 -393z" />
    <glyph glyph-name="uni24B5" unicode="&#x24b5;" 
d="M490 488h-202v61h288v-62l-196 -257h210v-61h-308v40zM29 361q0 239 156 393l44 -45q-141 -140 -141 -348q0 -222 140 -347l-43 -45q-156 154 -156 392zM848 361q0 -238 -159 -392l-43 44q143 126 143 348q0 208 -144 348l44 45q159 -154 159 -393z" />
    <glyph glyph-name="uni24D0" unicode="&#x24d0;" 
d="M524 335q-34 9 -57.5 11t-46.5 2q-34 -1 -53 -16q-23 -18 -23 -49t17.5 -47.5t44.5 -16.5q69 0 118 50v66zM531 209q-56 -50 -133 -51q-59 0 -93 35.5t-34 89.5q0 56 42 93q39 34 99 34q58 0 112 -17v17q0 79 -101 84q-56 1 -105 -9v62q52 13 114 11q69 -2 116 -38
q49 -38 49 -116v-236h-66v41zM848 360q0 -83 -32.5 -156.5t-89.5 -129.5q-55 -54 -129.5 -85.5t-159.5 -31.5q-84 0 -158.5 31.5t-129.5 85.5q-57 56 -89 129.5t-32 156.5q0 84 32 157.5t89 129.5q55 54 129.5 86t158.5 32q85 0 159.5 -32t129.5 -86q57 -56 89.5 -129.5
t32.5 -157.5zM791 360q0 72 -28.5 136t-74.5 112q-49 48 -113.5 76.5t-137.5 28.5q-72 0 -136.5 -28.5t-113.5 -76.5q-46 -48 -74 -112t-28 -136q0 -71 28 -135t74 -112q49 -48 113.5 -76t136.5 -28q73 0 137.5 28t113.5 76q46 48 74.5 112t28.5 135z" />
    <glyph glyph-name="uni24D1" unicode="&#x24d1;" 
d="M460 432h-1q-51 0 -96 -51v-161q42 -56 99 -56q50 0 79 39q28 38 28 94q0 58 -28 96.5t-81 38.5zM474 100q-66 0 -118 50v-42h-66v519h73v-177q49 48 111 48q71 0 119 -51.5t48 -149.5q0 -91 -48 -144t-119 -53zM848 360q0 -83 -32.5 -156.5t-89.5 -129.5
q-55 -54 -129.5 -85.5t-159.5 -31.5q-84 0 -158.5 31.5t-129.5 85.5q-57 56 -89 129.5t-32 156.5q0 84 32 157.5t89 129.5q55 54 129.5 86t158.5 32q85 0 159.5 -32t129.5 -86q57 -56 89.5 -129.5t32.5 -157.5zM791 360q0 72 -28.5 136t-74.5 112q-49 48 -113.5 76.5
t-137.5 28.5q-72 0 -136.5 -28.5t-113.5 -76.5q-46 -48 -74 -112t-28 -136q0 -71 28 -135t74 -112q49 -48 113.5 -76t136.5 -28q73 0 137.5 28t113.5 76q46 48 74.5 112t28.5 135z" />
    <glyph glyph-name="uni24D2" unicode="&#x24d2;" 
d="M326 360q-1 -57 30 -92q37 -42 108 -42q59 0 97 9v-63q-52 -16 -105 -12q-96 6 -149.5 58.5t-53.5 140.5q0 89 53 141.5t150 57.5q52 4 103 -11v-64q-40 10 -95 10q-71 0 -109 -43q-30 -34 -29 -90zM848 360q0 -83 -32.5 -156.5t-89.5 -129.5q-55 -54 -129.5 -85.5
t-159.5 -31.5q-84 0 -158.5 31.5t-129.5 85.5q-57 56 -89 129.5t-32 156.5q0 84 32 157.5t89 129.5q55 54 129.5 86t158.5 32q85 0 159.5 -32t129.5 -86q57 -56 89.5 -129.5t32.5 -157.5zM791 360q0 72 -28.5 136t-74.5 112q-49 48 -113.5 76.5t-137.5 28.5
q-72 0 -136.5 -28.5t-113.5 -76.5q-46 -48 -74 -112t-28 -136q0 -71 28 -135t74 -112q49 -48 113.5 -76t136.5 -28q73 0 137.5 28t113.5 76q46 48 74.5 112t28.5 135z" />
    <glyph glyph-name="uni24D3" unicode="&#x24d3;" 
d="M848 360q0 -83 -32.5 -156.5t-89.5 -129.5q-55 -54 -129.5 -85.5t-159.5 -31.5q-84 0 -158.5 31.5t-129.5 85.5q-57 56 -89 129.5t-32 156.5q0 84 32 157.5t89 129.5q55 54 129.5 86t158.5 32q85 0 159.5 -32t129.5 -86q57 -56 89.5 -129.5t32.5 -157.5zM791 360
q0 72 -28.5 136t-74.5 112q-49 48 -113.5 76.5t-137.5 28.5q-72 0 -136.5 -28.5t-113.5 -76.5q-46 -48 -74 -112t-28 -136q0 -71 28 -135t74 -112q49 -48 113.5 -76t136.5 -28q73 0 137.5 28t113.5 76q46 48 74.5 112t28.5 135zM412 432h1q51 0 96 -51v-161q-42 -56 -99 -56
q-50 0 -79 39q-28 38 -28 94q0 58 28 96.5t81 38.5zM398 100q66 0 118 50v-42h66v519h-73v-177q-49 48 -111 48q-71 0 -119 -51.5t-48 -149.5q0 -91 48 -144t119 -53z" />
    <glyph glyph-name="uni24D4" unicode="&#x24d4;" 
d="M339 383h193q-1 53 -25 82.5t-72 29.5q-45 0 -69.5 -29.5t-26.5 -82.5zM337 324q8 -50 37.5 -75.5t80.5 -26.5q61 -3 130 13v-62q-63 -19 -130 -15q-86 1 -137 51t-51 148q0 94 48.5 148t119.5 54q73 0 121.5 -54.5t48.5 -143.5v-37h-268zM848 360q0 -83 -32.5 -156.5
t-89.5 -129.5q-55 -54 -129.5 -85.5t-159.5 -31.5q-84 0 -158.5 31.5t-129.5 85.5q-57 56 -89 129.5t-32 156.5q0 84 32 157.5t89 129.5q55 54 129.5 86t158.5 32q85 0 159.5 -32t129.5 -86q57 -56 89.5 -129.5t32.5 -157.5zM791 360q0 72 -28.5 136t-74.5 112
q-49 48 -113.5 76.5t-137.5 28.5q-72 0 -136.5 -28.5t-113.5 -76.5q-46 -48 -74 -112t-28 -136q0 -71 28 -135t74 -112q49 -48 113.5 -76t136.5 -28q73 0 137.5 28t113.5 76q46 48 74.5 112t28.5 135z" />
    <glyph glyph-name="uni24D5" unicode="&#x24d5;" 
d="M539 444v-63h-97v-299h-68v299h-70v63h70v6q0 56 10 84.5t30 47.5q19 18 44.5 27.5t55.5 9.5q16 0 36 -5v-60q-13 3 -26 3q-20 0 -35.5 -5.5t-26.5 -15.5q-10 -12 -15 -28.5t-5 -56.5v-7h97zM848 360q0 -83 -32.5 -156.5t-89.5 -129.5q-55 -54 -129.5 -85.5t-159.5 -31.5
q-84 0 -158.5 31.5t-129.5 85.5q-57 56 -89 129.5t-32 156.5q0 84 32 157.5t89 129.5q55 54 129.5 86t158.5 32q85 0 159.5 -32t129.5 -86q57 -56 89.5 -129.5t32.5 -157.5zM791 360q0 72 -28.5 136t-74.5 112q-49 48 -113.5 76.5t-137.5 28.5q-72 0 -136.5 -28.5
t-113.5 -76.5q-46 -48 -74 -112t-28 -136q0 -71 28 -135t74 -112q49 -48 113.5 -76t136.5 -28q73 0 137.5 28t113.5 76q46 48 74.5 112t28.5 135z" />
    <glyph glyph-name="uni24D6" unicode="&#x24d6;" 
d="M435 291q58 0 98 60v149q-48 50 -99 50q-49 0 -77.5 -40t-28.5 -92q0 -53 29.5 -90t77.5 -37zM536 280q-61 -55 -116 -55q-71 0 -114 49q-51 55 -51 144q0 87 50 147q44 51 115 51q66 0 120 -55v44h65v-330q0 -111 -50 -156q-53 -46 -142 -47q-61 -1 -113 10v60
q49 -12 110 -10q63 2 93 27t33 80v41zM848 360q0 -83 -32.5 -156.5t-89.5 -129.5q-55 -54 -129.5 -85.5t-159.5 -31.5q-84 0 -158.5 31.5t-129.5 85.5q-57 56 -89 129.5t-32 156.5q0 84 32 157.5t89 129.5q55 54 129.5 86t158.5 32q85 0 159.5 -32t129.5 -86
q57 -56 89.5 -129.5t32.5 -157.5zM791 360q0 72 -28.5 136t-74.5 112q-49 48 -113.5 76.5t-137.5 28.5q-72 0 -136.5 -28.5t-113.5 -76.5q-46 -48 -74 -112t-28 -136q0 -71 28 -135t74 -112q49 -48 113.5 -76t136.5 -28q73 0 137.5 28t113.5 76q46 48 74.5 112t28.5 135z
" />
    <glyph glyph-name="uni24D7" unicode="&#x24d7;" 
d="M277 616h72v-229q57 64 118 64q56 0 99.5 -36.5t43.5 -118.5v-186h-72v191q0 84 -89 84q-58 -1 -100 -75v-200h-72v506zM848 360q0 -83 -32.5 -156.5t-89.5 -129.5q-55 -54 -129.5 -85.5t-159.5 -31.5q-84 0 -158.5 31.5t-129.5 85.5q-57 56 -89 129.5t-32 156.5
q0 84 32 157.5t89 129.5q55 54 129.5 86t158.5 32q85 0 159.5 -32t129.5 -86q57 -56 89.5 -129.5t32.5 -157.5zM791 360q0 72 -28.5 136t-74.5 112q-49 48 -113.5 76.5t-137.5 28.5q-72 0 -136.5 -28.5t-113.5 -76.5q-46 -48 -74 -112t-28 -136q0 -71 28 -135t74 -112
q49 -48 113.5 -76t136.5 -28q73 0 137.5 28t113.5 76q46 48 74.5 112t28.5 135z" />
    <glyph glyph-name="uni24D8" unicode="&#x24d8;" 
d="M400 88v379h72v-379h-72zM398 550v79h76v-79h-76zM848 360q0 -83 -32.5 -156.5t-89.5 -129.5q-55 -54 -129.5 -85.5t-159.5 -31.5q-84 0 -158.5 31.5t-129.5 85.5q-57 56 -89 129.5t-32 156.5q0 84 32 157.5t89 129.5q55 54 129.5 86t158.5 32q85 0 159.5 -32t129.5 -86
q57 -56 89.5 -129.5t32.5 -157.5zM791 360q0 72 -28.5 136t-74.5 112q-49 48 -113.5 76.5t-137.5 28.5q-72 0 -136.5 -28.5t-113.5 -76.5q-46 -48 -74 -112t-28 -136q0 -71 28 -135t74 -112q49 -48 113.5 -76t136.5 -28q73 0 137.5 28t113.5 76q46 48 74.5 112t28.5 135z
" />
    <glyph glyph-name="uni24D9" unicode="&#x24d9;" 
d="M419 215v263h73v-248q0 -72 -29 -103.5t-91 -34.5q-24 -3 -60 6v65q59 -13 87 2q20 15 20 50zM417 553v79h77v-79h-77zM848 360q0 -83 -32.5 -156.5t-89.5 -129.5q-55 -54 -129.5 -85.5t-159.5 -31.5q-84 0 -158.5 31.5t-129.5 85.5q-57 56 -89 129.5t-32 156.5
q0 84 32 157.5t89 129.5q55 54 129.5 86t158.5 32q85 0 159.5 -32t129.5 -86q57 -56 89.5 -129.5t32.5 -157.5zM791 360q0 72 -28.5 136t-74.5 112q-49 48 -113.5 76.5t-137.5 28.5q-72 0 -136.5 -28.5t-113.5 -76.5q-46 -48 -74 -112t-28 -136q0 -71 28 -135t74 -112
q49 -48 113.5 -76t136.5 -28q73 0 137.5 28t113.5 76q46 48 74.5 112t28.5 135z" />
    <glyph glyph-name="uni24DA" unicode="&#x24da;" 
d="M357 612v-278l168 175h88l-178 -187l178 -192h-88l-168 181v-181h-73v482h73zM848 360q0 -83 -32.5 -156.5t-89.5 -129.5q-55 -54 -129.5 -85.5t-159.5 -31.5q-84 0 -158.5 31.5t-129.5 85.5q-57 56 -89 129.5t-32 156.5q0 84 32 157.5t89 129.5q55 54 129.5 86t158.5 32
q85 0 159.5 -32t129.5 -86q57 -56 89.5 -129.5t32.5 -157.5zM791 360q0 72 -28.5 136t-74.5 112q-49 48 -113.5 76.5t-137.5 28.5q-72 0 -136.5 -28.5t-113.5 -76.5q-46 -48 -74 -112t-28 -136q0 -71 28 -135t74 -112q49 -48 113.5 -76t136.5 -28q73 0 137.5 28t113.5 76
q46 48 74.5 112t28.5 135z" />
    <glyph glyph-name="uni24DB" unicode="&#x24db;" 
d="M399 84v550h73v-550h-73zM848 360q0 -83 -32.5 -156.5t-89.5 -129.5q-55 -54 -129.5 -85.5t-159.5 -31.5q-84 0 -158.5 31.5t-129.5 85.5q-57 56 -89 129.5t-32 156.5q0 84 32 157.5t89 129.5q55 54 129.5 86t158.5 32q85 0 159.5 -32t129.5 -86q57 -56 89.5 -129.5
t32.5 -157.5zM791 360q0 72 -28.5 136t-74.5 112q-49 48 -113.5 76.5t-137.5 28.5q-72 0 -136.5 -28.5t-113.5 -76.5q-46 -48 -74 -112t-28 -136q0 -71 28 -135t74 -112q49 -48 113.5 -76t136.5 -28q73 0 137.5 28t113.5 76q46 48 74.5 112t28.5 135z" />
    <glyph glyph-name="uni24DC" unicode="&#x24dc;" 
d="M404 387q0 105 -76 105q-75 0 -75 -105v-218h-67v219q0 79 33 124.5t105 45.5q68 0 110 -56q43 56 109 56q74 0 109.5 -45.5t35.5 -124.5v-219h-67v218q0 105 -76 105t-76 -105v-218h-65v218zM848 360q0 -83 -32.5 -156.5t-89.5 -129.5q-55 -54 -129.5 -85.5
t-159.5 -31.5q-84 0 -158.5 31.5t-129.5 85.5q-57 56 -89 129.5t-32 156.5q0 84 32 157.5t89 129.5q55 54 129.5 86t158.5 32q85 0 159.5 -32t129.5 -86q57 -56 89.5 -129.5t32.5 -157.5zM791 360q0 72 -28.5 136t-74.5 112q-49 48 -113.5 76.5t-137.5 28.5
q-72 0 -136.5 -28.5t-113.5 -76.5q-46 -48 -74 -112t-28 -136q0 -71 28 -135t74 -112q49 -48 113.5 -76t136.5 -28q73 0 137.5 28t113.5 76q46 48 74.5 112t28.5 135z" />
    <glyph glyph-name="uni24DD" unicode="&#x24dd;" 
d="M269 401q0 80 43.5 119t122.5 39q78 0 122.5 -41t44.5 -116v-231h-72v235q0 87 -95 87q-94 0 -94 -87v-235h-72v230zM848 360q0 -83 -32.5 -156.5t-89.5 -129.5q-55 -54 -129.5 -85.5t-159.5 -31.5q-84 0 -158.5 31.5t-129.5 85.5q-57 56 -89 129.5t-32 156.5
q0 84 32 157.5t89 129.5q55 54 129.5 86t158.5 32q85 0 159.5 -32t129.5 -86q57 -56 89.5 -129.5t32.5 -157.5zM791 360q0 72 -28.5 136t-74.5 112q-49 48 -113.5 76.5t-137.5 28.5q-72 0 -136.5 -28.5t-113.5 -76.5q-46 -48 -74 -112t-28 -136q0 -71 28 -135t74 -112
q49 -48 113.5 -76t136.5 -28q73 0 137.5 28t113.5 76q46 48 74.5 112t28.5 135z" />
    <glyph glyph-name="uni24DE" unicode="&#x24de;" 
d="M634 359q0 -90 -58 -145.5t-142 -55.5q-83 0 -140.5 55.5t-57.5 145.5q0 91 57.5 147t140.5 56q84 0 142 -56t58 -147zM308 359q0 -61 34.5 -98.5t91.5 -37.5t92.5 37.5t35.5 98.5q0 62 -35.5 100t-92.5 38t-91.5 -38t-34.5 -100zM848 360q0 -83 -32.5 -156.5
t-89.5 -129.5q-55 -54 -129.5 -85.5t-159.5 -31.5q-84 0 -158.5 31.5t-129.5 85.5q-57 56 -89 129.5t-32 156.5q0 84 32 157.5t89 129.5q55 54 129.5 86t158.5 32q85 0 159.5 -32t129.5 -86q57 -56 89.5 -129.5t32.5 -157.5zM791 360q0 72 -28.5 136t-74.5 112
q-49 48 -113.5 76.5t-137.5 28.5q-72 0 -136.5 -28.5t-113.5 -76.5q-46 -48 -74 -112t-28 -136q0 -71 28 -135t74 -112q49 -48 113.5 -76t136.5 -28q73 0 137.5 28t113.5 76q46 48 74.5 112t28.5 135z" />
    <glyph glyph-name="uni24DF" unicode="&#x24df;" 
d="M848 360q0 -83 -32.5 -156.5t-89.5 -129.5q-55 -54 -129.5 -85.5t-159.5 -31.5q-84 0 -158.5 31.5t-129.5 85.5q-57 56 -89 129.5t-32 156.5q0 84 32 157.5t89 129.5q55 54 129.5 86t158.5 32q85 0 159.5 -32t129.5 -86q57 -56 89.5 -129.5t32.5 -157.5zM791 360
q0 72 -28.5 136t-74.5 112q-49 48 -113.5 76.5t-137.5 28.5q-72 0 -136.5 -28.5t-113.5 -76.5q-46 -48 -74 -112t-28 -136q0 -71 28 -135t74 -112q49 -48 113.5 -76t136.5 -28q73 0 137.5 28t113.5 76q46 48 74.5 112t28.5 135zM452 272q53 0 81 38t28 95t-28 95
q-27 40 -79 40q-57 -1 -99 -57v-162q47 -49 96 -49h1zM466 606q71 0 119 -53t48 -148q0 -97 -48 -148t-119 -51q-58 0 -111 47v-172h-73v515h66v-45q58 55 118 55z" />
    <glyph glyph-name="uni24E0" unicode="&#x24e0;" 
d="M848 360q0 -83 -32.5 -156.5t-89.5 -129.5q-55 -54 -129.5 -85.5t-159.5 -31.5q-84 0 -158.5 31.5t-129.5 85.5q-57 56 -89 129.5t-32 156.5q0 84 32 157.5t89 129.5q55 54 129.5 86t158.5 32q85 0 159.5 -32t129.5 -86q57 -56 89.5 -129.5t32.5 -157.5zM791 360
q0 72 -28.5 136t-74.5 112q-49 48 -113.5 76.5t-137.5 28.5q-72 0 -136.5 -28.5t-113.5 -76.5q-46 -48 -74 -112t-28 -136q0 -71 28 -135t74 -112q49 -48 113.5 -76t136.5 -28q73 0 137.5 28t113.5 76q46 48 74.5 112t28.5 135zM420 272q-53 0 -81 38t-28 95t28 95
q27 40 79 40q57 -1 99 -57v-162q-47 -49 -96 -49h-1zM406 606q-71 0 -119 -53t-48 -148q0 -97 48 -148t119 -51q58 0 111 47v-172h73v515h-66v-45q-58 55 -118 55z" />
    <glyph glyph-name="uni24E1" unicode="&#x24e1;" 
d="M354 531h66v-70q50 76 112 76h34v-64h-34q-62 0 -106 -81v-240h-72v379zM848 360q0 -83 -32.5 -156.5t-89.5 -129.5q-55 -54 -129.5 -85.5t-159.5 -31.5q-84 0 -158.5 31.5t-129.5 85.5q-57 56 -89 129.5t-32 156.5q0 84 32 157.5t89 129.5q55 54 129.5 86t158.5 32
q85 0 159.5 -32t129.5 -86q57 -56 89.5 -129.5t32.5 -157.5zM791 360q0 72 -28.5 136t-74.5 112q-49 48 -113.5 76.5t-137.5 28.5q-72 0 -136.5 -28.5t-113.5 -76.5q-46 -48 -74 -112t-28 -136q0 -71 28 -135t74 -112q49 -48 113.5 -76t136.5 -28q73 0 137.5 28t113.5 76
q46 48 74.5 112t28.5 135z" />
    <glyph glyph-name="uni24E2" unicode="&#x24e2;" 
d="M848 360q0 -83 -32.5 -156.5t-89.5 -129.5q-55 -54 -129.5 -85.5t-159.5 -31.5q-84 0 -158.5 31.5t-129.5 85.5q-57 56 -89 129.5t-32 156.5q0 84 32 157.5t89 129.5q55 54 129.5 86t158.5 32q85 0 159.5 -32t129.5 -86q57 -56 89.5 -129.5t32.5 -157.5zM791 360
q0 72 -28.5 136t-74.5 112q-49 48 -113.5 76.5t-137.5 28.5q-72 0 -136.5 -28.5t-113.5 -76.5q-46 -48 -74 -112t-28 -136q0 -71 28 -135t74 -112q49 -48 113.5 -76t136.5 -28q73 0 137.5 28t113.5 76q46 48 74.5 112t28.5 135zM364 453q0 -22 12 -35q16 -15 76 -29l62 -14
q36 -10 57 -34t21 -64q0 -49 -43 -84q-42 -34 -129 -37q-66 -4 -121 10v57q53 -10 121 -9q48 3 75 16q29 17 30 43q0 38 -53 52l-56 13q-123 26 -123 105q0 49 42.5 82.5t114.5 35.5q57 3 107 -10v-57q-58 10 -114 8q-76 -3 -79 -49z" />
    <glyph glyph-name="uni24E3" unicode="&#x24e3;" 
d="M426 246q0 -27 2 -36q3 -9 10 -17q8 -8 20 -11.5t27 -3.5h56v-64h-70q-27 0 -49 7t-37 22q-15 12 -22 31q-6 20 -7 50v215h-73v63h73v101l70 23v-124h96v-63h-96v-193zM848 360q0 -83 -32.5 -156.5t-89.5 -129.5q-55 -54 -129.5 -85.5t-159.5 -31.5q-84 0 -158.5 31.5
t-129.5 85.5q-57 56 -89 129.5t-32 156.5q0 84 32 157.5t89 129.5q55 54 129.5 86t158.5 32q85 0 159.5 -32t129.5 -86q57 -56 89.5 -129.5t32.5 -157.5zM791 360q0 72 -28.5 136t-74.5 112q-49 48 -113.5 76.5t-137.5 28.5q-72 0 -136.5 -28.5t-113.5 -76.5
q-46 -48 -74 -112t-28 -136q0 -71 28 -135t74 -112q49 -48 113.5 -76t136.5 -28q73 0 137.5 28t113.5 76q46 48 74.5 112t28.5 135z" />
    <glyph glyph-name="uni24E4" unicode="&#x24e4;" 
d="M269 296v232h72v-235q0 -87 94 -87q95 0 95 87v235h72v-233q0 -74 -44.5 -114.5t-122.5 -40.5q-79 0 -122.5 38t-43.5 118zM848 360q0 -83 -32.5 -156.5t-89.5 -129.5q-55 -54 -129.5 -85.5t-159.5 -31.5q-84 0 -158.5 31.5t-129.5 85.5q-57 56 -89 129.5t-32 156.5
q0 84 32 157.5t89 129.5q55 54 129.5 86t158.5 32q85 0 159.5 -32t129.5 -86q57 -56 89.5 -129.5t32.5 -157.5zM791 360q0 72 -28.5 136t-74.5 112q-49 48 -113.5 76.5t-137.5 28.5q-72 0 -136.5 -28.5t-113.5 -76.5q-46 -48 -74 -112t-28 -136q0 -71 28 -135t74 -112
q49 -48 113.5 -76t136.5 -28q73 0 137.5 28t113.5 76q46 48 74.5 112t28.5 135z" />
    <glyph glyph-name="uni24E5" unicode="&#x24e5;" 
d="M471 140h-70l-157 380h72l121 -303l120 303h73zM848 360q0 -83 -32.5 -156.5t-89.5 -129.5q-55 -54 -129.5 -85.5t-159.5 -31.5q-84 0 -158.5 31.5t-129.5 85.5q-57 56 -89 129.5t-32 156.5q0 84 32 157.5t89 129.5q55 54 129.5 86t158.5 32q85 0 159.5 -32t129.5 -86
q57 -56 89.5 -129.5t32.5 -157.5zM791 360q0 72 -28.5 136t-74.5 112q-49 48 -113.5 76.5t-137.5 28.5q-72 0 -136.5 -28.5t-113.5 -76.5q-46 -48 -74 -112t-28 -136q0 -71 28 -135t74 -112q49 -48 113.5 -76t136.5 -28q73 0 137.5 28t113.5 76q46 48 74.5 112t28.5 135z
" />
    <glyph glyph-name="uni24E6" unicode="&#x24e6;" 
d="M438 442l-67 -290h-56l-105 388h61l71 -295l70 295h50l73 -294l73 294h61l-109 -388h-56zM848 360q0 -83 -32.5 -156.5t-89.5 -129.5q-55 -54 -129.5 -85.5t-159.5 -31.5q-84 0 -158.5 31.5t-129.5 85.5q-57 56 -89 129.5t-32 156.5q0 84 32 157.5t89 129.5
q55 54 129.5 86t158.5 32q85 0 159.5 -32t129.5 -86q57 -56 89.5 -129.5t32.5 -157.5zM791 360q0 72 -28.5 136t-74.5 112q-49 48 -113.5 76.5t-137.5 28.5q-72 0 -136.5 -28.5t-113.5 -76.5q-46 -48 -74 -112t-28 -136q0 -71 28 -135t74 -112q49 -48 113.5 -76t136.5 -28
q73 0 137.5 28t113.5 76q46 48 74.5 112t28.5 135z" />
    <glyph glyph-name="uni24E7" unicode="&#x24e7;" 
d="M435 414l94 135h84l-132 -189l138 -191h-84l-100 139l-100 -139h-84l139 193l-134 187h83zM848 360q0 -83 -32.5 -156.5t-89.5 -129.5q-55 -54 -129.5 -85.5t-159.5 -31.5q-84 0 -158.5 31.5t-129.5 85.5q-57 56 -89 129.5t-32 156.5q0 84 32 157.5t89 129.5
q55 54 129.5 86t158.5 32q85 0 159.5 -32t129.5 -86q57 -56 89.5 -129.5t32.5 -157.5zM791 360q0 72 -28.5 136t-74.5 112q-49 48 -113.5 76.5t-137.5 28.5q-72 0 -136.5 -28.5t-113.5 -76.5q-46 -48 -74 -112t-28 -136q0 -71 28 -135t74 -112q49 -48 113.5 -76t136.5 -28
q73 0 137.5 28t113.5 76q46 48 74.5 112t28.5 135z" />
    <glyph glyph-name="uni24E8" unicode="&#x24e8;" 
d="M256 588h73l115 -272l115 272h68l-218 -511h-68l67 156zM848 360q0 -83 -32.5 -156.5t-89.5 -129.5q-55 -54 -129.5 -85.5t-159.5 -31.5q-84 0 -158.5 31.5t-129.5 85.5q-57 56 -89 129.5t-32 156.5q0 84 32 157.5t89 129.5q55 54 129.5 86t158.5 32q85 0 159.5 -32
t129.5 -86q57 -56 89.5 -129.5t32.5 -157.5zM791 360q0 72 -28.5 136t-74.5 112q-49 48 -113.5 76.5t-137.5 28.5q-72 0 -136.5 -28.5t-113.5 -76.5q-46 -48 -74 -112t-28 -136q0 -71 28 -135t74 -112q49 -48 113.5 -76t136.5 -28q73 0 137.5 28t113.5 76q46 48 74.5 112
t28.5 135z" />
    <glyph glyph-name="uni24E9" unicode="&#x24e9;" 
d="M490 488h-202v61h288v-62l-196 -257h210v-61h-308v40zM848 360q0 -83 -32.5 -156.5t-89.5 -129.5q-55 -54 -129.5 -85.5t-159.5 -31.5q-84 0 -158.5 31.5t-129.5 85.5q-57 56 -89 129.5t-32 156.5q0 84 32 157.5t89 129.5q55 54 129.5 86t158.5 32q85 0 159.5 -32
t129.5 -86q57 -56 89.5 -129.5t32.5 -157.5zM791 360q0 72 -28.5 136t-74.5 112q-49 48 -113.5 76.5t-137.5 28.5q-72 0 -136.5 -28.5t-113.5 -76.5q-46 -48 -74 -112t-28 -136q0 -71 28 -135t74 -112q49 -48 113.5 -76t136.5 -28q73 0 137.5 28t113.5 76q46 48 74.5 112
t28.5 135z" />
    <glyph glyph-name="SF100000" unicode="&#x2500;" 
d="M0 345v26h872v-26h-872z" />
    <glyph glyph-name="uni2501" unicode="&#x2501;" 
d="M0 318v80h872v-80h-872z" />
    <glyph glyph-name="SF110000" unicode="&#x2502;" 
d="M418 858h36v-1000h-36v1000z" />
    <glyph glyph-name="uni2503" unicode="&#x2503;" 
d="M387 858h98v-1000h-98v1000z" />
    <glyph glyph-name="SF010000" unicode="&#x250c;" 
d="M872 371v-26h-418v-487h-36v513h454z" />
    <glyph glyph-name="uni250D" unicode="&#x250d;" 
d="M418 398h454v-80h-418v-460h-36v540z" />
    <glyph glyph-name="uni250E" unicode="&#x250e;" 
d="M872 371v-26h-387v-487h-98v513h485z" />
    <glyph glyph-name="uni250F" unicode="&#x250f;" 
d="M872 398v-80h-387v-460h-98v540h485z" />
    <glyph glyph-name="SF030000" unicode="&#x2510;" 
d="M454 -142h-36v487h-418v26h454v-513z" />
    <glyph glyph-name="uni2511" unicode="&#x2511;" 
d="M454 -142h-36v460h-418v80h454v-540z" />
    <glyph glyph-name="uni2512" unicode="&#x2512;" 
d="M485 371v-513h-98v487h-387v26h485z" />
    <glyph glyph-name="uni2513" unicode="&#x2513;" 
d="M485 -142h-98v460h-387v80h485v-540z" />
    <glyph glyph-name="SF020000" unicode="&#x2514;" 
d="M418 858h36v-487h418v-26h-454v513z" />
    <glyph glyph-name="uni2515" unicode="&#x2515;" 
d="M418 858h36v-460h418v-80h-454v540z" />
    <glyph glyph-name="uni2516" unicode="&#x2516;" 
d="M387 345v513h98v-487h387v-26h-485z" />
    <glyph glyph-name="uni2517" unicode="&#x2517;" 
d="M387 858h98v-460h387v-80h-485v540z" />
    <glyph glyph-name="SF040000" unicode="&#x2518;" 
d="M454 858v-513h-454v26h418v487h36z" />
    <glyph glyph-name="uni2519" unicode="&#x2519;" 
d="M454 318h-454v80h418v460h36v-540z" />
    <glyph glyph-name="uni251A" unicode="&#x251a;" 
d="M0 345v26h387v487h98v-513h-485z" />
    <glyph glyph-name="uni251B" unicode="&#x251b;" 
d="M0 318v80h387v460h98v-540h-485z" />
    <glyph glyph-name="SF080000" unicode="&#x251c;" 
d="M419 858h36v-487h418v-26h-418v-487h-36v1000z" />
    <glyph glyph-name="uni251D" unicode="&#x251d;" 
d="M418 858h36v-460h418v-80h-418v-460h-36v1000z" />
    <glyph glyph-name="uni251E" unicode="&#x251e;" 
d="M417 359h-31v499h98v-487h388v-26h-419v-487h-36v501z" />
    <glyph glyph-name="uni251F" unicode="&#x251f;" 
d="M418 858h36v-487h418v-26h-387v-487h-98v500h31v500z" />
    <glyph glyph-name="uni2520" unicode="&#x2520;" 
d="M388 858h98v-487h386v-26h-386v-487h-98v1000z" />
    <glyph glyph-name="uni2521" unicode="&#x2521;" 
d="M454 318v-460h-36v500h-31v500h98v-460h387v-80h-418z" />
    <glyph glyph-name="uni2522" unicode="&#x2522;" 
d="M418 358v500h36v-460h418v-80h-387v-460h-98v500h31z" />
    <glyph glyph-name="uni2523" unicode="&#x2523;" 
d="M387 858h98v-460h387v-80h-387v-460h-98v1000z" />
    <glyph glyph-name="SF090000" unicode="&#x2524;" 
d="M454 -142h-36v487h-418v26h418v487h36v-1000z" />
    <glyph glyph-name="uni2525" unicode="&#x2525;" 
d="M454 -142h-36v460h-418v80h418v460h36v-1000z" />
    <glyph glyph-name="uni2526" unicode="&#x2526;" 
d="M454 -142h-36v487h-418v26h387v487h98v-500h-31v-500z" />
    <glyph glyph-name="uni2527" unicode="&#x2527;" 
d="M454 358h31v-500h-98v487h-387v26h418v487h36v-500z" />
    <glyph glyph-name="uni2528" unicode="&#x2528;" 
d="M484 -142h-98v487h-386v26h386v487h98v-1000z" />
    <glyph glyph-name="uni2529" unicode="&#x2529;" 
d="M454 358v-500h-36v460h-418v80h387v460h98v-500h-31z" />
    <glyph glyph-name="uni252A" unicode="&#x252a;" 
d="M418 398v460h36v-500h31v-500h-98v460h-387v80h418z" />
    <glyph glyph-name="uni252B" unicode="&#x252b;" 
d="M485 -142h-98v460h-387v80h387v460h98v-1000z" />
    <glyph glyph-name="SF060000" unicode="&#x252c;" 
d="M872 371v-26h-418v-487h-36v487h-418v26h872z" />
    <glyph glyph-name="uni252D" unicode="&#x252d;" 
d="M872 371v-26h-418v-487h-36v460h-418v80h436v-27h436z" />
    <glyph glyph-name="uni252E" unicode="&#x252e;" 
d="M436 371v27h436v-80h-418v-460h-36v487h-418v26h436z" />
    <glyph glyph-name="uni252F" unicode="&#x252f;" 
d="M872 398v-80h-418v-460h-36v460h-418v80h872z" />
    <glyph glyph-name="uni2530" unicode="&#x2530;" 
d="M872 371v-26h-387v-487h-98v487h-387v26h872z" />
    <glyph glyph-name="uni2531" unicode="&#x2531;" 
d="M436 371h436v-26h-387v-487h-98v460h-387v80h436v-27z" />
    <glyph glyph-name="uni2532" unicode="&#x2532;" 
d="M387 345h-387v26h436v27h436v-80h-387v-460h-98v487z" />
    <glyph glyph-name="uni2533" unicode="&#x2533;" 
d="M872 398v-80h-387v-460h-98v460h-387v80h872z" />
    <glyph glyph-name="SF070000" unicode="&#x2534;" 
d="M0 345v26h418v487h36v-487h418v-26h-872z" />
    <glyph glyph-name="uni2535" unicode="&#x2535;" 
d="M436 345v-27h-436v80h418v460h36v-487h418v-26h-436z" />
    <glyph glyph-name="uni2536" unicode="&#x2536;" 
d="M0 345v26h418v487h36v-460h418v-80h-436v27h-436z" />
    <glyph glyph-name="uni2537" unicode="&#x2537;" 
d="M0 318v80h418v460h36v-460h418v-80h-872z" />
    <glyph glyph-name="uni2538" unicode="&#x2538;" 
d="M0 345v26h387v487h98v-487h387v-26h-872z" />
    <glyph glyph-name="uni2539" unicode="&#x2539;" 
d="M485 371h387v-26h-436v-27h-436v80h387v460h98v-487z" />
    <glyph glyph-name="uni253A" unicode="&#x253a;" 
d="M436 345h-436v26h387v487h98v-460h387v-80h-436v27z" />
    <glyph glyph-name="uni253B" unicode="&#x253b;" 
d="M0 318v80h387v460h98v-460h387v-80h-872z" />
    <glyph glyph-name="SF050000" unicode="&#x253c;" 
d="M418 858h36v-487h418v-26h-418v-487h-36v487h-418v26h418v487z" />
    <glyph glyph-name="uni253D" unicode="&#x253d;" 
d="M418 858h36v-487h418v-26h-418v-487h-36v460h-418v80h418v460z" />
    <glyph glyph-name="uni253E" unicode="&#x253e;" 
d="M454 318v-460h-36v487h-418v26h418v487h36v-460h418v-80h-418z" />
    <glyph glyph-name="uni253F" unicode="&#x253f;" 
d="M454 398h418v-80h-418v-459h-36v459h-418v80h418v460h36v-460z" />
    <glyph glyph-name="uni2540" unicode="&#x2540;" 
d="M0 371h387v487h98v-487h387v-26h-418v-487h-36v487h-418v26z" />
    <glyph glyph-name="uni2541" unicode="&#x2541;" 
d="M0 345v26h418v487h36v-487h418v-26h-387v-487h-98v487h-387z" />
    <glyph glyph-name="uni2542" unicode="&#x2542;" 
d="M0 345v26h387v487h98v-487h387v-26h-387v-487h-98v487h-387z" />
    <glyph glyph-name="uni2543" unicode="&#x2543;" 
d="M454 345v-487h-36v460h-418v80h387v460h98v-487h387v-26h-418z" />
    <glyph glyph-name="uni2544" unicode="&#x2544;" 
d="M454 318v-460h-36v487h-418v26h387v487h98v-460h387v-80h-418z" />
    <glyph glyph-name="uni2545" unicode="&#x2545;" 
d="M418 398v460h36v-487h418v-26h-387v-487h-98v460h-387v80h418z" />
    <glyph glyph-name="uni2546" unicode="&#x2546;" 
d="M418 371v487h36v-460h418v-80h-387v-460h-98v487h-387v26h418z" />
    <glyph glyph-name="uni2547" unicode="&#x2547;" 
d="M387 398v460h98v-460h387v-80h-418v-460h-36v460h-418v80h387z" />
    <glyph glyph-name="uni2548" unicode="&#x2548;" 
d="M418 398v460h36v-460h418v-80h-387v-460h-98v460h-387v80h418z" />
    <glyph glyph-name="uni2549" unicode="&#x2549;" 
d="M387 318h-387v80h387v460h98v-487h387v-26h-387v-487h-98v460z" />
    <glyph glyph-name="uni254A" unicode="&#x254a;" 
d="M387 345h-387v26h387v487h98v-460h387v-80h-387v-460h-98v487z" />
    <glyph glyph-name="uni254B" unicode="&#x254b;" 
d="M0 398h387v460h98v-460h387v-80h-387v-460h-98v460h-387v80z" />
    <glyph glyph-name="shade" unicode="&#x2592;" 
d="M747 716h-623v-622h623v622zM86 58v692h700v-692h-700zM253 633q0 -8 -6 -14t-14 -6t-14 6t-6 14t6 14t14 6t14 -6t6 -14zM382 633q0 -8 -6 -14t-14 -6t-14 6t-6 14t6 14t14 6t14 -6t6 -14zM513 633q0 -8 -6 -14t-14 -6t-14 6t-6 14t6 14t14 6t14 -6t6 -14zM642 633
q0 -8 -6 -14t-14 -6t-14 6t-6 14t6 14t14 6t14 -6t6 -14zM253 321q0 -8 -6 -14t-14 -6t-14 6t-6 14t6 14t14 6t14 -6t6 -14zM382 321q0 -8 -6 -14t-14 -6t-14 6t-6 14t6 14t14 6t14 -6t6 -14zM513 321q0 -8 -6 -14t-14 -6t-14 6t-6 14t6 14t14 6t14 -6t6 -14zM642 321
q0 -8 -6 -14t-14 -6t-14 6t-6 14t6 14t14 6t14 -6t6 -14zM203 477q0 -8 -6 -14t-14 -6t-14 6t-6 14t6 14t14 6t14 -6t6 -14zM328 477q0 -8 -6 -14t-14 -6t-14 6t-6 14t6 14t14 6t14 -6t6 -14zM455 477q0 -8 -6 -14t-14 -6t-14 6t-6 14t6 14t14 6t14 -6t6 -14zM580 477
q0 -8 -6 -14t-14 -6t-14 6t-6 14t6 14t14 6t14 -6t6 -14zM707 477q0 -8 -6 -14t-14 -6t-14 6t-6 14t6 14t14 6t14 -6t6 -14zM203 173q0 -8 -6 -14t-14 -6t-14 6t-6 14t6 14t14 6t14 -6t6 -14zM328 173q0 -8 -6 -14t-14 -6t-14 6t-6 14t6 14t14 6t14 -6t6 -14zM455 173
q0 -8 -6 -14t-14 -6t-14 6t-6 14t6 14t14 6t14 -6t6 -14zM580 173q0 -8 -6 -14t-14 -6t-14 6t-6 14t6 14t14 6t14 -6t6 -14zM707 173q0 -8 -6 -14t-14 -6t-14 6t-6 14t6 14t14 6t14 -6t6 -14z" />
    <glyph glyph-name="filledbox" unicode="&#x25a0;" 
d="M738 113h-604v592h604v-592z" />
    <glyph glyph-name="H22073" unicode="&#x25a1;" 
d="M738 113h-604v592h604v-592zM205 176h462v466h-462v-466z" />
    <glyph glyph-name="uni25A3" unicode="&#x25a3;" 
d="M96 66v678h682v-678h-682zM740 711h-606v-612h606v612zM275 243v324h324v-324h-324z" />
    <glyph glyph-name="uni25A4" unicode="&#x25a4;" 
d="M747 716h-623v-123h623v123zM747 559h-623v-138h623v138zM747 389h-623v-138h623v138zM747 217h-623v-123h623v123zM86 58v692h700v-692h-700z" />
    <glyph glyph-name="uni25A5" unicode="&#x25a5;" 
d="M129 720v-631h115v631h-115zM286 720v-631h130v631h-130zM456 720v-631h130v631h-130zM628 720v-631h115v631h-115zM86 58v692h700v-692h-700z" />
    <glyph glyph-name="uni25A6" unicode="&#x25a6;" 
d="M745 714h-133v-132h133v132zM581 714h-133v-132h133v132zM745 551h-133v-132h133v132zM419 714h-135v-132h135v132zM581 551h-133v-132h133v132zM745 390h-133v-133h133v133zM254 714h-129v-132h129v132zM419 551h-135v-132h135v132zM581 390h-133v-133h133v133zM745 226
h-133v-131h133v131zM254 551h-129v-132h129v132zM419 390h-135v-133h135v133zM581 226h-133v-131h133v131zM254 390h-129v-133h129v133zM419 226h-135v-131h135v131zM254 226h-129v-131h129v131zM86 58v692h700v-692h-700z" />
    <glyph glyph-name="uni25A7" unicode="&#x25a7;" 
d="M351 716h-192l589 -598v200zM748 716h-125l125 -133v133zM574 716h-174l348 -355v179zM126 234v-140h136zM126 699v-199l408 -406h191zM126 455v-177l185 -184h172zM86 58v692h700v-692h-700z" />
    <glyph glyph-name="uni25A8" unicode="&#x25a8;" 
d="M521 716l-397 -398v-200l589 598h-192zM124 716v-133l124 133h-124zM298 716l-174 -176v-179l348 355h-174zM746 234l-136 -140h136v140zM746 699l-599 -605h191l408 406v199zM746 455l-357 -361h172l185 184v177zM86 58v692h700v-692h-700z" />
    <glyph glyph-name="uni25A9" unicode="&#x25a9;" 
d="M562 722l82 -95l82 95h-164zM749 704l-86 -92l86 -92v184zM540 701l-86 -88l86 -90l86 89zM644 597l-85 -89l85 -89l86 88zM355 722l82 -95l80 95h-162zM749 496l-86 -92l86 -92v184zM333 701l-86 -88l86 -90l86 89zM437 597l-85 -89l85 -90l84 90zM540 492l-86 -87
l86 -90l86 90zM644 389l-85 -90l85 -88l86 89zM749 288l-86 -93l86 -92v185zM147 722l82 -95l82 95h-164zM125 704v-184l85 93zM644 180l-81 -91h164zM540 284l-86 -89l86 -88l86 89zM229 597l-86 -89l86 -89l85 88zM333 492l-86 -87l86 -90l86 89zM437 389l-85 -89l85 -90
l84 90zM125 496v-184l85 92zM437 181l-81 -92h161zM333 284l-86 -88l86 -89l86 88zM229 389l-86 -89l86 -89l85 88zM125 288v-185l85 92zM229 180l-81 -91h162zM86 58v692h700v-692h-700z" />
    <glyph glyph-name="triagup" unicode="&#x25b2;" 
d="M826 113h-781l391 611z" />
    <glyph glyph-name="uni25B3" unicode="&#x25b3;" 
d="M826 113h-781l391 611zM720 171l-284 439l-284 -439h568z" />
    <glyph glyph-name="uni25B6" unicode="&#x25b6;" 
d="M135 795l611 -390l-611 -390v780z" />
    <glyph glyph-name="uni25B7" unicode="&#x25b7;" 
d="M135 795l611 -390l-611 -390v780zM196 689v-568l438 284z" />
    <glyph glyph-name="triagdn" unicode="&#x25bc;" 
d="M826 696l-390 -611l-391 611h781z" />
    <glyph glyph-name="uni25BD" unicode="&#x25bd;" 
d="M826 696l-390 -611l-391 611h781zM720 638h-568l284 -439z" />
    <glyph glyph-name="uni25C0" unicode="&#x25c0;" 
d="M717 794v-781l-612 391z" />
    <glyph glyph-name="uni25C1" unicode="&#x25c1;" 
d="M717 795v-780l-611 390zM656 689l-438 -284l438 -284v568z" />
    <glyph glyph-name="uni25C6" unicode="&#x25c6;" 
d="M800 407l-364 -360l-364 358l364 358z" />
    <glyph glyph-name="uni25C7" unicode="&#x25c7;" 
d="M800 407l-364 -360l-364 358l364 358zM434 132l271 273l-269 269l-269 -269z" />
    <glyph glyph-name="uni25C8" unicode="&#x25c8;" 
d="M435 -8l-403 413l406 412l404 -412zM437 771l-365 -366l365 -367l364 367zM435 196l-205 207l209 212l206 -210z" />
    <glyph glyph-name="circle" unicode="&#x25cb;" 
d="M113 404q0 135 96.5 228.5t226.5 93.5t226.5 -93.5t96.5 -228.5t-96.5 -228.5t-226.5 -93.5t-226.5 93.5t-96.5 228.5zM191 404q0 -112 75.5 -184.5t169.5 -72.5t169.5 72.5t75.5 184.5t-75.5 184.5t-169.5 72.5t-169.5 -72.5t-75.5 -184.5z" />
    <glyph glyph-name="uni25CE" unicode="&#x25ce;" 
d="M74 405q0 151 106.5 255.5t255.5 104.5t255.5 -104.5t106.5 -255.5t-106.5 -255.5t-255.5 -104.5q-150 2 -256 105.5t-106 254.5zM745 405q0 135 -91 223t-218 88t-218 -88t-91 -223t91 -223t218 -88t218 88t91 223zM230 405q0 85 60.5 143t145.5 58t145.5 -58t60.5 -143
t-60.5 -143t-145.5 -58t-145.5 58t-60.5 143zM283 405q0 -69 47 -112t106 -43t106 43t47 112t-47 112t-106 43t-106 -43t-47 -112z" />
    <glyph glyph-name="H18533" unicode="&#x25cf;" 
d="M113 404q0 135 96.5 228.5t226.5 93.5t226.5 -93.5t96.5 -228.5t-96.5 -228.5t-226.5 -93.5t-226.5 93.5t-96.5 228.5z" />
    <glyph glyph-name="uni25D0" unicode="&#x25d0;" 
d="M434 43q-75 0 -141 28t-114 74q-48 50 -77.5 116.5t-29.5 143.5q0 76 29 142t78 114q48 48 113.5 77t140.5 29t140.5 -29t113.5 -76q47 -49 78 -115t31 -142q0 -78 -31 -144.5t-78 -116.5q-48 -46 -113 -73.5t-140 -27.5zM426 716v-624q134 0 226.5 90t92.5 222
t-92.5 222t-226.5 90z" />
    <glyph glyph-name="uni25D1" unicode="&#x25d1;" 
d="M434 43q-75 0 -141 28t-114 74q-48 50 -77.5 116.5t-29.5 143.5q0 76 29 142t78 114q48 48 113.5 77t140.5 29t140.5 -29t113.5 -76q47 -49 78 -115t31 -142q0 -78 -31 -144.5t-78 -116.5q-48 -46 -113 -73.5t-140 -27.5zM446 716q-134 0 -226.5 -90t-92.5 -222
t92.5 -222t226.5 -90v624z" />
    <glyph glyph-name="uni2605" unicode="&#x2605;" 
d="M206 82l86 275l-218 151h273l89 246l84 -246h277l-226 -157l81 -265l-216 163z" />
    <glyph glyph-name="uni2606" unicode="&#x2606;" 
d="M206 82l86 275l-218 151h273l89 246l84 -246h277l-226 -157l81 -265l-216 163zM180 470l158 -101l-61 -187l159 116l144 -116l-54 184l167 104h-202l-55 168l-62 -168h-194z" />
    <glyph glyph-name="uni260E" unicode="&#x260e;" 
d="M748 409q19 0 46.5 1t34.5 4q0 -24 -15.5 -32t-37.5 -6l-76 4q-20 0 -35 11t-17 31q17 -6 40.5 -9t59.5 -4zM124 409q34 1 58 4t41 9q-4 -20 -18 -31t-34 -11l-76 -5q-23 -1 -38 7t-15 32q7 -3 34.5 -4t47.5 -1zM522 457l13 74q-99 14 -200 -2l12 -72q89 10 175 0z
M559 291q0 49 -37 84.5t-88 35.5t-88 -35.5t-37 -84.5q0 -51 37 -87.5t88 -36.5t88 36.5t37 87.5zM564 523v-51q0 -16 5.5 -27t25.5 -33q17 -13 28.5 -23.5t21.5 -30.5l72 -209q28 -79 -41 -79h-483q-68 0 -39 79l72 209q10 20 21.5 30.5t27.5 23.5q21 22 26.5 33t5.5 27v51
q-35 -6 -56 -27t-22 -41q-27 -9 -48 -12t-51 -4q-21 -2 -47.5 0t-37.5 4q3 32 8 57.5t16 40.5q10 17 28.5 28t51.5 21q68 19 145 29t142 10q69 0 143.5 -10t142.5 -29q32 -9 50 -20.5t29 -28.5q11 -15 16 -40.5t8 -57.5q-10 -2 -36.5 -4t-47.5 0q-34 1 -53 4t-46 12
q-2 19 -22.5 40.5t-55.5 27.5z" />
    <glyph glyph-name="uni260F" unicode="&#x260f;" 
d="M498 488l5 42q-67 13 -136 0l6 -42q63 9 125 0zM770 418q25 -1 31.5 8t0.5 38q-9 47 -35.5 68t-80.5 38q-60 14 -127 21t-123 7t-123 -7t-125 -21q-55 -17 -82 -38t-35 -68q-6 -29 -0.5 -38t32.5 -8l61 2q22 0 31 8.5t15 46.5q5 37 40.5 53.5t74.5 25.5q49 9 109.5 9
t114.5 -9q36 -9 70.5 -26t42.5 -56q7 -35 16 -43.5t32 -8.5zM721 147q31 -80 -51 -80h-467q-82 0 -51 80l72 210q7 17 16 28t35 30q19 16 24 23.5t5 32.5v47q-39 -10 -53.5 -24.5t-17.5 -37.5q-9 -43 -22.5 -53t-38.5 -10l-76 -6q-24 -1 -42 8.5t-11 51.5q8 63 29.5 95
t77.5 48q64 18 142.5 29t143.5 11q71 0 146.5 -11t141.5 -31q54 -14 76 -46t30 -96q4 -41 -13 -50.5t-40 -7.5l-76 5q-27 0 -41 10t-20 53q-4 21 -20 36.5t-50 24.5v-46q0 -24 4.5 -32t22.5 -23q8 -10 16 -15t15 -11q5 -5 10.5 -14.5t10.5 -18.5zM698 140l-68 195
q-6 14 -12.5 24t-14.5 16q-5 6 -13 13t-18 13q-18 13 -23.5 30.5t-5.5 60.5v30l-12 3l-16 -67q-14 4 -25.5 4.5t-53.5 1.5q-45 -1 -55.5 -2.5t-24.5 -4.5l-12 68l-14 -2v-27q0 -47 -6 -64.5t-23 -30.5q-27 -18 -39 -29.5t-19 -37.5l-67 -194q-13 -40 6 -40h509q20 0 7 40z
M557 300q0 -49 -36 -85.5t-85 -36.5t-85 36.5t-36 85.5t36 84.5t85 35.5t85 -35.5t36 -84.5zM528 300q0 39 -28.5 66.5t-64.5 27.5t-64.5 -27.5t-28.5 -66.5t28.5 -66.5t64.5 -27.5t64.5 27.5t28.5 66.5z" />
    <glyph glyph-name="uni261C" unicode="&#x261c;" 
d="M778 203h-106v41h-38q-11 -1 -21.5 -4t-21.5 -8q-27 -13 -50 -18.5t-45 -6.5q-21 -1 -42 -1t-49 2q-8 -14 -22.5 -18t-27.5 -4q-15 0 -32.5 3.5t-33.5 10.5q-17 9 -28 21t-11 30q0 19 22 36q-9 11 -9 26q0 25 27 38q-7 13 -7 22q0 12 22 32l-108 6q-11 0 -27.5 1.5
t-32.5 5.5q-17 4 -28 15t-11 30q0 22 20.5 32.5t79.5 12.5q72 4 144 4l81 1q9 5 19.5 9t21.5 4q22 0 44.5 -7t43.5 -16q21 -10 41.5 -22t40.5 -22l12 -5h26v39h106v-290zM731 225v246h-45v-246h45zM672 264v169h-23l-9 3q-20 7 -41 19t-42 22q-22 11 -44 20t-43 9
q-23 0 -34.5 -6.5t-24.5 -20.5l-44 -44q-24 -22 -23 -35t14.5 -18t24.5 -5q20 0 34.5 8.5t27.5 19.5l33 30l6 -8l-36 -41q3 -4 15 -15.5t19 -20.5l9 -1t19 -2q12 -1 25.5 -1.5t27.5 0.5q15 1 30 4t27 7q2 1 3 -1q1 -3 -2 -6q-14 -13 -61 -18l-47 -2h-29q-6 -38 -46 -47
q0 -32 -28 -44v-15q46 -2 93.5 1.5t91.5 25.5q10 5 19 7.5t18 3.5q9 2 19.5 2h20.5zM436 305q12 0 23 6.5t11 21.5q0 11 -13.5 25t-29.5 14q-27 -11 -44 -11q-19 0 -35.5 9.5t-17.5 34.5q-15 -6 -23.5 -14.5t-8.5 -16.5q0 -7 5.5 -14.5t14.5 -11.5q7 -5 15 -10t14 -7
q6 -3 18 -7.5t25 -8.5q12 -5 25 -7.5t21 -2.5zM409 494h-77q-68 0 -132 -2q-38 -1 -63.5 -6t-25.5 -24q0 -20 20.5 -26.5t36.5 -6.5l118 -5h55zM398 256q13 0 20 7.5t7 24.5l-22 6q-16 4 -40 14.5t-37 18.5l-11 5.5t-13 3.5q-13 0 -19 -7t-6 -16q0 -13 11.5 -23.5
t23.5 -15.5q13 -5 41 -11.5t45 -6.5zM355 200q13 0 28 4t15 19q0 7 -5 11.5t-12 5.5q-35 5 -58.5 13t-37.5 21q-12 0 -17 -7.5t-4 -17.5q1 -13 12 -22t25 -15t28.5 -9t25.5 -3z" />
    <glyph glyph-name="uni261E" unicode="&#x261e;" 
d="M115 203v290h106v-39h26l12 5q20 10 40.5 22t41.5 22q21 9 43.5 16t43.5 7q12 0 22.5 -4t18.5 -9l82 -1q72 0 144 -4q59 -2 79.5 -12.5t20.5 -32.5q0 -19 -11.5 -30t-27.5 -15t-32.5 -5.5t-27.5 -1.5l-108 -6q22 -20 22 -32q0 -9 -7 -22q27 -13 27 -38q0 -15 -9 -26
q22 -17 22 -36q0 -18 -11 -30t-29 -21q-15 -7 -33 -10.5t-32 -3.5q-13 0 -27.5 4t-22.5 18q-28 -2 -49 -2t-42 1q-22 1 -45 6.5t-50 18.5q-12 5 -22 8t-21 4h-38v-41h-106zM162 225h45v246h-45v-246zM221 264h19.5t20.5 -2q9 -1 18 -3.5t19 -7.5q44 -22 91.5 -25.5
t93.5 -1.5v15q-28 12 -28 44q-41 9 -46 47h-29l-47 2q-47 5 -61 18q-3 3 -2 6q1 2 3 1q12 -4 27 -7t29 -4q15 -1 28.5 -0.5t24.5 1.5q10 1 19 2l9 1q8 9 19.5 20.5l15.5 15.5l-37 41l7 8l33 -30q13 -11 27.5 -19.5t34.5 -8.5q11 0 24.5 5t14.5 18t-24 35l-43 44
q-13 14 -24.5 20.5t-34.5 6.5q-21 0 -43 -9t-44 -20q-21 -10 -42 -22t-41 -19l-9 -3h-23v-169zM457 305q7 0 20 2.5t26 7.5q13 4 25 8.5t18 7.5q6 2 14 7t14 10q10 4 15.5 11.5t5.5 14.5q0 8 -8.5 16.5t-23.5 14.5q-1 -25 -17.5 -34.5t-35.5 -9.5q-17 0 -44 11
q-16 0 -29.5 -14t-13.5 -25q0 -15 10.5 -21.5t23.5 -6.5zM484 494l68 -70h55l118 5q16 0 36.5 6.5t20.5 26.5q0 19 -26 24t-63 6q-64 2 -133 2h-76zM495 256q16 0 44 6.5t42 11.5q12 5 23.5 15.5t11.5 23.5q0 9 -6 16t-19 7q-6 0 -13 -3.5t-12 -5.5q-12 -8 -36 -18.5
t-40 -14.5l-22 -6q0 -17 7 -24.5t20 -7.5zM538 200q10 0 24.5 3t29.5 9q13 6 24.5 15t12.5 22q1 10 -4.5 17.5t-16.5 7.5q-15 -13 -38 -21t-58 -13q-7 -1 -12 -5.5t-5 -11.5q0 -15 15 -19t28 -4z" />
    <glyph glyph-name="female" unicode="&#x2640;" 
d="M193 209v61h206v155q-57 10 -101 52q-59 55 -59 133t58.5 133t138.5 55t138.5 -55t58.5 -133t-58 -133q-45 -42 -102 -52v-155h209v-61h-209v-255h-74v255h-206zM555 610q0 50 -34.5 84t-84.5 34q-51 0 -85 -34t-34 -84t34 -84t85 -34q50 0 84.5 34t34.5 84z" />
    <glyph glyph-name="male" unicode="&#x2642;" 
d="M399 345v313l-184 -212l-52 44l273 303l274 -303l-53 -49l-184 217v-313q57 -10 102 -52q58 -55 58 -133t-58.5 -133t-138.5 -55t-138.5 55t-58.5 133t59 133q44 42 101 52zM555 160q0 50 -34.5 84t-84.5 34q-51 0 -85 -34t-34 -84t34 -84t85 -34q50 0 84.5 34t34.5 84z
" />
    <glyph glyph-name="spade" unicode="&#x2660;" 
d="M732 300q0 -57 -34 -95t-91 -38q-31 0 -58.5 4t-79.5 31q4 -79 17 -110t38 -48q24 -17 61 -23.5t74 -8.5l4 -16h-454l4 16q36 2 73 8.5t62 23.5t38 48t17 110q-53 -27 -81 -31t-57 -4q-54 0 -89.5 37.5t-35.5 95.5q0 33 9.5 59t25.5 50q16 25 38 46t45 39
q29 26 57.5 56.5t55.5 74.5q26 41 47 95q15 38 18 41q3 -4 17 -40q20 -54 47 -96q27 -44 55 -74.5t59 -56.5q46 -37 82 -83.5t36 -110.5z" />
    <glyph glyph-name="uni2661" unicode="&#x2661;" 
d="M436 69q-3 7 -20.5 46t-51.5 84q-33 44 -77 90.5t-83 96.5q-38 47 -63.5 100.5t-23.5 109.5q0 63 42 106.5t109 43.5q44 0 84 -22t84 -93q44 70 84 92.5t82 22.5q66 0 109 -44.5t43 -106.5q0 -56 -25.5 -109.5t-62.5 -99.5q-62 -73 -82.5 -96t-76.5 -89
q-31 -42 -51 -86.5t-20 -45.5zM703 581q0 50 -27.5 83t-90.5 30q-50 -2 -90 -56t-60 -133q-23 79 -61 133t-88 56q-64 3 -90.5 -30t-26.5 -83q0 -27 9 -55t24 -57q30 -48 72 -95.5t99 -111.5q17 -19 31 -39t31 -52q20 30 34 50.5t31 39.5q55 65 94 109t75 99
q13 29 23.5 56.5t10.5 55.5z" />
    <glyph glyph-name="club" unicode="&#x2663;" 
d="M484 268q0 -147 41 -189.5t139 -52.5l2 -10h-472l2 10q98 10 139 53t41 194q-64 -69 -128 -69q-70 0 -118.5 47.5t-48.5 112.5q0 56 40.5 105t108.5 56q20 2 57 -2q-20 53 -20 85q0 68 50.5 113.5t113.5 45.5q62 0 112 -44.5t50 -113.5q0 -36 -22 -87q39 4 59 2
q57 -6 103.5 -50t46.5 -110q0 -64 -47.5 -112.5t-117.5 -48.5q-57 0 -131 65z" />
    <glyph glyph-name="uni2664" unicode="&#x2664;" 
d="M732 301q0 -55 -35.5 -94.5t-89.5 -39.5q-25 0 -46.5 4.5t-69.5 31.5q1 -77 10 -109t31 -49q22 -18 57 -24t70 -9l4 -16h-454l4 16q36 3 70 9t56 24q21 17 30.5 49t12.5 109q-49 -27 -71 -31.5t-46 -4.5q-54 0 -89 38t-35 96q0 33 9.5 59t25.5 50q16 23 38 44.5t43 39.5
q31 25 59.5 56t55.5 74q25 43 46 97q15 38 17 41q1 1 1 0q3 -5 17 -41q20 -54 47 -97q26 -43 55 -73.5t59 -56.5q22 -18 44 -39t37 -45q16 -24 26.5 -50.5t10.5 -58.5zM689 292q2 48 -16 79.5t-51 61.5l-36 31q-46 38 -83 85t-65 110q-33 -62 -70 -109.5t-82 -83.5
q-21 -18 -40 -35t-33 -37q-17 -19 -24.5 -43t-5.5 -57q2 -42 29.5 -64.5t84.5 -16.5q31 3 67 29t54 58q0 -28 -1 -75t-5 -82t-10.5 -59.5t-17.5 -45.5h114q-21 21 -27.5 45t-10.5 58q-3 35 -4 82.5t-1 76.5q18 -32 53.5 -58t66.5 -29q57 -5 85 17t29 62z" />
    <glyph glyph-name="heart" unicode="&#x2665;" 
d="M436 69q-3 7 -20.5 46t-51.5 84q-33 44 -77 90.5t-83 96.5q-38 47 -63.5 100.5t-23.5 109.5q0 63 42 106.5t109 43.5q53 0 88.5 -26.5t79.5 -98.5q44 71 82 98t84 27q66 0 109 -44.5t43 -106.5q0 -56 -25.5 -109.5t-62.5 -99.5q-62 -73 -82.5 -96t-76.5 -89
q-31 -42 -51 -86.5t-20 -45.5z" />
    <glyph glyph-name="uni2667" unicode="&#x2667;" 
d="M484 268q0 -147 41 -189.5t139 -52.5l2 -10h-472l2 10q98 10 139 53t41 194q-64 -69 -128 -69q-70 0 -118.5 47.5t-48.5 112.5q0 56 40.5 105t108.5 56q20 2 57 -2q-20 53 -20 85q0 68 50.5 113.5t113.5 45.5q62 0 112 -44.5t50 -113.5q0 -36 -22 -87q39 4 59 2
q57 -6 103.5 -50t46.5 -110q0 -64 -47.5 -112.5t-117.5 -48.5q-57 0 -131 65zM361 507l-40 -50q-22 17 -39 22t-37 5q-50 0 -84.5 -35.5t-34.5 -84.5q0 -52 34.5 -86t84.5 -34q36 0 63.5 18t45.5 51h60q0 -104 -11 -173q-9 -66 -38 -99h131q-28 34 -37 99q-11 69 -11 173h58
q17 -32 45 -51t65 -19q50 0 85 34t35 86q0 49 -35 84.5t-85 35.5q-20 0 -37.5 -5.5t-40.5 -23.5l-41 52q25 19 38.5 45.5t13.5 54.5q0 51 -35.5 86.5t-82.5 35.5q-49 0 -84.5 -35.5t-35.5 -86.5q0 -29 13.5 -53.5t36.5 -45.5z" />
    <glyph glyph-name="uni2668" unicode="&#x2668;" 
d="M333 698q4 1 7 -36.5t-15 -116.5q-9 -49 12.5 -115.5t26.5 -131.5q3 -29 -11.5 -75t-39.5 -86q-24 -39 -23 -53.5t-7 -15.5q-2 -1 -10.5 29t7.5 70q11 32 20.5 93.5t-13.5 124.5q-25 65 -16.5 127t36.5 119q13 22 18 44.5t8 22.5zM254 281q6 1 7.5 -3t-7.5 -6
q-16 -4 -78.5 -36t-62.5 -88q0 -63 106 -97t226 -33q102 1 215.5 33t113.5 99q0 56 -46.5 85.5t-69.5 35.5q-6 2 -4.5 5t6.5 2q37 -7 101 -41.5t64 -105.5q0 -99 -128 -141.5t-253 -42.5q-135 0 -264.5 42t-129.5 133q0 78 81 115t123 44zM459 747q7 1 19.5 -52t-8.5 -118
q-21 -71 -0.5 -123t32.5 -132q7 -44 -14 -100.5t-36 -81.5q-28 -44 -31 -62t-10 -20q-3 -2 -8.5 35.5t14.5 88.5q32 78 24.5 132.5t-23.5 88.5q-35 84 -15.5 140.5t37.5 99.5t16.5 73t2.5 31zM598 698q4 1 6.5 -36.5t-14.5 -116.5q-10 -49 11.5 -115.5t27.5 -130.5
q2 -30 -12 -76t-39 -86q-24 -39 -23 -53.5t-8 -15.5q-1 0 -9.5 29.5t6.5 69.5q12 32 21.5 93.5t-14.5 124.5q-25 65 -16.5 127t37.5 119q13 22 18 44.5t8 22.5z" />
    <glyph glyph-name="uni2669" unicode="&#x2669;" 
d="M560 802v-610q0 -39 -15 -72.5t-40 -58.5q-23 -21 -55 -35t-69 -11q-73 6 -76 65q-2 30 13.5 55.5t42.5 44.5q29 20 63 30t82 10h8v582h46z" />
    <glyph glyph-name="musicalnote" unicode="&#x266a;" 
d="M444 220v593q5 2 14.5 -1t42.5 -39q77 -79 163.5 -163t86.5 -172q0 -33 -6.5 -58.5t-19.5 -47.5q-16 -25 -37.5 -50t-42.5 -44q-21 -20 -43 -32.5t-26 -7.5q-4 4 0 10t22 25q45 48 68.5 90t23.5 81q0 36 -19.5 73t-60.5 72l-125 105v-460q0 -41 -12.5 -74.5t-37.5 -58.5
q-23 -21 -55 -35t-69 -11q-73 6 -76 65q-2 30 13.5 55.5t42.5 44.5q29 20 63 30t82 10h8z" />
    <glyph glyph-name="uni266C" unicode="&#x266c;" 
d="M709 607v93l-354 -77v-95zM754 235q0 -38 -12.5 -71.5t-37.5 -58.5q-23 -21 -55 -35t-69 -11q-73 6 -76 65q-2 30 13.5 55.5t42.5 44.5q29 20 63 30t82 10h4v273l-354 -80v-291q0 -40 -12.5 -73.5t-37.5 -58.5q-23 -21 -55 -35t-69 -11q-73 6 -76 65q-2 30 13.5 55.5
t42.5 44.5q29 20 63 30t82 10h8v512l440 84v-554z" />
    <glyph glyph-name="uni266D" unicode="&#x266d;" 
d="M436 410q62 87 114 92.5t82 -20.5q29 -24 42 -74.5t-8 -124.5q-22 -72 -62.5 -120t-94.5 -73q-46 -20 -87 -27q-32 -5 -36 -7v689h50v-335zM437 344v-235q89 24 132 79q42 53 55 134q5 35 -4.5 68t-40.5 44q-90 30 -142 -90z" />
    <glyph glyph-name="uni3000" unicode="&#x3000;" 
 />
    <glyph glyph-name="uni3001" unicode="&#x3001;" 
d="M90 128l27 36q70 -35 122 -76q54 -44 92 -82l-51 -57q-46 54 -96 100q-57 52 -94 79z" />
    <glyph glyph-name="uni3002" unicode="&#x3002;" 
d="M343 124q0 -43 -29.5 -74.5t-78.5 -31.5t-78.5 31.5t-29.5 74.5t29.5 74.5t78.5 31.5t78.5 -31.5t29.5 -74.5zM298 124q0 26 -17 45.5t-46 19.5t-46 -19.5t-17 -45.5t17 -45.5t46 -19.5t46 19.5t17 45.5z" />
    <glyph glyph-name="uni3003" unicode="&#x3003;" 
d="M473 517l-165 -223l-37 21l137 239zM669 477l-168 -220l-36 21l140 239z" />
    <glyph glyph-name="uni3008" unicode="&#x3008;" horiz-adv-x="580" 
d="M228 358l291 -402l-58 -50l-327 451l327 453l58 -42z" />
    <glyph glyph-name="uni3009" unicode="&#x3009;" horiz-adv-x="580" 
d="M352 358l-291 410l58 42l327 -452l-327 -452l-58 50z" />
    <glyph glyph-name="uni300A" unicode="&#x300a;" horiz-adv-x="580" 
d="M196 358l158 -456h-63l-160 457l171 455h59zM369 358l150 -456h-56l-157 456l163 456h50z" />
    <glyph glyph-name="uni300B" unicode="&#x300b;" horiz-adv-x="580" 
d="M384 358l-165 456h59l171 -455l-160 -457h-63zM211 358l-150 456h50l163 -456l-157 -456h-56z" />
    <glyph glyph-name="uni300C" unicode="&#x300c;" horiz-adv-x="580" 
d="M246 814h278v-74h-190v-434h-88v508z" />
    <glyph glyph-name="uni300D" unicode="&#x300d;" horiz-adv-x="580" 
d="M334 -98h-278v74h190v434h88v-508z" />
    <glyph glyph-name="uni300E" unicode="&#x300e;" horiz-adv-x="580" 
d="M221 782v-465h106v361h158v104h-264zM182 814h342v-168h-158v-360h-184v528z" />
    <glyph glyph-name="uni300F" unicode="&#x300f;" horiz-adv-x="580" 
d="M359 -66v465h-106v-361h-158v-104h264zM398 -98h-342v168h158v360h184v-528z" />
    <glyph glyph-name="uni3010" unicode="&#x3010;" horiz-adv-x="580" 
d="M504 -98h-269v912h270q-193 -182 -193 -456q0 -283 192 -456z" />
    <glyph glyph-name="uni3011" unicode="&#x3011;" horiz-adv-x="580" 
d="M76 -98q192 173 192 456q0 274 -193 456h270v-912h-269z" />
    <glyph glyph-name="uni3013" unicode="&#x3013;" 
d="M122 455v55h630v-55h-630zM121 299v56h631v-56h-631z" />
    <glyph glyph-name="uni3014" unicode="&#x3014;" horiz-adv-x="580" 
d="M377 717v-710l146 -39v-63l-223 59v798l224 51v-60z" />
    <glyph glyph-name="uni3015" unicode="&#x3015;" horiz-adv-x="580" 
d="M203 717l-147 36v60l224 -51v-798l-223 -59v63l146 39v710z" />
    <glyph glyph-name="uni3041" unicode="&#x3041;" 
d="M720 92q0 -66 -51 -113.5t-136 -47.5l-40 32q52 1 89 18q39 16 59.5 43.5t20.5 70.5q0 38 -20 66.5t-72 51.5q-31 -59 -61 -96.5t-81 -82.5q-51 -43 -141 -55q-34 -8 -64 6.5t-30 55.5q0 63 45.5 113.5t118.5 85.5v102q-44 -8 -52 -9t-10 -1q-28 -4 -48 -5.5t-33 4.5
l-7 44l81 11l69 13v116h67v-106l164 28l11 -56l-175 -30v-88q42 4 59.5 6.5t54.5 0.5l12 30l46 -15l-10 -21q25 -16 30 -17.5t6 -2.5q54 -23 76 -60t22 -92zM530 227q-65 -7 -72 -7.5t-34 -7.5v-128q48 65 56.5 78t49.5 65zM358 43q0 36 -0.5 59t-0.5 97q-60 -46 -79 -68.5
t-25 -45.5q-4 -22 2 -42.5t39 -20.5q17 0 27 4.5t37 16.5z" />
    <glyph glyph-name="uni3042" unicode="&#x3042;" 
d="M802 149q0 -89 -71 -154.5t-188 -65.5l-52 37q67 7 111 27q56 25 89.5 64t33.5 100q0 53 -28.5 92.5t-92.5 70.5q-40 -82 -85 -141t-121 -115l-3 -14h-18q-38 -22 -76.5 -36t-86.5 -22q-44 -11 -88 10t-44 80q0 92 68 162.5t163 114.5v129q-53 -6 -69.5 -9l-16.5 -3
q-37 -4 -65.5 -6t-50.5 7l-10 54l114 8l98 18v166h79v-154l233 39l14 -66l-69 -10.5t-178 -30.5v-116q54 9 83.5 12t79.5 -2l13 44l69 -24l-9 -36q24 -11 30 -13.5t7 -2.5q67 -32 102 -85.5t35 -128.5zM536 333q-66 0 -87 -2t-57 -11v-183q62 71 82.5 100t61.5 96zM315 88
q-1 47 -1.5 85.5t-0.5 122.5q-74 -48 -106.5 -84t-43.5 -75q-7 -31 1.5 -56.5t50.5 -25.5q25 0 46.5 7t53.5 26z" />
    <glyph glyph-name="uni3043" unicode="&#x3043;" 
d="M721 134l-68 -29q-9 39 -52 106t-71 96l54 35q43 -25 86 -97t51 -111zM421 12q-4 -11 -28 -33t-55 -31q-22 -8 -40.5 -5t-29.5 10q-53 39 -72.5 98.5t-28.5 131.5q-7 65 2 154.5t18 121.5l67 -27q-20 -50 -24.5 -178.5t40.5 -209.5q13 -22 33 -30.5t46 2.5q19 10 37 27
t22 27z" />
    <glyph glyph-name="uni3044" unicode="&#x3044;" 
d="M826 191l-80 -32q-13 62 -69.5 150t-100.5 134l59 40q62 -37 120.5 -135t70.5 -157zM439 40q-7 -19 -40.5 -51t-78.5 -40q-27 -9 -53.5 -6t-43.5 13q-73 53 -98.5 134.5t-39.5 178.5q-12 87 0.5 207.5t26.5 170.5l84 -33q-31 -73 -34.5 -259.5t65.5 -293.5q17 -29 44 -37
t59 3q46 21 65 44.5t25 37.5z" />
    <glyph glyph-name="uni3045" unicode="&#x3045;" 
d="M555 486l-32 -55q-23 26 -69.5 45t-68.5 20l29 47q30 4 77.5 -16.5t63.5 -40.5zM606 188q0 -87 -62 -158t-144 -92l-38 26q9 2 81.5 61t85.5 126q2 21 1 49t-18 48q-16 23 -38.5 29t-48.5 4q-27 -4 -45 -10t-53 -15l-22 50l114 30q26 10 51 6t40 -8q42 -14 69 -51.5
t27 -94.5z" />
    <glyph glyph-name="uni3046" unicode="&#x3046;" 
d="M605 676l-49 -64q-40 43 -100.5 67.5t-96.5 25.5l39 52q49 6 114.5 -21.5t92.5 -59.5zM669 276q0 -119 -84.5 -215.5t-200.5 -126.5l-53 31q41 7 131.5 88.5t110.5 180.5q4 30 2 66t-25 65q-23 32 -57 40.5t-67 5.5q-42 -7 -96 -25q-51 -17 -52 -18l-29 70l160 45
q37 12 72.5 7t53.5 -10q59 -20 96.5 -73.5t37.5 -130.5z" />
    <glyph glyph-name="uni3047" unicode="&#x3047;" 
d="M551 430h-211l-24 63h235v-63zM718 18l-19 -64q-22 -3 -53 -8t-75 -2q-7 0 -31 3t-33 5q-21 6 -31 14.5t-10 25.5q-1 16 -1.5 27.5t-0.5 29.5q0 24 -24.5 44.5t-53.5 20.5l-164 -174l-39 44l292 304l-254 -30l-18 58l361 35l21 -30l-152 -155q67 -15 80.5 -28t13.5 -29
q0 -5 -1.5 -19t-1.5 -35q0 -18 15.5 -31t32.5 -17q13 -1 23 -1h21q38 0 67.5 4t34.5 8z" />
    <glyph glyph-name="uni3048" unicode="&#x3048;" 
d="M589 631h-293l-35 72h328v-72zM807 39l-21 -68q-36 -6 -77.5 -12.5t-98.5 -2.5q-10 0 -43 4t-45 7q-30 9 -45 22.5t-17 40.5q-1 20 -1.5 35.5t-0.5 38.5q0 27 -26 53.5t-62 26.5l-225 -236l-52 62l416 428l-374 -36l-26 67l494 45l36 -47l-223 -228q77 -16 96.5 -35.5
t19.5 -43.5q0 -10 -1.5 -28t-1.5 -42q0 -20 17.5 -35.5t37.5 -21.5q18 -3 37.5 -3.5t34.5 -0.5q51 0 151 10z" />
    <glyph glyph-name="uni3049" unicode="&#x3049;" 
d="M720 352l-27 -46q-13 21 -62.5 51t-59.5 31l24 43q36 -4 72 -30.5t53 -48.5zM713 84q0 -63 -51 -102t-116 -22q-50 10 -71.5 59.5t-16.5 82.5l50 12q-1 -9 4.5 -58.5t65.5 -50.5q30 0 54.5 21.5t24.5 65.5q0 22 -18 50t-58 44q-33 12 -77.5 11.5t-109.5 -20.5v-241h-21
t-43 2q-20 2 -46.5 8t-42.5 17q-33 21 -43 40.5t-6 57.5q3 39 38 76.5t99 66.5v113l-146 -9l-8 58l107 8q6 0 12 0.5t35 0.5v141h65v-135l88 17v-53q-1 -1 -23 -6.5t-65 -16.5v-94q67 12 123 14.5t107 -20.5q52 -23 70.5 -61t18.5 -77zM329 -16v169q-50 -34 -60.5 -47.5
t-17.5 -31.5q-5 -20 0 -39.5t26 -34.5q7 -3 13 -5.5t39 -10.5z" />
    <glyph glyph-name="uni304A" unicode="&#x304a;" 
d="M819 492l-39 -59q-22 38 -86 77.5t-87 41.5l31 51q56 -4 105.5 -40t75.5 -71zM815 139q0 -88 -71 -141.5t-162 -30.5q-71 15 -101 83t-20 122l70 19q-3 -27 5.5 -93.5t90.5 -67.5q44 0 77 31t33 91q0 33 -28 75.5t-82 57.5q-51 10 -104 10t-134 -24v-338
q-4 -2 -31.5 -0.5t-61.5 4.5q-27 3 -62.5 11.5t-59.5 23.5q-44 29 -59.5 57t-11.5 82q4 60 61 112.5t145 91.5v149l-217 -13l-10 67l152 7q13 1 26 1.5t49 3.5v193h80v-183l118 30v-66q-7 -5 -37.5 -13t-80.5 -20v-130q82 16 158 19t144 -28q73 -32 98.5 -85t25.5 -108z
M309 10v236q-65 -40 -87.5 -63t-33.5 -55q-10 -26 -4 -54.5t36 -48.5q15 -9 31.5 -12t57.5 -3z" />
    <glyph glyph-name="uni304B" unicode="&#x304b;" 
d="M525 377q0 -60 -8 -153.5t-35 -175.5q-11 -35 -41 -64.5t-68 -35.5l-41 52q43 17 69 70q31 66 35.5 146.5t4.5 137.5q0 21 -19 44.5t-45 23.5h-57l-152 -486l-79 17l150 469h-139l-24 71h186l69 224l72 -33l-59 -191h50q66 0 98.5 -30.5t32.5 -85.5zM829 196l-71 -47
q-13 64 -62 162t-96 145l62 35q18 -14 37 -34.5t45 -59.5q39 -61 60.5 -125t24.5 -76z" />
    <glyph glyph-name="uni304C" unicode="&#x304c;" 
d="M843 629l-37 -36l-82 107l25 22q20 -7 54.5 -43.5t39.5 -49.5zM743 569l-39 -37q-3 7 -45 55l-42 48l34 28q20 -8 53.5 -44.5t38.5 -49.5zM513 365q0 -59 -8 -150t-34 -172q-11 -34 -40.5 -63t-66.5 -35l-42 50q39 16 70 69q31 66 35.5 144.5t4.5 134.5q0 20 -19 43.5
t-45 23.5h-56l-148 -476l-78 16l148 460h-137l-22 69h181l68 219l69 -32l-58 -187h50q66 0 97 -30t31 -84zM810 188l-68 -45q-13 62 -61 158t-93 142l60 33q17 -14 36 -33t43 -58q39 -61 59.5 -123.5t23.5 -73.5z" />
    <glyph glyph-name="uni304D" unicode="&#x304d;" 
d="M746 408l-175 -15q24 -100 34.5 -141l10.5 -41l-19 -21q-35 14 -122 16t-152 -30q-20 -9 -38.5 -30t-18.5 -54q0 -27 21 -47t45 -28q71 -21 178 -19t152 23l14 -71q-21 -6 -79.5 -12.5t-86.5 -6.5q-23 0 -83 3t-111 17q-65 15 -101 50.5t-36 90.5q0 51 38.5 92.5
t96.5 60.5q36 12 84 19t123 0l-26 121l-317 -25l-21 58l323 28l-28 112l-221 -18l-23 59q-7 0 31 1.5t82 5.5l120 10l-27 107h77l24 -98l147 13l8 -62l-140 -11q8 -45 11.5 -59.5t13.5 -51.5l182 16z" />
    <glyph glyph-name="uni304E" unicode="&#x304e;" 
d="M637 396l-172 -14l44 -181l-19 -18q-34 14 -119 15.5t-149 -29.5q-19 -9 -37.5 -29.5t-18.5 -53.5q0 -27 20.5 -46.5t43.5 -27.5q71 -21 176 -18.5t148 22.5l14 -68q-20 -6 -77 -12.5t-84 -6.5q-23 0 -82 3t-110 17q-64 14 -98.5 49t-34.5 88q0 50 38 90.5t93 59.5
q36 11 84 18t121 3l-27 117l-311 -24l-20 56l318 26l-28 111l-217 -17l-22 57q-7 0 29 1.5t81 5.5l117 9l-26 105h76l23 -96l143 13l8 -60l-137 -11l26 -109l176 15zM816 669l-37 -36l-82 107l25 22q20 -7 54.5 -43.5t39.5 -49.5zM716 609l-39 -37q-3 7 -45 55l-42 48l34 28
q20 -8 53.5 -44.5t38.5 -49.5z" />
    <glyph glyph-name="uni304F" unicode="&#x304f;" 
d="M618 1l-64 -54q-32 75 -133.5 213t-168.5 188l291 378l66 -51l-253 -324q118 -105 179 -202.5t83 -147.5z" />
    <glyph glyph-name="uni3050" unicode="&#x3050;" 
d="M547 1l-63 -54q-32 75 -133.5 213t-168.5 188l292 377l65 -50l-254 -324q120 -105 180 -202.5t82 -147.5zM829 709l-37 -36l-82 107l25 22q20 -7 54.5 -43.5t39.5 -49.5zM729 649l-39 -37q-3 7 -45 55l-42 48l34 28q20 -8 53.5 -44.5t38.5 -49.5z" />
    <glyph glyph-name="uni3051" unicode="&#x3051;" 
d="M153 121l24 -161l-77 14q-7 29 -23 121.5t-11 189.5l21 431l75 -12q0 -26 -13 -223.5t4 -359.5zM812 445h-155v-228q0 -112 -60 -184.5t-131 -88.5l-46 39q12 3 87.5 72t75.5 187v203h-285v66h285v200h74v-200h155v-66z" />
    <glyph glyph-name="uni3052" unicode="&#x3052;" 
d="M137 129l25 -174l-80 14q-7 31 -23 125t-10 190l20 417l78 -12q0 -25 -12.5 -215.5t2.5 -344.5zM556 695v-196h175v-67h-175v-215q0 -113 -59 -186t-130 -89l-45 39q14 4 85.5 72.5t71.5 187.5v191h-210v67h210v196h77zM831 695l-37 -36l-82 107l25 22q20 -7 54.5 -43.5
t39.5 -49.5zM731 635l-39 -37q-3 7 -45 55l-42 48l34 28q20 -8 53.5 -44.5t38.5 -49.5z" />
    <glyph glyph-name="uni3053" unicode="&#x3053;" 
d="M701 538h-341q-29 0 -68.5 2t-56.5 10l-21 62l487 1v-75zM794 13h-404q-29 0 -73 2t-83 15q-47 18 -88.5 61.5t-45.5 106.5l64 35q1 -46 57 -95.5t134 -49.5h439v-75z" />
    <glyph glyph-name="uni3054" unicode="&#x3054;" 
d="M725 13h-404q-28 0 -72.5 2t-82.5 15q-48 18 -89 61.5t-45 106.5l64 35q1 -46 56.5 -95.5t134.5 -49.5h438v-75zM630 613v-75h-340q-29 0 -68.5 2t-54.5 10l-20 63h483zM831 695l-37 -36l-82 107l25 22q20 -7 54.5 -43.5t39.5 -49.5zM731 635l-39 -37q-3 7 -45 55l-42 48
l34 28q20 -8 53.5 -44.5t38.5 -49.5z" />
    <glyph glyph-name="uni3055" unicode="&#x3055;" 
d="M756 528l-205 -50q45 -92 82 -147.5t64 -80.5l-42 -56q-28 25 -119 37.5t-165 -21.5q-20 -7 -44.5 -29t-24.5 -66q0 -40 25.5 -63.5t49.5 -33.5q76 -29 154.5 -24t103.5 16l28 -62q-10 -3 -52 -9.5t-69 -6.5q-23 0 -77 2t-108 19q-61 20 -97 60.5t-36 93.5q0 55 32 98.5
t99 66.5q38 12 78 17t130 -3q-46 68 -59.5 96t-32.5 76l-116 -25q-32 -8 -89 -14.5t-89 4.5l-25 49q85 5 185 25l113 27q-20 78 -28 128.5t-10 68.5h82q1 -21 8 -65.5t28 -111.5l203 47z" />
    <glyph glyph-name="uni3056" unicode="&#x3056;" 
d="M649 513l-202 -48q44 -92 80.5 -146.5t62.5 -78.5l-40 -55q-28 25 -117 37.5t-163 -19.5q-17 -8 -42 -30t-25 -65q0 -39 25.5 -62t48.5 -33q76 -28 153 -23.5t100 14.5l27 -59q-7 -3 -49.5 -9.5t-68.5 -6.5q-21 0 -74.5 2t-105.5 19q-59 19 -95 59t-36 91q0 55 31 97
t98 65q37 11 76 16t129 -3q-46 68 -59 94.5t-31 77.5l-115 -27q-32 -7 -88 -13.5t-87 4.5l-24 47q86 2 181 24l110 26q-18 77 -26.5 126.5t-10.5 67.5h81q1 -20 8 -64t25 -111l199 47zM826 695l-37 -36l-82 107l25 22q20 -7 54.5 -43.5t39.5 -49.5zM726 635l-39 -37
q-3 7 -45 55l-42 48l34 28q20 -8 53.5 -44.5t38.5 -49.5z" />
    <glyph glyph-name="uni3057" unicode="&#x3057;" 
d="M736 105q-54 -57 -166 -112.5t-276 -55.5q-52 0 -81.5 30.5t-29.5 84.5v661h82v-633q0 -24 19 -45.5t38 -21.5q147 0 274 75t140 93v-76z" />
    <glyph glyph-name="uni3058" unicode="&#x3058;" 
d="M737 105q-55 -57 -167 -112.5t-276 -55.5q-51 0 -80.5 30.5t-29.5 84.5v661h82v-633q0 -24 19 -45.5t38 -21.5q148 0 274.5 75t139.5 93v-76zM784 640l-37 -36l-82 107l25 22q20 -7 54.5 -43.5t39.5 -49.5zM684 580l-39 -37q-3 7 -45 55l-42 48l34 28q20 -8 53.5 -44.5
t38.5 -49.5z" />
    <glyph glyph-name="uni3059" unicode="&#x3059;" 
d="M809 503h-286v-182q20 -32 28 -94t-7 -114q-21 -74 -69.5 -122t-64.5 -55l-63 22q11 6 51.5 52.5t57.5 132.5q-70 -47 -142 -7q-65 36 -64 110q0 69 41.5 106t95.5 37h12t41 -9v123h-350v70h350v160h83v-160h286v-70zM444 215v72q-12 22 -25.5 28t-27.5 6
q-25 0 -45 -21.5t-20 -48.5q0 -29 21 -47.5t44 -18.5q14 0 27 5.5t26 24.5z" />
    <glyph glyph-name="uni305A" unicode="&#x305a;" 
d="M385 208v72q-12 21 -25.5 26.5t-25.5 5.5q-26 0 -45 -21t-19 -48q0 -28 20 -46.5t44 -18.5q13 0 26 5.5t25 24.5zM463 558h280v-67h-280v-179q44 -102 20 -205q-19 -71 -67 -118t-65 -54l-60 18q21 13 54.5 53t51.5 125q-87 -32 -144.5 3.5t-57.5 101.5q0 70 41 106
t93 36h11.5t40.5 -10v123h-342v67h342v157h82v-157zM833 699l-37 -36q-1 5 -45 57t-37 50l25 22q20 -7 54.5 -43.5t39.5 -49.5zM733 639l-39 -37q-3 7 -45 55l-42 48l34 28q20 -8 53.5 -44.5t38.5 -49.5z" />
    <glyph glyph-name="uni305B" unicode="&#x305b;" 
d="M815 467l-181 -22v-144q0 -62 -27.5 -91.5t-73.5 -39.5q-46 -13 -87 -5l-29 56l54 10q40 7 61.5 32.5t21.5 61.5v110l-239 -29v-306q0 -19 19.5 -43t37.5 -24h241q36 0 69.5 2.5t35.5 6.5v-79h-371q-51 0 -81 32t-30 95v307l-168 -21l-9 69l177 21v242l79 -14v-218
l239 29v214l80 -8v-196l181 21v-69z" />
    <glyph glyph-name="uni305C" unicode="&#x305c;" 
d="M554 695l1 -195l83 13l75 9v-67l-157 -21v-142q0 -60 -26.5 -89t-71.5 -39q-43 -11 -84 -6l-29 54l53 11q38 7 59.5 32t21.5 62v106l-225 -27v-299q0 -18 11 -46.5t51 -27.5h332v-62h-362q-51 0 -80.5 31.5t-29.5 93.5v302l-134 -22l-8 68l142 19v237l78 -13v-214l225 29
v209zM831 709l-37 -36q-1 5 -45 57t-37 50l25 22q20 -7 54.5 -43.5t39.5 -49.5zM731 649l-39 -37q-3 7 -45 55l-42 48l34 28q20 -8 53.5 -44.5t38.5 -49.5z" />
    <glyph glyph-name="uni305D" unicode="&#x305d;" 
d="M800 400l-237 -47q-66 -18 -102 -56q-18 -23 -35 -58t-17 -75q0 -33 18.5 -66.5t40.5 -47.5q55 -41 119.5 -50t72.5 -7l-24 -59q-4 0 -68 7t-112 28q-66 32 -97 79t-31 113q0 26 8 53.5t61 102.5l-316 -63l-18 65l144 27l300 307h-278l-31 70h372l50 -63l-294 -288
l442 95z" />
    <glyph glyph-name="uni305E" unicode="&#x305e;" 
d="M717 389l-223 -47q-27 -10 -53.5 -23t-45.5 -31q-18 -20 -35 -55.5t-17 -74.5q0 -32 18.5 -65t40.5 -48q52 -40 112.5 -47t75.5 -7l-25 -58q-3 0 -65.5 7t-109.5 27q-66 31 -96 77t-30 111q0 26 8 52t62 100l-278 -55l-19 63l108 21l295 301h-273l-30 68h364l48 -61
l-289 -283l425 93zM833 709l-37 -36l-82 107l25 22q20 -7 54.5 -43.5t39.5 -49.5zM733 649l-39 -37q-3 7 -45 55l-42 48l34 28q20 -8 53.5 -44.5t38.5 -49.5z" />
    <glyph glyph-name="uni305F" unicode="&#x305f;" 
d="M801 424l-47 -60q-39 40 -101.5 65.5t-102.5 28.5l26 50q26 5 61 -2.5t78 -28.5q37 -17 62 -35q23 -17 24 -18zM455 575l-20 -76q-16 -12 -45 -19.5t-74 -13.5l-166 -521l-72 36l150 479h-139l-18 73h181l60 189l77 -26l-53 -154q76 13 87.5 17t31.5 16zM797 44l-34 -76
h-184q-67 0 -128.5 23.5t-93.5 73.5l10 64q6 -14 73.5 -49.5t131.5 -35.5h225z" />
    <glyph glyph-name="uni3060" unicode="&#x3060;" 
d="M739 412l-45 -58q-39 40 -100.5 64.5t-99.5 27.5l26 48q23 5 57.5 -2.5t76.5 -27.5q36 -17 61 -35q23 -16 24 -17zM421 561l-19 -75q-17 -11 -45 -18.5t-73 -13.5l-163 -511l-70 35l147 470h-136l-17 70h177l58 185l76 -25l-52 -151q73 13 84.5 18.5t32.5 15.5zM735 39
l-33 -73h-181q-65 0 -125.5 22.5t-91.5 71.5l8 60q7 -13 73.5 -47t129.5 -34h220zM837 679l-37 -36l-82 107l25 22q20 -7 54.5 -43.5t39.5 -49.5zM737 619l-39 -37q-3 7 -45 55l-42 48l34 28q20 -8 53.5 -44.5t38.5 -49.5z" />
    <glyph glyph-name="uni3061" unicode="&#x3061;" 
d="M781 207q5 -53 -18 -97t-69 -82q-41 -36 -88 -52.5t-82 -27.5q-29 -7 -90 -14t-104 4l-31 55q70 -7 181.5 15.5t178.5 91.5q14 19 27 43.5t6 62.5q-6 38 -33.5 60.5t-59.5 22.5q-78 3 -150 -24t-118 -72l-28 29q6 21 12 73t13 146q-113 -35 -191 -23l-31 65q87 -3 188 19
l38 11q6 86 7.5 143.5t1.5 66.5h83l-10 -183l151 45l96 31l30 -62q-1 0 -44 -17q-45 -18 -76 -26l-162 -46l-7 -156q74 38 127.5 48t100.5 1q73 -9 110 -52t41 -99z" />
    <glyph glyph-name="uni3062" unicode="&#x3062;" 
d="M716 198q5 -50 -17.5 -93t-68.5 -81q-40 -35 -85.5 -51t-80.5 -27q-27 -7 -87.5 -14t-101.5 4l-30 53q67 -7 178 15t174 90q14 19 26.5 43t6.5 60q-6 39 -34 61t-59 22q-77 3 -143.5 -28.5t-115.5 -65.5l-30 29q5 19 12 70.5t12 143.5q-61 -15 -108.5 -24.5t-77.5 0.5
l-28 58q5 -1 80.5 9t100.5 16l38 11q6 85 7 141t1 64h81l-9 -179l148 44l94 31l28 -62q-1 0 -42 -15q-44 -17 -77 -25l-155 -45l-9 -154q74 37 126 47t97 1q72 -9 108.5 -51.5t40.5 -97.5zM823 689l-37 -36l-82 107l25 22q20 -7 54.5 -43.5t39.5 -49.5zM723 629l-39 -37
q-3 7 -45 55l-42 48l34 28q20 -8 53.5 -44.5t38.5 -49.5z" />
    <glyph glyph-name="uni3063" unicode="&#x3063;" 
d="M729 303q0 -111 -93 -167.5t-202 -45.5l-40 48q22 -3 91.5 11t100.5 36q34 21 51 50t17 77q0 47 -35.5 80.5t-87.5 35.5q-82 0 -186 -58t-148 -87l-34 54l105 65q35 22 115.5 58.5t161.5 26.5q89 -8 136.5 -58.5t47.5 -125.5z" />
    <glyph glyph-name="uni3064" unicode="&#x3064;" 
d="M822 354q0 -153 -126 -229.5t-279 -62.5l-52 61q69 -8 146 9.5t124 51.5q50 32 75 73.5t24 111.5q0 69 -51 117.5t-127 49.5q-125 3 -256 -73.5t-209 -127.5l-41 67l147 92q66 40 165 83t210 31q119 -10 184.5 -80t65.5 -174z" />
    <glyph glyph-name="uni3065" unicode="&#x3065;" 
d="M668 555q63 -41 86 -94t23 -113q0 -152 -125 -227.5t-276 -61.5l-52 60q69 -8 145.5 9.5t122.5 50.5q49 32 74 72.5t24 111.5q0 68 -50 113.5t-125 51.5q-107 9 -231.5 -54.5t-201.5 -113.5l-41 65l145 91q83 47 164 68.5t180 15.5q68 -4 138 -45zM836 688l-37 -36
l-82 107l25 22q20 -7 54.5 -43.5t39.5 -49.5zM736 628l-39 -37q-3 7 -45 55l-42 48l34 28q20 -8 53.5 -44.5t38.5 -49.5z" />
    <glyph glyph-name="uni3066" unicode="&#x3066;" 
d="M784 629l-159 -22q-80 -26 -149.5 -109.5t-69.5 -191.5q0 -174 101.5 -240t197.5 -66l-37 -69q-173 5 -258.5 106t-85.5 236q0 179 183 320l-411 -56l-15 70l694 90z" />
    <glyph glyph-name="uni3067" unicode="&#x3067;" 
d="M743 614l-147 -21q-79 -26 -151 -108t-72 -187q0 -171 99.5 -235.5t193.5 -64.5l-36 -67q-168 5 -252 104t-84 231q0 79 31 149t152 164l-407 -54l-14 68l679 88zM818 435l-37 -36l-82 107l25 22q20 -7 54.5 -43.5t39.5 -49.5zM718 375l-39 -37q-3 7 -45 55l-42 48l34 28
q20 -8 53.5 -44.5t38.5 -49.5z" />
    <glyph glyph-name="uni3068" unicode="&#x3068;" 
d="M736 -40q-18 -6 -105 -15.5t-140 -9.5q-26 0 -85 5.5t-116 21.5q-57 18 -100 60t-43 100q0 74 51 122t121 74l52 19q-24 48 -28.5 90.5t-4.5 77.5v218h84v-216q0 -27 4 -65.5t24 -74.5l246 90l30 -61l-203 -74q-47 -17 -128 -47t-113 -53q-21 -14 -36.5 -37.5
t-15.5 -58.5q0 -31 21.5 -56.5t46.5 -37.5q79 -32 215 -30t202 30z" />
    <glyph glyph-name="uni3069" unicode="&#x3069;" 
d="M721 -43q-17 -6 -102.5 -15t-137.5 -9q-24 0 -82 5t-114 21q-57 17 -99 58t-42 98q0 73 50 119.5t120 72.5l50 19q-24 47 -28 88.5t-4 75.5v214h81v-212q0 -27 3.5 -65t25.5 -73l239 90l30 -60l-199 -72q-44 -17 -123.5 -46.5t-111.5 -50.5q-22 -15 -37 -38.5t-15 -58.5
q0 -29 21.5 -55t41.5 -35q83 -33 215.5 -31.5t197.5 29.5zM818 633l-37 -36l-82 107l25 22q20 -7 54.5 -43.5t39.5 -49.5zM718 573l-39 -37q-3 7 -45 55l-42 48l34 28q20 -8 53.5 -44.5t38.5 -49.5z" />
    <glyph glyph-name="uni306A" unicode="&#x306a;" 
d="M473 531q0 -1 -31.5 -9.5t-88.5 -20.5l-46 -162q-30 -90 -65.5 -164.5t-105.5 -145.5l-57 49q14 9 67 93t84 191l34 126q-64 -1 -96.5 0.5t-49.5 2.5l-18 73l103 -1h23.5t57.5 5l45 160l85 -23l-39 -126q64 9 98 30v-78zM806 77l-38 -59q1 -7 -39 18.5t-96 50.5
q-14 -75 -53.5 -111t-106.5 -43q-87 -9 -136 45q-30 33 -31.5 74.5t29.5 71.5q25 26 70 43t143 15v85q0 66 14.5 103.5t89.5 83.5l-95 52l27 41q21 -2 52.5 -15t53.5 -25l109 -66l-37 -55l-62 36q-35 -32 -53 -65t-18 -76v-114q62 -16 113 -46.5t64 -43.5zM552 108
q-41 13 -67.5 13t-54.5 -9q-23 -9 -38.5 -27.5t-9.5 -47.5q5 -26 25 -36.5t40 -10.5q43 0 74 30.5t31 87.5z" />
    <glyph glyph-name="uni306B" unicode="&#x306b;" 
d="M776 535q-4 -1 -46 -5t-78 -4h-207q-30 0 -45 9.5t-17 15.5l-17 47h291q64 0 119 8v-71zM216 -56h-78q-10 22 -30 124.5t-25 205.5q-8 135 12 255.5t35 172.5l76 -29q-12 -25 -21 -55q-32 -136 -28.5 -281.5t33.5 -299.5zM804 -2h-332q-54 0 -88 18t-34 41v47
q7 -8 66 -20.5t102 -12.5h286v-73z" />
    <glyph glyph-name="uni306C" unicode="&#x306c;" 
d="M818 46l-37 -70q-25 42 -76 77q-43 -68 -99 -90.5t-123 -3.5q-40 11 -58.5 34.5t-18.5 56.5q0 43 26 78.5t75 49.5q44 14 85.5 6.5t78.5 -38.5q15 37 24 90t-3 116q-16 55 -44.5 85.5t-65.5 43.5q-28 12 -59.5 12t-67.5 -10l-96 -308q-19 -58 -43.5 -105t-47.5 -70
q-22 -24 -48 -35.5t-54 -6.5q-26 3 -51.5 17.5t-41.5 52.5q-13 31 -13.5 85t11.5 90q24 76 69 138q-25 96 -31.5 184.5t-6.5 144.5l76 -11q-2 -37 0.5 -95t24.5 -152q61 53 97.5 73.5t82.5 37.5l60 192l78 -21l-48 -145q130 1 191.5 -41.5t84.5 -95.5q35 -78 20 -176.5
t-23 -120.5q34 -24 53 -47q18 -22 19 -22zM364 462q-74 -54 -92.5 -70t-46.5 -47q17 -31 25 -46t40 -74zM268 138q-32 32 -48 52t-53 77q-32 -80 -38.5 -116t-3.5 -71q5 -35 35 -44t59 17q14 15 23.5 33t25.5 52zM652 95q-34 31 -68.5 40t-62.5 4q-24 -9 -40 -28.5
t-16 -41.5q0 -37 24.5 -51t43.5 -16q36 -2 65.5 20.5t53.5 72.5z" />
    <glyph glyph-name="uni306D" unicode="&#x306d;" 
d="M812 79l-36 -63q-26 42 -79 71q-42 -64 -99.5 -79.5t-112.5 1.5q-37 11 -54.5 32.5t-17.5 49.5q0 35 31.5 67.5t75.5 42.5q59 14 120 -5v195q0 38 -25 68t-69 30q-50 0 -114 -58.5t-112 -119.5v-368h-82v285l-131 -179l-45 54l195 362l-190 -11l-8 66l179 10v192l82 -27
v-141l41 -37l-41 -74v-67q62 71 137.5 127t149.5 39q68 -13 90 -64.5t22 -113.5v-203q31 -15 61 -45.5t32 -36.5zM626 123q-21 30 -51 38t-55 -2q-20 -8 -32 -22.5t-12 -35.5t15.5 -38t34.5 -19q34 -4 62.5 15.5t37.5 63.5z" />
    <glyph glyph-name="uni306E" unicode="&#x306e;" 
d="M804 292q0 -147 -101.5 -237t-241.5 -97l-35 53q99 0 196 69t97 212q0 91 -46.5 158.5t-137.5 105.5l-312 -544q-64 39 -107 108.5t-47 169.5q-4 154 111.5 254t267.5 96q140 -1 248 -100.5t108 -247.5zM461 576q-155 -12 -230.5 -94.5t-75.5 -193.5q0 -105 44 -162z" />
    <glyph glyph-name="uni306F" unicode="&#x306f;" 
d="M818 67l-46 -56l-36 38t-108 77q0 -90 -35.5 -132.5t-109.5 -42.5q-52 0 -92.5 20t-63.5 53q-30 39 -28.5 84.5t36.5 79.5q20 20 68.5 35.5t146.5 3.5v265l-256 -14v70l256 14v161h79v-156l160 9v-70l-160 -9v-294q21 -6 25 -8.5t10 -4.5q46 -21 96 -64.5t58 -58.5z
M552 148q-39 16 -72.5 17t-59.5 -9q-19 -9 -30 -26.5t-9 -41.5q11 -61 99 -61q50 2 61 38t11 83zM172 58l16 -117h-79q-50 274 9 769l80 -13l-26.5 -219t0.5 -420z" />
    <glyph glyph-name="uni3070" unicode="&#x3070;" 
d="M725 61l-40 -47q-72 75 -146 105q0 -86 -34.5 -128.5t-106.5 -42.5q-52 0 -92 19t-62 52q-28 38 -26.5 82.5t35.5 77.5q19 20 67 35t142 3v253l-220 -14v68l220 14v157h78v-152l156 8v-67l-156 -9v-278q17 -9 23 -11.5t10 -4.5q47 -20 95.5 -63.5t56.5 -56.5zM464 140
q-38 17 -70.5 17.5t-58.5 -8.5q-19 -9 -32 -27t-7 -42q10 -38 41.5 -50t55.5 -9q46 6 58.5 39.5t12.5 79.5zM825 711l-37 -36l-82 107l25 22q20 -7 54.5 -43.5t39.5 -49.5zM725 651l-39 -37q-3 7 -45 55l-42 48l34 28q20 -8 53.5 -44.5t38.5 -49.5zM139 58l16 -117h-79
q-54 243 5 737l80 -13l-24.5 -203t2.5 -404z" />
    <glyph glyph-name="uni3071" unicode="&#x3071;" 
d="M743 61l-39 -47q-67 66 -147 107q0 -89 -34.5 -131t-105.5 -42q-53 0 -92.5 19t-61.5 52q-29 38 -27.5 82.5t35.5 77.5q20 20 68 35t142 3v249l-230 -14v68l230 14v157h77v-152l156 8v-67l-156 -9v-274q103 -44 185 -136zM483 140q-38 17 -70.5 17.5t-58.5 -8.5
q-19 -9 -32.5 -26.5t-6.5 -41.5q12 -42 44 -52t53 -8q49 5 60 39t11 80zM824 710q0 -37 -28 -63.5t-68 -26.5t-67.5 26.5t-27.5 63.5q0 41 28 68.5t67 27.5t67.5 -27.5t28.5 -68.5zM137 58l16 -117h-79q-54 243 5 737l80 -13l-24.5 -203t2.5 -404zM788 709q0 28 -18.5 46.5
t-41.5 18.5t-40.5 -19t-17.5 -46q0 -23 17.5 -40.5t40.5 -17.5q22 0 41 17.5t19 40.5z" />
    <glyph glyph-name="uni3072" unicode="&#x3072;" 
d="M827 445l-29 -98q-33 49 -172 215q36 -179 30.5 -269t-34.5 -167q-41 -104 -118.5 -154.5t-188.5 -26.5q-107 19 -155.5 108t-34.5 210q5 60 20 109.5t65 141.5q-84 -24 -114.5 -29.5t-39.5 -5.5v75q60 0 142 26.5t117 53.5l39 -38q-44 -35 -101 -136t-57 -238
q0 -67 34 -130.5t109 -80.5q66 -11 117.5 18t83.5 96q63 128 40.5 301.5t-78.5 251.5l65 40z" />
    <glyph glyph-name="uni3073" unicode="&#x3073;" 
d="M766 440l-28 -86q-33 48 -174 208q37 -176 32.5 -268t-34.5 -170q-41 -104 -107 -153.5t-176 -25.5q-107 19 -149.5 107t-29.5 208q5 59 20 108.5t67 141.5q-86 -25 -116 -30.5t-39 -5.5v74q59 0 140 24.5t118 57.5l37 -40q-44 -35 -100.5 -135.5t-56.5 -235.5
q0 -65 28 -128.5t104 -80.5q65 -11 106.5 18t72.5 95q63 127 40.5 298.5t-78.5 248.5l65 40zM839 708l-37 -36l-82 107l25 22q20 -7 54.5 -43.5t39.5 -49.5zM739 648l-39 -37q-3 7 -45 55l-42 48l34 28q20 -8 53.5 -44.5t38.5 -49.5z" />
    <glyph glyph-name="uni3074" unicode="&#x3074;" 
d="M841 693q0 -37 -28 -63.5t-68 -26.5t-67.5 26.5t-27.5 63.5q0 41 28 68.5t67 27.5t67.5 -27.5t28.5 -68.5zM805 692q0 28 -18.5 46.5t-41.5 18.5t-40.5 -19t-17.5 -46q0 -23 17.5 -40.5t40.5 -17.5q22 0 41 17.5t19 40.5zM769 440l-28 -86q-33 48 -174 208
q37 -176 32.5 -268t-34.5 -170q-41 -104 -107 -153.5t-176 -25.5q-107 19 -149.5 107t-29.5 208q5 59 20 108.5t67 141.5q-86 -25 -116 -30.5t-39 -5.5v74q59 0 140 24.5t118 57.5l37 -40q-44 -35 -100.5 -135.5t-56.5 -235.5q0 -65 28 -128.5t104 -80.5q65 -11 106.5 18
t72.5 95q63 127 40.5 298.5t-78.5 248.5l65 40z" />
    <glyph glyph-name="uni3075" unicode="&#x3075;" 
d="M510 614l-50 -53q-25 31 -87.5 77t-90.5 53l36 40q17 0 51 -15.5t66 -39.5q34 -25 55 -44q18 -18 20 -18zM831 176l-70 -36q-11 46 -60 127.5t-75 106.5l61 26q16 -6 45.5 -41.5t53.5 -76.5q19 -35 32 -70.5zM602 147q0 -92 -61.5 -148t-136.5 -56q-61 -1 -116 35l-4 56
l35 -14t83 -10q51 4 84 44t32 100q-1 79 -51.5 113t-125.5 51q-40 8 -75.5 36.5t-29.5 81.5q3 34 23 61t34 34l43 -26q-29 -23 -28 -59q0 -34 22 -53t51 -27q118 -29 169.5 -81t51.5 -138zM271 152q-28 -34 -102 -66.5t-102 -38.5l-21 67q50 8 129 52t96 60v-74z" />
    <glyph glyph-name="uni3076" unicode="&#x3076;" 
d="M492 599v-1l-47 -51q-24 30 -85.5 75t-87.5 52l34 38q15 0 48.5 -15t66.5 -39q32 -25 53 -44q15 -14 18 -16q1 0 0 1zM808 169l-68 -35q-10 45 -58.5 125t-73.5 104l59 25q15 -6 44 -41t53 -75q19 -35 31.5 -69zM584 140q0 -90 -60 -144.5t-134 -54.5q-35 0 -64.5 7
t-47.5 26l-5 55l34.5 -12t79.5 -11q44 2 80 42t35 99q-1 78 -49 114.5t-124 47.5q-39 6 -74 34.5t-29 79.5q3 33 22 59.5t33 33.5l38 -25q-11 -12 -17 -24t-6 -34q0 -33 22 -53t52 -26q114 -16 164 -72t50 -142zM258 145q-27 -32 -99 -64t-99 -38l-20 65q49 7 127 50t91 58
v-71zM832 634l-37 -36l-82 107l25 22q20 -7 54.5 -43.5t39.5 -49.5zM732 574l-39 -37q-3 7 -45 55l-42 48l34 28q20 -8 53.5 -44.5t38.5 -49.5z" />
    <glyph glyph-name="uni3077" unicode="&#x3077;" 
d="M491 599v-1l-47 -51q-24 30 -85 75t-88 52l34 38q16 0 49.5 -15t66.5 -39q32 -25 52 -44q15 -14 18 -16q1 0 0 1zM808 169l-69 -35q-10 45 -58.5 125t-73.5 104l59 25q16 -6 45 -41t52 -75q19 -35 32 -69q12 -33 13 -34zM584 140q0 -90 -60.5 -144.5t-133.5 -54.5
q-35 0 -65 7t-48 26l-4 55l34 -12t80 -11q44 2 79.5 42t34.5 99q0 78 -48.5 114.5t-122.5 47.5q-41 6 -76 34.5t-29 79.5q3 33 22.5 59.5t33.5 33.5l42 -24q-15 -10 -21 -23t-6 -37q0 -32 21.5 -52t51.5 -26q115 -16 165 -72t50 -142zM258 145q-27 -32 -99.5 -64t-99.5 -38
l-20 65q49 7 127 50t92 58v-71zM830 622q0 -37 -28 -63.5t-68 -26.5t-67.5 26.5t-27.5 63.5q0 41 28 68.5t67 27.5t67.5 -27.5t28.5 -68.5zM794 621q0 28 -18.5 46.5t-41.5 18.5t-40.5 -19t-17.5 -46q0 -23 17.5 -40.5t40.5 -17.5q22 0 41 17.5t19 40.5z" />
    <glyph glyph-name="uni3078" unicode="&#x3078;" 
d="M825 133l-33 -80l-443 352l-241 -184l-52 64l295 229z" />
    <glyph glyph-name="uni3079" unicode="&#x3079;" 
d="M825 133l-32 -79l-444 351l-241 -184l-52 64l295 229zM832 569l-37 -36l-82 107l25 22q20 -7 54.5 -43.5t39.5 -49.5zM732 509l-39 -37q-3 7 -45 55l-42 48l34 28q20 -8 53.5 -44.5t38.5 -49.5z" />
    <glyph glyph-name="uni307A" unicode="&#x307a;" 
d="M825 133l-33 -80l-443 352l-241 -184l-52 64l295 229zM822 572q0 -37 -28 -63.5t-68 -26.5t-67.5 26.5t-27.5 63.5q0 41 28 68.5t67 27.5t67.5 -27.5t28.5 -68.5zM786 571q0 28 -18.5 46.5t-41.5 18.5t-40.5 -19t-17.5 -46q0 -23 17.5 -40.5t40.5 -17.5q22 0 41 17.5
t19 40.5z" />
    <glyph glyph-name="uni307B" unicode="&#x307b;" 
d="M807 53l-53 -53l-22 23t-74 62q-20 -82 -55 -107.5t-77 -29.5q-52 -9 -100 2t-72 40q-33 33 -33 85.5t41 86.5q21 20 68.5 35t139.5 1v201l-159 -29q-22 -6 -41.5 2.5t-33.5 32.5l-8 18l241 47q-1 38 -4.5 61.5t-22.5 69.5l-94 -18q-23 -6 -42 3t-34 32l-8 17l378 75
l11 -67l-131 -27q15 -44 19 -64t7 -68l132 25l11 -68l-142 -28v-240q62 -30 103.5 -67.5t54.5 -52.5zM572 116q-27 16 -65.5 24.5t-82.5 -8.5q-19 -7 -32 -28t-7 -44q9 -36 40 -44t54 -8q41 4 64 30t29 78zM185 59l16 -117h-79q-50 278 9 773l80 -13l-26.5 -221t0.5 -422z
" />
    <glyph glyph-name="uni307C" unicode="&#x307c;" 
d="M471 110q-28 19 -66 26t-78 -10q-19 -9 -29.5 -27.5t-8.5 -39.5q12 -64 95 -56q38 4 62 29.5t25 77.5zM639 631l11 -64l-125 -25q12 -45 15.5 -60t6.5 -63l129 25l11 -65l-139 -28v-187q61 -28 101 -65t52 -51l-47 -49q-23 25 -97 81q-20 -81 -54 -105.5t-75 -28.5
q-52 -9 -98 2t-70 39q-32 33 -32 83.5t40 84.5q20 17 67 32.5t136 3.5v146l-155 -30q-22 -4 -41.5 4.5t-32.5 31.5l-8 17l237 46q-1 40 -6 56.5t-21 63.5l-94 -17q-21 -6 -40 2t-33 31l-7 16zM840 729l-37 -36q-1 5 -45 56.5t-38 49.5l26 23q20 -7 54.5 -44.5t39.5 -48.5z
M740 669l-39 -37q-3 7 -45 54t-43 48l35 29q20 -8 53.5 -44.5t38.5 -49.5zM152 59l16 -117h-81q-56 201 3 695l80 -13l-22.5 -182t4.5 -383z" />
    <glyph glyph-name="uni307D" unicode="&#x307d;" 
d="M836 714q0 -37 -28 -63.5t-68 -26.5t-67.5 26.5t-27.5 63.5q0 41 28 68.5t67 27.5t67.5 -27.5t28.5 -68.5zM800 713q0 28 -18.5 46.5t-41.5 18.5t-40.5 -19t-17.5 -46q0 -23 17.5 -40.5t40.5 -17.5q22 0 41 17.5t19 40.5zM451 110q-28 18 -65 26t-78 -10
q-19 -8 -30 -25.5t-8 -44.5q4 -38 36 -48t57 -5q36 7 61.5 31t26.5 76zM609 661l11 -64l-115 -26q12 -44 15.5 -59t6.5 -63l119 25l11 -65l-129 -28v-217q61 -28 101 -65t53 -51l-54 -55q-45 61 -91 85q-17 -66 -52.5 -97t-76.5 -35q-51 -9 -97.5 2t-70.5 39
q-32 33 -32 83.5t40 85.5q20 17 67 32t136 3v176l-155 -30q-22 -4 -41.5 4.5t-32.5 31.5l-8 17l237 46q-1 40 -6 56.5t-21 63.5l-93 -17q-22 -6 -40.5 2t-33.5 31l-7 16zM152 59l16 -117h-80q-57 231 2 725l80 -13l-22.5 -197t4.5 -398z" />
    <glyph glyph-name="uni307E" unicode="&#x307e;" 
d="M785 563h-277v-142h171l24 -70h-195v-174q24 -7 29.5 -10t13.5 -6q59 -24 114.5 -69t66.5 -59l-53 -55q-5 8 -54.5 49.5t-118.5 67.5q0 -81 -36 -116t-83 -42q-55 -12 -106.5 0t-88.5 45q-42 37 -33.5 95t59.5 90q35 21 80 32.5t127 0.5v151h-156q-53 0 -78.5 24.5
t-25.5 39.5l59 25q1 -4 20 -11.5t34 -7.5h147v142h-294l-23 70h317v90h83v-90h277v-70zM418 119q-24 17 -58.5 22t-72.5 -10q-25 -10 -39.5 -30.5t-8.5 -44.5q9 -38 40.5 -47.5t56.5 -9.5q48 5 71 35.5t11 84.5z" />
    <glyph glyph-name="uni307F" unicode="&#x307f;" 
d="M826 165l-40 -62l-125 82q-17 -33 -22.5 -43.5t-11.5 -20.5q-53 -84 -116.5 -126.5t-114.5 -46.5l-22 16q164 110 219 255q-59 28 -91 39t-80 23q-25 -79 -66.5 -121t-91.5 -58q-49 -19 -97 -10t-82 48q-27 30 -21 78.5t43 81.5q40 37 98.5 52t157.5 5q23 88 46 163
t29 113h-173l-23 69h241l45 -49l-89 -307q53 -12 86.5 -23t90.5 -32q26 79 38.5 138t12.5 77l68 -37q-2 -33 -11 -85.5t-36 -128.5q61 -33 95.5 -57.5t42.5 -32.5zM335 290q-47 10 -93.5 8t-82.5 -34q-14 -12 -19 -34.5t9 -44.5q15 -24 47.5 -23.5t48.5 10.5q32 19 51.5 43
t38.5 75z" />
    <glyph glyph-name="uni3080" unicode="&#x3080;" 
d="M832 405l-51 -53q-34 39 -90 77.5t-87 47.5l40 49q56 -6 110 -49t78 -72zM276 240q0 24 -18.5 44t-42.5 20q-22 0 -40.5 -20t-18.5 -44q0 -26 19 -42.5t40 -16.5q23 0 42 16.5t19 42.5zM670 199l77 -29v-77q0 -53 -37.5 -101.5t-119.5 -48.5h-351q-50 0 -73 25.5
t-23 65.5q0 17 4.5 34.5t31.5 48.5q-53 20 -71 54t-18 70q0 60 37.5 94t85.5 34h9.5t39.5 -9v107h-144l-27 71h171v185h79v-187q56 5 85 16t28 9l30 -59q-16 -12 -47.5 -23.5t-95.5 -11.5v-218q0 -58 -20.5 -84t-48.5 -38q-15 -6 -25 -25.5t-8 -41.5q4 -19 19.5 -33
t28.5 -14h258q81 0 104 54t21 132z" />
    <glyph glyph-name="uni3081" unicode="&#x3081;" 
d="M782 382q40 -79 28.5 -157t-29.5 -114q-42 -87 -128.5 -131.5t-168.5 -45.5l-31 39q48 2 127 41.5t120 115.5q20 36 27 81t1 93q-8 50 -42 89t-72 57q-11 7 -20.5 10.5t-38.5 13.5q-26 -78 -49 -132.5t-54 -111.5q-32 -54 -77.5 -109.5t-82.5 -87.5q-24 -18 -53 -24
t-57 7q-19 8 -38.5 29t-33.5 59q-10 29 -13.5 104t41.5 150q15 27 34 49.5t53 52.5q-15 72 -25 140t-7 102l78 -19q-1 -13 2.5 -58.5t19.5 -123.5q62 21 101 29t95 7q21 71 29.5 118.5t8.5 57.5l83 -27q-5 -19 -14.5 -57.5t-24.5 -99.5q100 -23 145 -63t66 -84zM476 484
q-66 -7 -91.5 -15t-74.5 -29q15 -43 23.5 -64.5t21.5 -42.5l4.5 -9t26.5 -50q37 79 50.5 109.5t39.5 100.5zM345 206q-29 42 -49.5 78t-53.5 111q-55 -71 -70.5 -124.5t-8.5 -118.5q4 -22 22 -36.5t33 -16.5q18 0 33.5 6t30.5 18q14 17 27 33t36 50z" />
    <glyph glyph-name="uni3082" unicode="&#x3082;" 
d="M733 352q74 -77 68.5 -202.5t-123.5 -187.5q-39 -18 -92.5 -26.5t-116.5 3.5q-66 12 -128.5 62.5t-50.5 161.5l9 101l-145 6q-25 2 -39 14.5t-15 15.5l24 54q16 -13 40 -18l142 -4l23 161l-161 9l-17 69l183 -9l19 159l85 -12l-18 -153l137 -6v-70l-143 7l-20 -159
l166 -7v-69l-174 7l-8 -87q-10 -94 48 -127t106 -35q67 -1 126 41.5t59 131.5q0 43 -18 81t-30 49l43 58q10 -6 21 -19z" />
    <glyph glyph-name="uni3083" unicode="&#x3083;" 
d="M729 294q0 -55 -31.5 -94.5t-84.5 -54.5q-34 -7 -55 -1v48q18 0 37 6t39 23q26 21 31 59t-18 68q-24 28 -55.5 28t-74.5 -20l12 -51l-60 -14l-12 49l-116 -41l106 -350l-62 -9l-102 336l-95 -33l-16 53l95 34l-44 143l62 14l41 -136l116 41q-18 56 -29 82.5l-11 26.5
l57 18q3 -4 14.5 -29.5t29.5 -73.5q36 9 59 14t52 0q52 -6 83.5 -43.5t31.5 -92.5z" />
    <glyph glyph-name="uni3084" unicode="&#x3084;" 
d="M90 359l-18 69l139 48l-60 190l72 21l57 -184l165 58q-21 64 -37.5 101.5t-17.5 38.5l64 21q7 -10 24 -44.5t38 -90.5q40 12 76.5 20.5t81.5 1.5q69 -8 114 -60.5t45 -128.5t-44 -131.5t-116 -76.5q-26 -6 -54 -9.5t-30 -2.5v75q8 0 46.5 8.5t68.5 32.5q35 31 41.5 84.5
t-25.5 94.5q-33 42 -80 43t-99 -29q10 -38 13 -71l-74 -23q-1 31 -15 73q-22 -10 -56.5 -21t-107.5 -37l145 -476l-73 -14l-142 465q-15 7 -141 -46z" />
    <glyph glyph-name="uni3085" unicode="&#x3085;" 
d="M644 261q0 41 -31 71.5t-95 30.5v-110q0 -30 -2 -53.5t-8 -75.5q38 5 42.5 6t6.5 3q51 16 69 48.5t18 79.5zM268 66l-62 -18q-8 24 -25 114t-3 215l18 101l65 -22q-8 -16 -15.5 -65.5t-7.5 -193.5q82 188 210 212v110h70v-102q173 0 190 -159q3 -70 -31.5 -117
t-104.5 -63q-15 -4 -29.5 -6t-47.5 -2q-23 -55 -52 -88.5t-47 -41.5l-43 14h-1q-1 -2 1 0q4 4 24 30q28 36 52 98q-42 22 -60.5 38t-19.5 18l38 44q17 -19 55 -47q6 67 6.5 87.5t0.5 49.5v81q-164 -87 -181 -287z" />
    <glyph glyph-name="uni3086" unicode="&#x3086;" 
d="M741 376q-9 65 -55 108.5t-134 45.5v-169q0 -46 -3 -82t-12 -102q43 6 55 8t21 7q75 23 103.5 76t24.5 108zM209 103l-75 -26q-91 293 -6 598l72 -34q-50 -162 -33 -398q110 307 303 338l-4 142h86v-132q249 -5 267 -225q7 -85 -42.5 -154.5t-143.5 -91.5
q-24 -6 -47.5 -9.5t-66.5 -2.5q-30 -71 -69 -115.5t-67 -56.5l-50 20q6 4 41.5 49.5t64.5 120.5q-53 27 -81.5 50t-37.5 34l35 57q45 -45 101 -73q11 72 12.5 109t1.5 77v132q-93 -36 -171 -141q-87 -117 -90 -268z" />
    <glyph glyph-name="uni3087" unicode="&#x3087;" 
d="M680 -3l-42 -55l-40 39t-97 65q-10 -51 -33.5 -76.5t-58.5 -33.5q-40 -9 -87 -0.5t-71 35.5q-25 28 -19 66.5t42 64.5q27 18 60.5 26t93.5 4v381h69v-154l166 10l6 -67h-172v-184q99 -26 183 -121zM432 70q-25 13 -46.5 16.5t-49.5 -3.5q-20 -5 -31.5 -23.5t-10.5 -36.5
q4 -25 20.5 -32.5t34.5 -8.5q29 -1 56 17.5t27 70.5z" />
    <glyph glyph-name="uni3088" unicode="&#x3088;" 
d="M759 15l-55 -67q-3 7 -59 62.5t-124 83.5q-11 -74 -43.5 -109.5t-87.5 -45.5q-54 -11 -118 0.5t-102 48.5q-36 38 -26 94.5t60 93.5q40 27 93 35.5t134 -4.5v516h82v-218l221 15l7 -81h-228v-256q26 -7 33.5 -10t14.5 -6q56 -25 121 -77t77 -75zM427 125
q-30 16 -63.5 20.5t-75.5 -5.5q-24 -6 -43.5 -27.5t-13.5 -51.5q6 -29 28.5 -42.5t45.5 -13.5q54 0 88 26t34 94z" />
    <glyph glyph-name="uni3089" unicode="&#x3089;" 
d="M442 635l-44 -48q-27 32 -76 67t-68 41l34 37q52 -10 91.5 -39t62.5 -58zM775 252q9 -65 -16.5 -117.5t-79.5 -94.5q-89 -70 -186 -85.5t-147 -9.5l-52 41q108 2 211 34.5t165 115.5q17 21 24.5 59t1.5 75q-12 42 -45.5 67t-71.5 30q-109 9 -206.5 -49.5t-164.5 -148.5
l-90 28l40 391l75 -26l-30 -302q102 99 186 141.5t200 24.5q79 -11 129.5 -57.5t56.5 -116.5z" />
    <glyph glyph-name="uni308A" unicode="&#x308a;" 
d="M654 319q0 -196 -81 -282t-185 -107l-55 29q101 34 164 136.5t63 274.5v289q0 21 -2 37t-7 32h97q1 -5 3.5 -29.5t2.5 -55.5v-324zM334 380v-170h-71q0 2 -6 33t-6 86v261q-1 53 4 96l86 -9q-7 -29 -6 -72z" />
    <glyph glyph-name="uni308B" unicode="&#x308b;" 
d="M765 167q-3 -89 -56.5 -145t-131.5 -78q-39 -10 -87.5 -14.5t-92.5 8.5q-40 9 -70.5 39.5t-30.5 79.5q0 54 37.5 91.5t94.5 37.5q62 0 95.5 -42t19.5 -112q74 13 104 53.5t31 92.5q1 66 -46.5 107.5t-119.5 41.5q-57 0 -104.5 -14t-95.5 -51l-119 -125l-51 61l403 445
h-326l-25 70h432l35 -66l-260 -278q65 23 150 14q100 -11 159 -70.5t55 -145.5zM489 68q0 28 -19 47t-45 19t-45 -19t-19 -47t19 -47t45 -19t45 19t19 47z" />
    <glyph glyph-name="uni308C" unicode="&#x308c;" 
d="M371 397q79 82 115 120q33 37 58.5 62t56.5 25q30 0 44.5 -19t14.5 -55v-430q0 -27 23 -27h22q45 0 67 51.5t22 45.5l39 -37q0 -7 -10 -42t-33 -62q-11 -13 -34.5 -24t-52.5 -11h-63q-28 0 -43.5 20t-15.5 56v446l-206 -206v-367h-75v290l-166 -197l-48 47l254 416
l-231 -89l-29 65l220 75v165l78 17v-125l49 -56z" />
    <glyph glyph-name="uni308D" unicode="&#x308d;" 
d="M815 213q-8 -118 -130 -193.5t-233 -80.5l-45 43q53 8 126 33t132 81q25 24 43.5 64t15.5 89q-6 52 -44.5 85t-100.5 33q-77 1 -164.5 -26.5t-166.5 -85.5l-99 -102l-45 70l419 430h-328v70h406l38 -65l-261 -265q112 42 221 36q107 -6 165.5 -68t50.5 -148z" />
    <glyph glyph-name="uni308E" unicode="&#x308e;" 
d="M403 269q74 31 109.5 36.5t78.5 -1.5q50 -8 87 -40.5t41 -81.5q7 -46 -12 -86.5t-53 -68.5q-33 -26 -68.5 -42t-56.5 -20l-23 38q-3 0 44 22t74 56q47 51 21 117q-22 58 -107 58q-32 -1 -61.5 -15.5t-69.5 -40.5v-254h-73v212q-56 -61 -81 -91t-25 -31l-42 43l148 197v49
l-138 -8v63h138v140h73v-124l41 -46z" />
    <glyph glyph-name="uni308F" unicode="&#x308f;" 
d="M383 389q87 31 139 46q54 14 123 3q74 -9 122.5 -55t54.5 -115q9 -65 -14.5 -120t-73.5 -94q-49 -36 -97 -58t-79 -28l-31 50q12 1 71 27.5t99 79.5q66 86 30 173q-19 45 -61 65t-97 17q-46 -4 -89.5 -22.5t-95.5 -52.5v-362h-84v292q-64 -61 -99.5 -107.5t-41.5 -56.5
l-65 60l206 268v71l-192 -13v81h192v185h84v-168l61 -66z" />
    <glyph glyph-name="uni3090" unicode="&#x3090;" 
d="M785 332q41 -68 27 -165t-84 -160q-90 -83 -185 -65q-107 20 -112 122q-3 49 24.5 89.5t91.5 49.5q36 5 79.5 -15t61.5 -84q42 68 38 157t-111 130q-80 31 -171 15l-52 -183q-24 -80 -58.5 -135t-78.5 -70q-110 -37 -155 35q-14 22 -18 65.5t6 80.5q31 111 114.5 174.5
t175.5 86.5l54 193h-239v70h252l67 -74l-52 -182q238 11 325 -135zM363 391q-115 -64 -162.5 -126t-45.5 -136q1 -34 21 -45q18 -10 53 9q31 16 54 61.5t30 74.5zM630 72q0 29 -19.5 48.5t-46.5 19.5t-46.5 -19.5t-19.5 -48.5t19.5 -48.5t46.5 -19.5t46.5 19.5t19.5 48.5z
" />
    <glyph glyph-name="uni3091" unicode="&#x3091;" 
d="M825 29q0 -67 -80 -86l-25 31q33 6 46 37q7 14 1.5 36t-22.5 43q-13 15 -31 20.5t-33 5.5q-28 -1 -50 -14t-43 -29q-36 -35 -62 -59t-64 -53q-19 -14 -52 -14t-59 25q-11 10 -23.5 24.5t-30.5 26.5q-33 21 -65 19l-121 -99l-35 60l270 216q-39 39 -35.5 80.5t30.5 66.5
q28 28 79 23t69 -45.5t6 -78.5q64 5 99.5 31.5t40.5 83.5q6 57 -38 85.5t-116 27.5q-33 0 -71 -8t-81 -35l-158 -148l-46 34l331 326h-237l-37 61h385l27 -30l-190 -170q171 40 242 -17q57 -46 57 -122q-1 -63 -41 -106.5t-118 -59.5q-22 -5 -50.5 -8t-61.5 -3l-162 -131
q38 3 68 -25q26 -25 50 -41q25 -10 46.5 -0.5t34.5 20.5q39 34 84 74.5t96 48.5q40 9 73 1t57 -29q25 -22 35 -46.5t11 -49.5zM460 299q0 24 -16 40t-38 16t-38 -16t-16 -40t16 -40t38 -16t38 16t16 40z" />
    <glyph glyph-name="uni3092" unicode="&#x3092;" 
d="M756 402l-250 -147v-138h-77v93l-148 -87q-13 -9 -27 -24t-14 -38q0 -18 16 -32.5t34 -19.5q50 -15 185.5 -16t205.5 26l10 -65q-21 -6 -84 -14t-113 -9q-40 -3 -104.5 2t-121.5 17q-50 10 -78.5 35.5t-28.5 71.5q0 67 75 112.5t97 57.5l95 54q-46 51 -78.5 60.5
t-67.5 0.5q-27 -22 -51.5 -38.5t-34.5 -23.5l-39 53q117 70 182 220h-196v70h214q10 46 13 75.5t3 34.5h81q0 -4 -2.5 -30.5t-9.5 -79.5h155v-70h-175q-32 -85 -82 -151q59 -1 88.5 -21.5t58.5 -58.5l231 143z" />
    <glyph glyph-name="uni3093" unicode="&#x3093;" 
d="M831 143q-12 -76 -60 -138t-155 -62q-39 0 -77 23.5t-53 65.5q-16 43 -35 85t-50 68q-46 41 -91.5 28t-69.5 -52l-116 -204l-52 46l391 708l63 -38l-230 -409q81 32 148 -13q43 -31 63.5 -80t28.5 -74q20 -64 67 -74.5t82 7.5q40 19 68 73.5t30 90.5z" />
    <glyph glyph-name="uni30A1" unicode="&#x30a1;" 
d="M465 345v-139q0 -112 -40 -174.5t-95 -82.5l-42 30q33 17 70 74.5t37 140.5v163zM526 286q33 21 47 47q35 50 49 117h-441v67h488l53 -76l-17 -37q-21 -52 -60 -95.5t-64 -51.5z" />
    <glyph glyph-name="uni30A2" unicode="&#x30a2;" 
d="M824 607l-33 -56q-45 -74 -88.5 -124.5t-101.5 -75.5l-55 38q34 19 88 87t81 158h-629v79h663zM468 266q0 -127 -57 -208.5t-131 -109.5l-50 38q58 30 106.5 105t48.5 187v224l83 -19v-217z" />
    <glyph glyph-name="uni30A3" unicode="&#x30a3;" 
d="M663 483l-105 -136v-394h-74v295q-69 -73 -113.5 -107t-83.5 -44l-34 44q19 7 81.5 62t98.5 102l173 224z" />
    <glyph glyph-name="uni30A4" unicode="&#x30a4;" 
d="M718 681l-137 -177v-551h-89v435q-128 -167 -288 -225l-41 48q129 79 249 218l237 305z" />
    <glyph glyph-name="uni30A5" unicode="&#x30a5;" 
d="M703 433q0 -62 -17.5 -142.5t-54.5 -143.5q-41 -69 -109.5 -124t-148.5 -74l-48 41q-2 0 80.5 39t139.5 128q29 43 45 90.5t16 115.5h-338l11 -141l-67 -8l-22 219h212v90h73v-90h228z" />
    <glyph glyph-name="uni30A6" unicode="&#x30a6;" 
d="M807 603q0 -74 -29.5 -190.5t-80.5 -201.5q-57 -94 -154 -168t-211 -100l-50 48q32 9 141.5 69t184.5 177q37 59 61.5 132t29.5 153h-501l19 -215l-79 -10l-31 306h296v120h88v-120h316z" />
    <glyph glyph-name="uni30A7" unicode="&#x30a7;" 
d="M726 43h-553v71h241v293h-174v66h421v-66h-174v-293h239v-71z" />
    <glyph glyph-name="uni30A8" unicode="&#x30a8;" 
d="M826 43h-753v85h333v425h-244v80h577v-80h-245v-425h332v-85z" />
    <glyph glyph-name="uni30A9" unicode="&#x30a9;" 
d="M716 342h-144l8 -271q4 -68 -23 -97.5t-72 -29.5l-19 17q46 30 46 114l-10 212q-50 -81 -67 -101.5t-36 -38.5q-37 -39 -86 -70t-74 -36l-32 43q41 11 116.5 77.5t147.5 180.5h-260v68h288l-4 101h69l4 -101h148v-68z" />
    <glyph glyph-name="uni30AA" unicode="&#x30aa;" 
d="M794 498h-207l13 -382q5 -90 -33.5 -133t-102.5 -43l-33 41q7 0 47.5 32t39.5 110l-11 305q-61 -109 -87.5 -144.5t-59.5 -68.5q-50 -51 -111.5 -88.5t-103.5 -43.5l-41 46q102 37 195.5 136.5t159.5 232.5h-355v80h398l-5 135h81l5 -135h211v-80z" />
    <glyph glyph-name="uni30AB" unicode="&#x30ab;" 
d="M781 578l-16 -205q-4 -61 -13 -133.5t-25 -131.5q-14 -62 -45 -108.5t-98 -54.5l-47 50q16 3 48 31t48 71q30 74 40 218.5t13 182.5h-221q-16 -109 -33 -183.5t-41 -121.5q-55 -110 -126 -171t-130 -77l-41 49q16 3 96 69.5t125 172.5q27 59 41 117t20 145h-231v80h239
q1 58 1.5 92t0.5 40l90 -21q0 -8 -1 -33.5t-4 -77.5h310z" />
    <glyph glyph-name="uni30AC" unicode="&#x30ac;" 
d="M431 562h304l-15 -201q-4 -59 -13.5 -130t-23.5 -129q-15 -60 -45.5 -106t-95.5 -54l-43 48q12 1 43.5 30t49.5 71q28 72 37.5 213.5t12.5 179.5h-217q-14 -107 -31.5 -180t-40.5 -119q-53 -108 -123 -167.5t-127 -74.5l-39 46q14 3 92.5 69t123.5 169q25 58 39 114.5
t22 142.5h-228v78h234q1 57 1.5 90.5t0.5 36.5l87 -18q0 -7 -1 -32.5t-4 -76.5zM818 704l-37 -36l-82 107l25 22q20 -7 54.5 -43.5t39.5 -49.5zM718 644l-39 -37q-3 7 -45 55l-42 48l34 28q20 -8 53.5 -44.5t38.5 -49.5z" />
    <glyph glyph-name="uni30AD" unicode="&#x30ad;" 
d="M806 293l-323 -39l51 -283l-87 -22l-47 294l-326 -40l-10 81l324 39l-27 154l-235 -29l-10 81l233 29l-23 144l76 13l27 -148l228 29l10 -80l-227 -28l30 -155l326 39z" />
    <glyph glyph-name="uni30AE" unicode="&#x30ae;" 
d="M751 285l-316 -38l50 -277l-83 -22l-48 288l-298 -39l-10 79l296 38l-26 152l-210 -29l-9 79l207 29l-22 140l75 13l26 -145l223 28l10 -77l-222 -28l28 -153l320 39zM828 684l-37 -36l-82 107l25 22q20 -7 54.5 -43.5t39.5 -49.5zM728 624l-39 -37q-3 7 -45 55l-42 48
l34 28q20 -8 53.5 -44.5t38.5 -49.5z" />
    <glyph glyph-name="uni30AF" unicode="&#x30af;" 
d="M768 632q0 -137 -118 -359.5t-354 -318.5l-59 43q136 49 259 203.5t164 351.5h-307q-32 -57 -78 -109.5t-90 -77.5l-65 32q44 28 115.5 127.5t87.5 188.5h89q-3 -24 -35 -81h391z" />
    <glyph glyph-name="uni30B0" unicode="&#x30b0;" 
d="M702 612q-6 -156 -121 -361.5t-338 -296.5l-58 42q133 48 253.5 196t162.5 342h-303q-31 -56 -76.5 -107.5t-87.5 -75.5l-63 31q43 27 113 125t85 184h84l-28 -79h377zM838 717l-37 -36q-1 5 -45 57t-37 50l25 22q20 -7 54.5 -43.5t39.5 -49.5zM738 657l-39 -37
q-3 7 -45 55l-42 48l34 28q20 -8 53.5 -44.5t38.5 -49.5z" />
    <glyph glyph-name="uni30B1" unicode="&#x30b1;" 
d="M317 533h477v-80h-200q0 -189 -60.5 -320t-175.5 -188l-59 37q58 33 132 140.5t74 330.5h-218q-54 -115 -147 -183l-61 36q147 133 186 402l85 -15q-10 -87 -33 -160z" />
    <glyph glyph-name="uni30B2" unicode="&#x30b2;" 
d="M834 682l-37 -36l-82 107l25 22q20 -7 54.5 -43.5t39.5 -49.5zM734 622l-39 -37q-3 7 -45 55l-42 48l34 28q20 -8 53.5 -44.5t38.5 -49.5zM281 520h446v-78h-196q0 -185 -58.5 -313t-172.5 -184l-56 35q56 32 128.5 137.5t72.5 324.5h-193q-51 -113 -144 -180l-58 36
q149 133 180 394l80 -15q-8 -86 -29 -157z" />
    <glyph glyph-name="uni30B3" unicode="&#x30b3;" 
d="M736 -7h-89v50h-489v80h489v430h-484v80h573v-640z" />
    <glyph glyph-name="uni30B4" unicode="&#x30b4;" 
d="M647 615v-626h-86v49h-480v77h480v423h-474v77h560zM838 718l-37 -36l-82 107l25 22q20 -7 54.5 -43.5t39.5 -49.5zM738 658l-39 -37q-3 7 -45 55l-42 48l34 28q20 -8 53.5 -44.5t38.5 -49.5z" />
    <glyph glyph-name="uni30B5" unicode="&#x30b5;" 
d="M814 403h-185v-153q0 -220 -170 -321l-54 49q136 73 136 267v158h-202v-280h-88v280h-185v80h185v230h88v-230h202v230h88v-230h185v-80z" />
    <glyph glyph-name="uni30B6" unicode="&#x30b6;" 
d="M564 696v-225h181v-78h-181v-150q0 -217 -165 -314l-54 48q133 77 133 254v162h-187v-274h-87v274h-141v78h141v225h87v-225h187v225h86zM841 658l-37 -36l-82 107l25 22q20 -7 54.5 -43.5t39.5 -49.5zM741 598l-39 -37q-3 7 -45 55l-42 48l34 28q20 -8 53.5 -44.5
t38.5 -49.5z" />
    <glyph glyph-name="uni30B7" unicode="&#x30b7;" 
d="M433 574l-55 -50q-15 21 -103.5 75.5t-111.5 65.5l37 46q41 -9 132 -65.5t101 -71.5zM342 327l-53 -51q-12 18 -107.5 76.5t-110.5 65.5l38 53q45 -14 133.5 -70.5t99.5 -73.5zM777 469q-54 -163 -227 -319t-338 -203l-45 74q179 47 361 219t217 281z" />
    <glyph glyph-name="uni30B8" unicode="&#x30b8;" 
d="M753 463q-53 -159 -222.5 -312t-330.5 -199l-44 72q175 45 353.5 214t211.5 274zM827 702l-37 -36l-82 107l25 22q20 -7 54.5 -43.5t39.5 -49.5zM727 642l-39 -37q-3 7 -45 55l-42 48l34 28q20 -8 53.5 -44.5t38.5 -49.5zM423 574l-55 -50q-15 21 -103.5 75.5
t-111.5 65.5l37 46q41 -9 132 -65.5t101 -71.5zM332 327l-53 -51q-12 18 -107.5 76.5t-110.5 65.5l38 53q45 -14 133.5 -70.5t99.5 -73.5z" />
    <glyph glyph-name="uni30B9" unicode="&#x30b9;" 
d="M809 30l-72 -59q-32 55 -97 129.5t-166 129.5q-75 -92 -155 -158.5t-163 -104.5l-51 45q155 71 278 244t149 332h-365v80h482q-2 -58 -32 -155t-99 -214q145 -77 209 -158t82 -111z" />
    </font>
</defs>
</svg>
